<?xml version="1.0" encoding="utf-8"?>
<svg xmlns="http://www.w3.org/2000/svg" xmlns:xlink="http://www.w3.org/1999/xlink" width="600" height="400" viewBox="0 0 2400 1600">
<defs>
  <clipPath id="clip540">
    <rect x="0" y="0" width="2400" height="1600"/>
  </clipPath>
</defs>
<path clip-path="url(#clip540)" d="M0 1600 L2400 1600 L2400 0 L0 0  Z" fill="#ffffff" fill-rule="evenodd" fill-opacity="1"/>
<defs>
  <clipPath id="clip541">
    <rect x="480" y="0" width="1681" height="1600"/>
  </clipPath>
</defs>
<path clip-path="url(#clip540)" d="M320.262 1384.3 L2352.76 1384.3 L2352.76 47.2441 L320.262 47.2441  Z" fill="#ffffff" fill-rule="evenodd" fill-opacity="1"/>
<defs>
  <clipPath id="clip542">
    <rect x="320" y="47" width="2033" height="1338"/>
  </clipPath>
</defs>
<polyline clip-path="url(#clip542)" style="stroke:#000000; stroke-linecap:round; stroke-linejoin:round; stroke-width:2; stroke-opacity:0.1; fill:none" points="377.786,1384.3 377.786,47.2441 "/>
<polyline clip-path="url(#clip542)" style="stroke:#000000; stroke-linecap:round; stroke-linejoin:round; stroke-width:2; stroke-opacity:0.1; fill:none" points="795.65,1384.3 795.65,47.2441 "/>
<polyline clip-path="url(#clip542)" style="stroke:#000000; stroke-linecap:round; stroke-linejoin:round; stroke-width:2; stroke-opacity:0.1; fill:none" points="1212.99,1384.3 1212.99,47.2441 "/>
<polyline clip-path="url(#clip542)" style="stroke:#000000; stroke-linecap:round; stroke-linejoin:round; stroke-width:2; stroke-opacity:0.1; fill:none" points="1630.85,1384.3 1630.85,47.2441 "/>
<polyline clip-path="url(#clip542)" style="stroke:#000000; stroke-linecap:round; stroke-linejoin:round; stroke-width:2; stroke-opacity:0.1; fill:none" points="2048.19,1384.3 2048.19,47.2441 "/>
<polyline clip-path="url(#clip540)" style="stroke:#000000; stroke-linecap:round; stroke-linejoin:round; stroke-width:4; stroke-opacity:1; fill:none" points="320.262,1384.3 2352.76,1384.3 "/>
<polyline clip-path="url(#clip540)" style="stroke:#000000; stroke-linecap:round; stroke-linejoin:round; stroke-width:4; stroke-opacity:1; fill:none" points="377.786,1384.3 377.786,1365.4 "/>
<polyline clip-path="url(#clip540)" style="stroke:#000000; stroke-linecap:round; stroke-linejoin:round; stroke-width:4; stroke-opacity:1; fill:none" points="795.65,1384.3 795.65,1365.4 "/>
<polyline clip-path="url(#clip540)" style="stroke:#000000; stroke-linecap:round; stroke-linejoin:round; stroke-width:4; stroke-opacity:1; fill:none" points="1212.99,1384.3 1212.99,1365.4 "/>
<polyline clip-path="url(#clip540)" style="stroke:#000000; stroke-linecap:round; stroke-linejoin:round; stroke-width:4; stroke-opacity:1; fill:none" points="1630.85,1384.3 1630.85,1365.4 "/>
<polyline clip-path="url(#clip540)" style="stroke:#000000; stroke-linecap:round; stroke-linejoin:round; stroke-width:4; stroke-opacity:1; fill:none" points="2048.19,1384.3 2048.19,1365.4 "/>
<path clip-path="url(#clip540)" d="M277.283 1416.46 L284.296 1416.46 L284.296 1464.69 Q284.296 1474.06 280.72 1478.3 Q277.178 1482.54 269.297 1482.54 L266.623 1482.54 L266.623 1476.63 L268.81 1476.63 Q273.463 1476.63 275.373 1474.03 Q277.283 1471.42 277.283 1464.69 L277.283 1416.46 Z" fill="#000000" fill-rule="nonzero" fill-opacity="1" /><path clip-path="url(#clip540)" d="M315.65 1448.75 Q307.907 1448.75 304.921 1450.52 Q301.935 1452.29 301.935 1456.56 Q301.935 1459.97 304.157 1461.98 Q306.414 1463.96 310.269 1463.96 Q315.581 1463.96 318.775 1460.21 Q322.005 1456.42 322.005 1450.17 L322.005 1448.75 L315.65 1448.75 M328.393 1446.11 L328.393 1468.3 L322.005 1468.3 L322.005 1462.4 Q319.817 1465.94 316.553 1467.64 Q313.289 1469.31 308.567 1469.31 Q302.595 1469.31 299.053 1465.97 Q295.546 1462.61 295.546 1456.98 Q295.546 1450.42 299.921 1447.08 Q304.331 1443.75 313.046 1443.75 L322.005 1443.75 L322.005 1443.13 Q322.005 1438.72 319.088 1436.32 Q316.206 1433.89 310.963 1433.89 Q307.63 1433.89 304.47 1434.69 Q301.31 1435.49 298.394 1437.08 L298.394 1431.18 Q301.901 1429.83 305.199 1429.17 Q308.498 1428.47 311.623 1428.47 Q320.06 1428.47 324.227 1432.85 Q328.393 1437.22 328.393 1446.11 Z" fill="#000000" fill-rule="nonzero" fill-opacity="1" /><path clip-path="url(#clip540)" d="M373.879 1444.83 L373.879 1468.3 L367.49 1468.3 L367.49 1445.04 Q367.49 1439.52 365.338 1436.77 Q363.185 1434.03 358.879 1434.03 Q353.706 1434.03 350.72 1437.33 Q347.734 1440.63 347.734 1446.32 L347.734 1468.3 L341.31 1468.3 L341.31 1429.41 L347.734 1429.41 L347.734 1435.45 Q350.025 1431.95 353.116 1430.21 Q356.241 1428.47 360.303 1428.47 Q367.004 1428.47 370.442 1432.64 Q373.879 1436.77 373.879 1444.83 Z" fill="#000000" fill-rule="nonzero" fill-opacity="1" /><path clip-path="url(#clip540)" d="M383.393 1445.97 L402.108 1445.97 L402.108 1451.67 L383.393 1451.67 L383.393 1445.97 Z" fill="#000000" fill-rule="nonzero" fill-opacity="1" /><path clip-path="url(#clip540)" d="M414.4 1462.4 L425.858 1462.4 L425.858 1422.85 L413.393 1425.35 L413.393 1418.96 L425.789 1416.46 L432.803 1416.46 L432.803 1462.4 L444.261 1462.4 L444.261 1468.3 L414.4 1468.3 L414.4 1462.4 Z" fill="#000000" fill-rule="nonzero" fill-opacity="1" /><path clip-path="url(#clip540)" d="M464.469 1462.4 L488.948 1462.4 L488.948 1468.3 L456.032 1468.3 L456.032 1462.4 Q460.025 1458.27 466.9 1451.32 Q473.809 1444.34 475.58 1442.33 Q478.948 1438.54 480.268 1435.94 Q481.622 1433.3 481.622 1430.77 Q481.622 1426.63 478.705 1424.03 Q475.823 1421.43 471.17 1421.43 Q467.872 1421.43 464.191 1422.57 Q460.546 1423.72 456.379 1426.04 L456.379 1418.96 Q460.615 1417.26 464.296 1416.39 Q467.976 1415.52 471.032 1415.52 Q479.087 1415.52 483.879 1419.55 Q488.67 1423.58 488.67 1430.31 Q488.67 1433.51 487.455 1436.39 Q486.275 1439.24 483.115 1443.13 Q482.247 1444.13 477.594 1448.96 Q472.941 1453.75 464.469 1462.4 Z" fill="#000000" fill-rule="nonzero" fill-opacity="1" /><path clip-path="url(#clip540)" d="M678.255 1416.46 L688.706 1416.46 L701.935 1451.74 L715.234 1416.46 L725.685 1416.46 L725.685 1468.3 L718.845 1468.3 L718.845 1422.78 L705.477 1458.33 L698.429 1458.33 L685.061 1422.78 L685.061 1468.3 L678.255 1468.3 L678.255 1416.46 Z" fill="#000000" fill-rule="nonzero" fill-opacity="1" /><path clip-path="url(#clip540)" d="M757.005 1448.75 Q749.262 1448.75 746.275 1450.52 Q743.289 1452.29 743.289 1456.56 Q743.289 1459.97 745.512 1461.98 Q747.769 1463.96 751.623 1463.96 Q756.935 1463.96 760.13 1460.21 Q763.359 1456.42 763.359 1450.17 L763.359 1448.75 L757.005 1448.75 M769.748 1446.11 L769.748 1468.3 L763.359 1468.3 L763.359 1462.4 Q761.171 1465.94 757.907 1467.64 Q754.643 1469.31 749.921 1469.31 Q743.949 1469.31 740.407 1465.97 Q736.901 1462.61 736.901 1456.98 Q736.901 1450.42 741.276 1447.08 Q745.685 1443.75 754.4 1443.75 L763.359 1443.75 L763.359 1443.13 Q763.359 1438.72 760.442 1436.32 Q757.56 1433.89 752.317 1433.89 Q748.984 1433.89 745.824 1434.69 Q742.664 1435.49 739.748 1437.08 L739.748 1431.18 Q743.255 1429.83 746.553 1429.17 Q749.852 1428.47 752.977 1428.47 Q761.414 1428.47 765.581 1432.85 Q769.748 1437.22 769.748 1446.11 Z" fill="#000000" fill-rule="nonzero" fill-opacity="1" /><path clip-path="url(#clip540)" d="M805.442 1435.38 Q804.365 1434.76 803.081 1434.48 Q801.831 1434.17 800.303 1434.17 Q794.886 1434.17 791.97 1437.71 Q789.088 1441.22 789.088 1447.81 L789.088 1468.3 L782.664 1468.3 L782.664 1429.41 L789.088 1429.41 L789.088 1435.45 Q791.102 1431.91 794.331 1430.21 Q797.56 1428.47 802.178 1428.47 Q802.838 1428.47 803.636 1428.58 Q804.435 1428.65 805.407 1428.82 L805.442 1435.38 Z" fill="#000000" fill-rule="nonzero" fill-opacity="1" /><path clip-path="url(#clip540)" d="M804.365 1445.97 L823.081 1445.97 L823.081 1451.67 L804.365 1451.67 L804.365 1445.97 Z" fill="#000000" fill-rule="nonzero" fill-opacity="1" /><path clip-path="url(#clip540)" d="M835.372 1462.4 L846.831 1462.4 L846.831 1422.85 L834.365 1425.35 L834.365 1418.96 L846.761 1416.46 L853.775 1416.46 L853.775 1462.4 L865.233 1462.4 L865.233 1468.3 L835.372 1468.3 L835.372 1462.4 Z" fill="#000000" fill-rule="nonzero" fill-opacity="1" /><path clip-path="url(#clip540)" d="M898.671 1422.57 L880.962 1450.24 L898.671 1450.24 L898.671 1422.57 M896.83 1416.46 L905.65 1416.46 L905.65 1450.24 L913.045 1450.24 L913.045 1456.08 L905.65 1456.08 L905.65 1468.3 L898.671 1468.3 L898.671 1456.08 L875.268 1456.08 L875.268 1449.31 L896.83 1416.46 Z" fill="#000000" fill-rule="nonzero" fill-opacity="1" /><path clip-path="url(#clip540)" d="M1087.76 1416.46 L1098.22 1416.46 L1111.44 1451.74 L1124.74 1416.46 L1135.19 1416.46 L1135.19 1468.3 L1128.35 1468.3 L1128.35 1422.78 L1114.99 1458.33 L1107.94 1458.33 L1094.57 1422.78 L1094.57 1468.3 L1087.76 1468.3 L1087.76 1416.46 Z" fill="#000000" fill-rule="nonzero" fill-opacity="1" /><path clip-path="url(#clip540)" d="M1166.51 1448.75 Q1158.77 1448.75 1155.78 1450.52 Q1152.8 1452.29 1152.8 1456.56 Q1152.8 1459.97 1155.02 1461.98 Q1157.28 1463.96 1161.13 1463.96 Q1166.44 1463.96 1169.64 1460.21 Q1172.87 1456.42 1172.87 1450.17 L1172.87 1448.75 L1166.51 1448.75 M1179.26 1446.11 L1179.26 1468.3 L1172.87 1468.3 L1172.87 1462.4 Q1170.68 1465.94 1167.42 1467.64 Q1164.15 1469.31 1159.43 1469.31 Q1153.46 1469.31 1149.92 1465.97 Q1146.41 1462.61 1146.41 1456.98 Q1146.41 1450.42 1150.78 1447.08 Q1155.19 1443.75 1163.91 1443.75 L1172.87 1443.75 L1172.87 1443.13 Q1172.87 1438.72 1169.95 1436.32 Q1167.07 1433.89 1161.83 1433.89 Q1158.49 1433.89 1155.33 1434.69 Q1152.17 1435.49 1149.26 1437.08 L1149.26 1431.18 Q1152.76 1429.83 1156.06 1429.17 Q1159.36 1428.47 1162.49 1428.47 Q1170.92 1428.47 1175.09 1432.85 Q1179.26 1437.22 1179.26 1446.11 Z" fill="#000000" fill-rule="nonzero" fill-opacity="1" /><path clip-path="url(#clip540)" d="M1208.6 1471.91 Q1205.89 1478.86 1203.32 1480.97 Q1200.75 1483.09 1196.44 1483.09 L1191.34 1483.09 L1191.34 1477.74 L1195.09 1477.74 Q1197.73 1477.74 1199.19 1476.49 Q1200.65 1475.24 1202.42 1470.59 L1203.56 1467.67 L1187.83 1429.41 L1194.6 1429.41 L1206.76 1459.83 L1218.91 1429.41 L1225.68 1429.41 L1208.6 1471.91 Z" fill="#000000" fill-rule="nonzero" fill-opacity="1" /><path clip-path="url(#clip540)" d="M1230.02 1445.97 L1248.74 1445.97 L1248.74 1451.67 L1230.02 1451.67 L1230.02 1445.97 Z" fill="#000000" fill-rule="nonzero" fill-opacity="1" /><path clip-path="url(#clip540)" d="M1261.03 1462.4 L1272.49 1462.4 L1272.49 1422.85 L1260.02 1425.35 L1260.02 1418.96 L1272.42 1416.46 L1279.43 1416.46 L1279.43 1462.4 L1290.89 1462.4 L1290.89 1468.3 L1261.03 1468.3 L1261.03 1462.4 Z" fill="#000000" fill-rule="nonzero" fill-opacity="1" /><path clip-path="url(#clip540)" d="M1320.92 1439.58 Q1316.2 1439.58 1313.42 1442.81 Q1310.68 1446.04 1310.68 1451.67 Q1310.68 1457.26 1313.42 1460.52 Q1316.2 1463.75 1320.92 1463.75 Q1325.64 1463.75 1328.39 1460.52 Q1331.17 1457.26 1331.17 1451.67 Q1331.17 1446.04 1328.39 1442.81 Q1325.64 1439.58 1320.92 1439.58 M1334.85 1417.61 L1334.85 1423.99 Q1332.21 1422.74 1329.5 1422.08 Q1326.83 1421.43 1324.19 1421.43 Q1317.24 1421.43 1313.56 1426.11 Q1309.92 1430.8 1309.4 1440.28 Q1311.44 1437.26 1314.53 1435.66 Q1317.62 1434.03 1321.34 1434.03 Q1329.15 1434.03 1333.67 1438.79 Q1338.21 1443.51 1338.21 1451.67 Q1338.21 1459.65 1333.49 1464.48 Q1328.77 1469.31 1320.92 1469.31 Q1311.93 1469.31 1307.17 1462.43 Q1302.42 1455.52 1302.42 1442.43 Q1302.42 1430.14 1308.25 1422.85 Q1314.08 1415.52 1323.91 1415.52 Q1326.55 1415.52 1329.22 1416.04 Q1331.93 1416.56 1334.85 1417.61 Z" fill="#000000" fill-rule="nonzero" fill-opacity="1" /><path clip-path="url(#clip540)" d="M1541.13 1416.46 L1548.15 1416.46 L1548.15 1464.69 Q1548.15 1474.06 1544.57 1478.3 Q1541.03 1482.54 1533.15 1482.54 L1530.47 1482.54 L1530.47 1476.63 L1532.66 1476.63 Q1537.31 1476.63 1539.22 1474.03 Q1541.13 1471.42 1541.13 1464.69 L1541.13 1416.46 Z" fill="#000000" fill-rule="nonzero" fill-opacity="1" /><path clip-path="url(#clip540)" d="M1561.17 1452.95 L1561.17 1429.41 L1567.56 1429.41 L1567.56 1452.71 Q1567.56 1458.23 1569.71 1461.01 Q1571.86 1463.75 1576.17 1463.75 Q1581.34 1463.75 1584.33 1460.45 Q1587.35 1457.15 1587.35 1451.46 L1587.35 1429.41 L1593.74 1429.41 L1593.74 1468.3 L1587.35 1468.3 L1587.35 1462.33 Q1585.02 1465.87 1581.93 1467.61 Q1578.88 1469.31 1574.81 1469.31 Q1568.11 1469.31 1564.64 1465.14 Q1561.17 1460.97 1561.17 1452.95 M1577.24 1428.47 L1577.24 1428.47 Z" fill="#000000" fill-rule="nonzero" fill-opacity="1" /><path clip-path="url(#clip540)" d="M1606.9 1414.27 L1613.28 1414.27 L1613.28 1468.3 L1606.9 1468.3 L1606.9 1414.27 Z" fill="#000000" fill-rule="nonzero" fill-opacity="1" /><path clip-path="url(#clip540)" d="M1623.42 1445.97 L1642.14 1445.97 L1642.14 1451.67 L1623.42 1451.67 L1623.42 1445.97 Z" fill="#000000" fill-rule="nonzero" fill-opacity="1" /><path clip-path="url(#clip540)" d="M1654.43 1462.4 L1665.89 1462.4 L1665.89 1422.85 L1653.42 1425.35 L1653.42 1418.96 L1665.82 1416.46 L1672.83 1416.46 L1672.83 1462.4 L1684.29 1462.4 L1684.29 1468.3 L1654.43 1468.3 L1654.43 1462.4 Z" fill="#000000" fill-rule="nonzero" fill-opacity="1" /><path clip-path="url(#clip540)" d="M1713.46 1443.68 Q1708.46 1443.68 1705.58 1446.36 Q1702.73 1449.03 1702.73 1453.72 Q1702.73 1458.4 1705.58 1461.08 Q1708.46 1463.75 1713.46 1463.75 Q1718.46 1463.75 1721.34 1461.08 Q1724.22 1458.37 1724.22 1453.72 Q1724.22 1449.03 1721.34 1446.36 Q1718.49 1443.68 1713.46 1443.68 M1706.44 1440.7 Q1701.93 1439.58 1699.4 1436.49 Q1696.9 1433.4 1696.9 1428.96 Q1696.9 1422.74 1701.3 1419.13 Q1705.75 1415.52 1713.46 1415.52 Q1721.2 1415.52 1725.61 1419.13 Q1730.02 1422.74 1730.02 1428.96 Q1730.02 1433.4 1727.49 1436.49 Q1724.99 1439.58 1720.51 1440.7 Q1725.58 1441.88 1728.39 1445.31 Q1731.24 1448.75 1731.24 1453.72 Q1731.24 1461.25 1726.62 1465.28 Q1722.03 1469.31 1713.46 1469.31 Q1704.88 1469.31 1700.26 1465.28 Q1695.68 1461.25 1695.68 1453.72 Q1695.68 1448.75 1698.53 1445.31 Q1701.37 1441.88 1706.44 1440.7 M1703.87 1429.62 Q1703.87 1433.65 1706.37 1435.9 Q1708.91 1438.16 1713.46 1438.16 Q1717.97 1438.16 1720.51 1435.9 Q1723.08 1433.65 1723.08 1429.62 Q1723.08 1425.59 1720.51 1423.33 Q1717.97 1421.08 1713.46 1421.08 Q1708.91 1421.08 1706.37 1423.33 Q1703.87 1425.59 1703.87 1429.62 Z" fill="#000000" fill-rule="nonzero" fill-opacity="1" /><path clip-path="url(#clip540)" d="M1961.18 1418.16 L1961.18 1425 Q1957.19 1423.09 1953.64 1422.15 Q1950.1 1421.22 1946.8 1421.22 Q1941.08 1421.22 1937.95 1423.44 Q1934.86 1425.66 1934.86 1429.76 Q1934.86 1433.2 1936.91 1434.97 Q1938.99 1436.7 1944.76 1437.78 L1948.99 1438.65 Q1956.84 1440.14 1960.55 1443.92 Q1964.3 1447.67 1964.3 1453.99 Q1964.3 1461.53 1959.24 1465.42 Q1954.2 1469.31 1944.44 1469.31 Q1940.76 1469.31 1936.6 1468.47 Q1932.46 1467.64 1928.02 1466.01 L1928.02 1458.79 Q1932.29 1461.18 1936.39 1462.4 Q1940.49 1463.61 1944.44 1463.61 Q1950.45 1463.61 1953.71 1461.25 Q1956.98 1458.89 1956.98 1454.52 Q1956.98 1450.7 1954.62 1448.54 Q1952.29 1446.39 1946.94 1445.31 L1942.67 1444.48 Q1934.83 1442.92 1931.32 1439.58 Q1927.81 1436.25 1927.81 1430.31 Q1927.81 1423.44 1932.64 1419.48 Q1937.5 1415.52 1946.01 1415.52 Q1949.65 1415.52 1953.44 1416.18 Q1957.22 1416.84 1961.18 1418.16 Z" fill="#000000" fill-rule="nonzero" fill-opacity="1" /><path clip-path="url(#clip540)" d="M2008.23 1447.26 L2008.23 1450.38 L1978.85 1450.38 Q1979.27 1456.98 1982.81 1460.45 Q1986.39 1463.89 1992.74 1463.89 Q1996.42 1463.89 1999.86 1462.99 Q2003.33 1462.08 2006.73 1460.28 L2006.73 1466.32 Q2003.3 1467.78 1999.69 1468.54 Q1996.08 1469.31 1992.36 1469.31 Q1983.05 1469.31 1977.6 1463.89 Q1972.19 1458.47 1972.19 1449.24 Q1972.19 1439.69 1977.33 1434.1 Q1982.5 1428.47 1991.25 1428.47 Q1999.1 1428.47 2003.64 1433.54 Q2008.23 1438.58 2008.23 1447.26 M2001.84 1445.38 Q2001.77 1440.14 1998.89 1437.02 Q1996.04 1433.89 1991.32 1433.89 Q1985.97 1433.89 1982.74 1436.91 Q1979.55 1439.93 1979.06 1445.42 L2001.84 1445.38 Z" fill="#000000" fill-rule="nonzero" fill-opacity="1" /><path clip-path="url(#clip540)" d="M2024.89 1462.47 L2024.89 1483.09 L2018.47 1483.09 L2018.47 1429.41 L2024.89 1429.41 L2024.89 1435.31 Q2026.91 1431.84 2029.96 1430.18 Q2033.05 1428.47 2037.33 1428.47 Q2044.41 1428.47 2048.82 1434.1 Q2053.26 1439.72 2053.26 1448.89 Q2053.26 1458.06 2048.82 1463.68 Q2044.41 1469.31 2037.33 1469.31 Q2033.05 1469.31 2029.96 1467.64 Q2026.91 1465.94 2024.89 1462.47 M2046.63 1448.89 Q2046.63 1441.84 2043.71 1437.85 Q2040.83 1433.82 2035.76 1433.82 Q2030.69 1433.82 2027.78 1437.85 Q2024.89 1441.84 2024.89 1448.89 Q2024.89 1455.94 2027.78 1459.97 Q2030.69 1463.96 2035.76 1463.96 Q2040.83 1463.96 2043.71 1459.97 Q2046.63 1455.94 2046.63 1448.89 Z" fill="#000000" fill-rule="nonzero" fill-opacity="1" /><path clip-path="url(#clip540)" d="M2060.62 1445.97 L2079.34 1445.97 L2079.34 1451.67 L2060.62 1451.67 L2060.62 1445.97 Z" fill="#000000" fill-rule="nonzero" fill-opacity="1" /><path clip-path="url(#clip540)" d="M2096.46 1462.4 L2120.94 1462.4 L2120.94 1468.3 L2088.02 1468.3 L2088.02 1462.4 Q2092.01 1458.27 2098.89 1451.32 Q2105.8 1444.34 2107.57 1442.33 Q2110.94 1438.54 2112.26 1435.94 Q2113.61 1433.3 2113.61 1430.77 Q2113.61 1426.63 2110.69 1424.03 Q2107.81 1421.43 2103.16 1421.43 Q2099.86 1421.43 2096.18 1422.57 Q2092.53 1423.72 2088.37 1426.04 L2088.37 1418.96 Q2092.6 1417.26 2096.28 1416.39 Q2099.96 1415.52 2103.02 1415.52 Q2111.07 1415.52 2115.87 1419.55 Q2120.66 1423.58 2120.66 1430.31 Q2120.66 1433.51 2119.44 1436.39 Q2118.26 1439.24 2115.1 1443.13 Q2114.23 1444.13 2109.58 1448.96 Q2104.93 1453.75 2096.46 1462.4 Z" fill="#000000" fill-rule="nonzero" fill-opacity="1" /><path clip-path="url(#clip540)" d="M2150.66 1421.08 Q2145.24 1421.08 2142.5 1426.43 Q2139.79 1431.74 2139.79 1442.43 Q2139.79 1453.09 2142.5 1458.44 Q2145.24 1463.75 2150.66 1463.75 Q2156.11 1463.75 2158.82 1458.44 Q2161.56 1453.09 2161.56 1442.43 Q2161.56 1431.74 2158.82 1426.43 Q2156.11 1421.08 2150.66 1421.08 M2150.66 1415.52 Q2159.37 1415.52 2163.96 1422.43 Q2168.57 1429.31 2168.57 1442.43 Q2168.57 1455.52 2163.96 1462.43 Q2159.37 1469.31 2150.66 1469.31 Q2141.94 1469.31 2137.32 1462.43 Q2132.74 1455.52 2132.74 1442.43 Q2132.74 1429.31 2137.32 1422.43 Q2141.94 1415.52 2150.66 1415.52 Z" fill="#000000" fill-rule="nonzero" fill-opacity="1" /><path clip-path="url(#clip540)" d="M1021.16 1511.88 L1079.64 1511.88 L1079.64 1519.75 L1055.1 1519.75 L1055.1 1581 L1045.7 1581 L1045.7 1519.75 L1021.16 1519.75 L1021.16 1511.88 Z" fill="#000000" fill-rule="nonzero" fill-opacity="1" /><path clip-path="url(#clip540)" d="M1085.38 1529.15 L1093.89 1529.15 L1093.89 1581 L1085.38 1581 L1085.38 1529.15 M1085.38 1508.97 L1093.89 1508.97 L1093.89 1519.75 L1085.38 1519.75 L1085.38 1508.97 Z" fill="#000000" fill-rule="nonzero" fill-opacity="1" /><path clip-path="url(#clip540)" d="M1152.09 1539.11 Q1155.28 1533.37 1159.73 1530.63 Q1164.17 1527.9 1170.19 1527.9 Q1178.29 1527.9 1182.69 1533.6 Q1187.09 1539.24 1187.09 1549.71 L1187.09 1581 L1178.52 1581 L1178.52 1549.99 Q1178.52 1542.53 1175.88 1538.92 Q1173.25 1535.31 1167.83 1535.31 Q1161.21 1535.31 1157.37 1539.71 Q1153.52 1544.11 1153.52 1551.7 L1153.52 1581 L1144.96 1581 L1144.96 1549.99 Q1144.96 1542.49 1142.32 1538.92 Q1139.68 1535.31 1134.17 1535.31 Q1127.64 1535.31 1123.8 1539.75 Q1119.96 1544.15 1119.96 1551.7 L1119.96 1581 L1111.39 1581 L1111.39 1529.15 L1119.96 1529.15 L1119.96 1537.21 Q1122.88 1532.44 1126.95 1530.17 Q1131.02 1527.9 1136.63 1527.9 Q1142.27 1527.9 1146.21 1530.77 Q1150.19 1533.64 1152.09 1539.11 Z" fill="#000000" fill-rule="nonzero" fill-opacity="1" /><path clip-path="url(#clip540)" d="M1248.43 1552.95 L1248.43 1557.12 L1209.26 1557.12 Q1209.82 1565.91 1214.54 1570.54 Q1219.31 1575.12 1227.78 1575.12 Q1232.69 1575.12 1237.27 1573.92 Q1241.9 1572.72 1246.44 1570.31 L1246.44 1578.36 Q1241.86 1580.31 1237.04 1581.33 Q1232.23 1582.35 1227.27 1582.35 Q1214.87 1582.35 1207.6 1575.12 Q1200.38 1567.9 1200.38 1555.59 Q1200.38 1542.86 1207.23 1535.4 Q1214.13 1527.9 1225.79 1527.9 Q1236.25 1527.9 1242.32 1534.66 Q1248.43 1541.37 1248.43 1552.95 M1239.91 1550.45 Q1239.82 1543.46 1235.98 1539.29 Q1232.18 1535.12 1225.88 1535.12 Q1218.76 1535.12 1214.45 1539.15 Q1210.19 1543.18 1209.54 1550.49 L1239.91 1550.45 Z" fill="#000000" fill-rule="nonzero" fill-opacity="1" /><path clip-path="url(#clip540)" d="M1313.01 1509.06 Q1306.81 1519.71 1303.8 1530.12 Q1300.79 1540.54 1300.79 1551.24 Q1300.79 1561.93 1303.8 1572.44 Q1306.86 1582.9 1313.01 1593.5 L1305.61 1593.5 Q1298.66 1582.62 1295.19 1572.12 Q1291.76 1561.61 1291.76 1551.24 Q1291.76 1540.91 1295.19 1530.45 Q1298.62 1519.99 1305.61 1509.06 L1313.01 1509.06 Z" fill="#000000" fill-rule="nonzero" fill-opacity="1" /><path clip-path="url(#clip540)" d="M1329.91 1511.88 L1343.85 1511.88 L1361.49 1558.92 L1379.22 1511.88 L1393.15 1511.88 L1393.15 1581 L1384.03 1581 L1384.03 1520.31 L1366.21 1567.72 L1356.81 1567.72 L1338.99 1520.31 L1338.99 1581 L1329.91 1581 L1329.91 1511.88 Z" fill="#000000" fill-rule="nonzero" fill-opacity="1" /><path clip-path="url(#clip540)" d="M1411.72 1511.88 L1425.65 1511.88 L1443.29 1558.92 L1461.02 1511.88 L1474.96 1511.88 L1474.96 1581 L1465.84 1581 L1465.84 1520.31 L1448.01 1567.72 L1438.61 1567.72 L1420.79 1520.31 L1420.79 1581 L1411.72 1581 L1411.72 1511.88 Z" fill="#000000" fill-rule="nonzero" fill-opacity="1" /><path clip-path="url(#clip540)" d="M1488.85 1551.24 L1513.8 1551.24 L1513.8 1558.83 L1488.85 1558.83 L1488.85 1551.24 Z" fill="#000000" fill-rule="nonzero" fill-opacity="1" /><path clip-path="url(#clip540)" d="M1506.99 1511.88 L1517.04 1511.88 L1536.21 1540.31 L1555.23 1511.88 L1565.28 1511.88 L1540.84 1548.09 L1540.84 1581 L1531.44 1581 L1531.44 1548.09 L1506.99 1511.88 Z" fill="#000000" fill-rule="nonzero" fill-opacity="1" /><path clip-path="url(#clip540)" d="M1564.91 1511.88 L1574.96 1511.88 L1594.12 1540.31 L1613.15 1511.88 L1623.2 1511.88 L1598.75 1548.09 L1598.75 1581 L1589.35 1581 L1589.35 1548.09 L1564.91 1511.88 Z" fill="#000000" fill-rule="nonzero" fill-opacity="1" /><path clip-path="url(#clip540)" d="M1630.6 1509.06 L1638.01 1509.06 Q1644.96 1519.99 1648.38 1530.45 Q1651.85 1540.91 1651.85 1551.24 Q1651.85 1561.61 1648.38 1572.12 Q1644.96 1582.62 1638.01 1593.5 L1630.6 1593.5 Q1636.76 1582.9 1639.77 1572.44 Q1642.83 1561.93 1642.83 1551.24 Q1642.83 1540.54 1639.77 1530.12 Q1636.76 1519.71 1630.6 1509.06 Z" fill="#000000" fill-rule="nonzero" fill-opacity="1" /><polyline clip-path="url(#clip542)" style="stroke:#000000; stroke-linecap:round; stroke-linejoin:round; stroke-width:2; stroke-opacity:0.1; fill:none" points="320.262,1384.3 2352.76,1384.3 "/>
<polyline clip-path="url(#clip542)" style="stroke:#000000; stroke-linecap:round; stroke-linejoin:round; stroke-width:2; stroke-opacity:0.1; fill:none" points="320.262,1050.04 2352.76,1050.04 "/>
<polyline clip-path="url(#clip542)" style="stroke:#000000; stroke-linecap:round; stroke-linejoin:round; stroke-width:2; stroke-opacity:0.1; fill:none" points="320.262,715.772 2352.76,715.772 "/>
<polyline clip-path="url(#clip542)" style="stroke:#000000; stroke-linecap:round; stroke-linejoin:round; stroke-width:2; stroke-opacity:0.1; fill:none" points="320.262,381.508 2352.76,381.508 "/>
<polyline clip-path="url(#clip542)" style="stroke:#000000; stroke-linecap:round; stroke-linejoin:round; stroke-width:2; stroke-opacity:0.1; fill:none" points="320.262,47.2441 2352.76,47.2441 "/>
<polyline clip-path="url(#clip540)" style="stroke:#000000; stroke-linecap:round; stroke-linejoin:round; stroke-width:4; stroke-opacity:1; fill:none" points="320.262,1384.3 320.262,47.2441 "/>
<polyline clip-path="url(#clip540)" style="stroke:#000000; stroke-linecap:round; stroke-linejoin:round; stroke-width:4; stroke-opacity:1; fill:none" points="320.262,1384.3 339.16,1384.3 "/>
<polyline clip-path="url(#clip540)" style="stroke:#000000; stroke-linecap:round; stroke-linejoin:round; stroke-width:4; stroke-opacity:1; fill:none" points="320.262,1050.04 339.16,1050.04 "/>
<polyline clip-path="url(#clip540)" style="stroke:#000000; stroke-linecap:round; stroke-linejoin:round; stroke-width:4; stroke-opacity:1; fill:none" points="320.262,715.772 339.16,715.772 "/>
<polyline clip-path="url(#clip540)" style="stroke:#000000; stroke-linecap:round; stroke-linejoin:round; stroke-width:4; stroke-opacity:1; fill:none" points="320.262,381.508 339.16,381.508 "/>
<polyline clip-path="url(#clip540)" style="stroke:#000000; stroke-linecap:round; stroke-linejoin:round; stroke-width:4; stroke-opacity:1; fill:none" points="320.262,47.2441 339.16,47.2441 "/>
<path clip-path="url(#clip540)" d="M144.298 1404.32 L168.777 1404.32 L168.777 1410.22 L135.86 1410.22 L135.86 1404.32 Q139.853 1400.19 146.728 1393.24 Q153.638 1386.26 155.409 1384.25 Q158.777 1380.46 160.096 1377.86 Q161.45 1375.22 161.45 1372.69 Q161.45 1368.55 158.534 1365.95 Q155.652 1363.35 150.999 1363.35 Q147.7 1363.35 144.02 1364.49 Q140.374 1365.64 136.207 1367.96 L136.207 1360.88 Q140.443 1359.18 144.124 1358.31 Q147.805 1357.44 150.86 1357.44 Q158.916 1357.44 163.707 1361.47 Q168.499 1365.5 168.499 1372.23 Q168.499 1375.43 167.284 1378.31 Q166.103 1381.16 162.943 1385.05 Q162.075 1386.05 157.423 1390.88 Q152.77 1395.67 144.298 1404.32 Z" fill="#000000" fill-rule="nonzero" fill-opacity="1" /><path clip-path="url(#clip540)" d="M198.499 1363 Q193.082 1363 190.339 1368.35 Q187.631 1373.66 187.631 1384.35 Q187.631 1395.01 190.339 1400.36 Q193.082 1405.67 198.499 1405.67 Q203.95 1405.67 206.658 1400.36 Q209.401 1395.01 209.401 1384.35 Q209.401 1373.66 206.658 1368.35 Q203.95 1363 198.499 1363 M198.499 1357.44 Q207.214 1357.44 211.797 1364.35 Q216.415 1371.23 216.415 1384.35 Q216.415 1397.44 211.797 1404.35 Q207.214 1411.23 198.499 1411.23 Q189.783 1411.23 185.165 1404.35 Q180.582 1397.44 180.582 1384.35 Q180.582 1371.23 185.165 1364.35 Q189.783 1357.44 198.499 1357.44 Z" fill="#000000" fill-rule="nonzero" fill-opacity="1" /><path clip-path="url(#clip540)" d="M228.742 1401.4 L236.068 1401.4 L236.068 1410.22 L228.742 1410.22 L228.742 1401.4 Z" fill="#000000" fill-rule="nonzero" fill-opacity="1" /><path clip-path="url(#clip540)" d="M266.346 1363 Q260.929 1363 258.186 1368.35 Q255.478 1373.66 255.478 1384.35 Q255.478 1395.01 258.186 1400.36 Q260.929 1405.67 266.346 1405.67 Q271.797 1405.67 274.505 1400.36 Q277.248 1395.01 277.248 1384.35 Q277.248 1373.66 274.505 1368.35 Q271.797 1363 266.346 1363 M266.346 1357.44 Q275.061 1357.44 279.644 1364.35 Q284.262 1371.23 284.262 1384.35 Q284.262 1397.44 279.644 1404.35 Q275.061 1411.23 266.346 1411.23 Q257.63 1411.23 253.012 1404.35 Q248.429 1397.44 248.429 1384.35 Q248.429 1371.23 253.012 1364.35 Q257.63 1357.44 266.346 1357.44 Z" fill="#000000" fill-rule="nonzero" fill-opacity="1" /><path clip-path="url(#clip540)" d="M145.791 1070.05 L170.27 1070.05 L170.27 1075.96 L137.353 1075.96 L137.353 1070.05 Q141.346 1065.92 148.221 1058.98 Q155.131 1052 156.902 1049.98 Q160.27 1046.2 161.589 1043.59 Q162.943 1040.96 162.943 1038.42 Q162.943 1034.29 160.027 1031.69 Q157.145 1029.08 152.492 1029.08 Q149.193 1029.08 145.513 1030.23 Q141.867 1031.37 137.7 1033.7 L137.7 1026.62 Q141.937 1024.91 145.617 1024.05 Q149.298 1023.18 152.353 1023.18 Q160.409 1023.18 165.2 1027.21 Q169.992 1031.23 169.992 1037.97 Q169.992 1041.16 168.777 1044.05 Q167.596 1046.89 164.436 1050.78 Q163.568 1051.79 158.916 1056.62 Q154.263 1061.41 145.791 1070.05 Z" fill="#000000" fill-rule="nonzero" fill-opacity="1" /><path clip-path="url(#clip540)" d="M191.033 1070.05 L215.513 1070.05 L215.513 1075.96 L182.596 1075.96 L182.596 1070.05 Q186.589 1065.92 193.464 1058.98 Q200.374 1052 202.145 1049.98 Q205.513 1046.2 206.832 1043.59 Q208.186 1040.96 208.186 1038.42 Q208.186 1034.29 205.27 1031.69 Q202.388 1029.08 197.735 1029.08 Q194.436 1029.08 190.756 1030.23 Q187.11 1031.37 182.943 1033.7 L182.943 1026.62 Q187.179 1024.91 190.86 1024.05 Q194.54 1023.18 197.596 1023.18 Q205.651 1023.18 210.443 1027.21 Q215.235 1031.23 215.235 1037.97 Q215.235 1041.16 214.019 1044.05 Q212.839 1046.89 209.679 1050.78 Q208.811 1051.79 204.158 1056.62 Q199.506 1061.41 191.033 1070.05 Z" fill="#000000" fill-rule="nonzero" fill-opacity="1" /><path clip-path="url(#clip540)" d="M230.235 1067.14 L237.561 1067.14 L237.561 1075.96 L230.235 1075.96 L230.235 1067.14 Z" fill="#000000" fill-rule="nonzero" fill-opacity="1" /><path clip-path="url(#clip540)" d="M252.908 1024.12 L280.443 1024.12 L280.443 1030.02 L259.332 1030.02 L259.332 1042.73 Q260.859 1042.21 262.387 1041.96 Q263.915 1041.69 265.443 1041.69 Q274.123 1041.69 279.193 1046.44 Q284.262 1051.2 284.262 1059.32 Q284.262 1067.69 279.054 1072.34 Q273.846 1076.96 264.366 1076.96 Q261.103 1076.96 257.7 1076.41 Q254.332 1075.85 250.721 1074.74 L250.721 1067.69 Q253.846 1069.39 257.179 1070.23 Q260.512 1071.06 264.228 1071.06 Q270.234 1071.06 273.741 1067.9 Q277.248 1064.74 277.248 1059.32 Q277.248 1053.91 273.741 1050.75 Q270.234 1047.59 264.228 1047.59 Q261.415 1047.59 258.603 1048.21 Q255.825 1048.84 252.908 1050.16 L252.908 1024.12 Z" fill="#000000" fill-rule="nonzero" fill-opacity="1" /><path clip-path="url(#clip540)" d="M144.298 735.789 L168.777 735.789 L168.777 741.692 L135.86 741.692 L135.86 735.789 Q139.853 731.657 146.728 724.713 Q153.638 717.734 155.409 715.72 Q158.777 711.935 160.096 709.331 Q161.45 706.692 161.45 704.157 Q161.45 700.026 158.534 697.421 Q155.652 694.817 150.999 694.817 Q147.7 694.817 144.02 695.963 Q140.374 697.109 136.207 699.435 L136.207 692.352 Q140.443 690.651 144.124 689.783 Q147.805 688.914 150.86 688.914 Q158.916 688.914 163.707 692.942 Q168.499 696.97 168.499 703.706 Q168.499 706.9 167.284 709.782 Q166.103 712.63 162.943 716.518 Q162.075 717.525 157.423 722.352 Q152.77 727.143 144.298 735.789 Z" fill="#000000" fill-rule="nonzero" fill-opacity="1" /><path clip-path="url(#clip540)" d="M183.568 689.852 L211.103 689.852 L211.103 695.755 L189.992 695.755 L189.992 708.463 Q191.52 707.942 193.047 707.699 Q194.575 707.421 196.103 707.421 Q204.783 707.421 209.853 712.178 Q214.922 716.935 214.922 725.06 Q214.922 733.428 209.714 738.081 Q204.506 742.699 195.027 742.699 Q191.763 742.699 188.36 742.143 Q184.992 741.588 181.381 740.477 L181.381 733.428 Q184.506 735.13 187.839 735.963 Q191.172 736.796 194.888 736.796 Q200.895 736.796 204.401 733.636 Q207.908 730.477 207.908 725.06 Q207.908 719.643 204.401 716.484 Q200.895 713.324 194.888 713.324 Q192.075 713.324 189.263 713.949 Q186.485 714.574 183.568 715.893 L183.568 689.852 Z" fill="#000000" fill-rule="nonzero" fill-opacity="1" /><path clip-path="url(#clip540)" d="M228.742 732.873 L236.068 732.873 L236.068 741.692 L228.742 741.692 L228.742 732.873 Z" fill="#000000" fill-rule="nonzero" fill-opacity="1" /><path clip-path="url(#clip540)" d="M266.346 694.47 Q260.929 694.47 258.186 699.817 Q255.478 705.13 255.478 715.824 Q255.478 726.484 258.186 731.831 Q260.929 737.143 266.346 737.143 Q271.797 737.143 274.505 731.831 Q277.248 726.484 277.248 715.824 Q277.248 705.13 274.505 699.817 Q271.797 694.47 266.346 694.47 M266.346 688.914 Q275.061 688.914 279.644 695.824 Q284.262 702.699 284.262 715.824 Q284.262 728.914 279.644 735.824 Q275.061 742.699 266.346 742.699 Q257.63 742.699 253.012 735.824 Q248.429 728.914 248.429 715.824 Q248.429 702.699 253.012 695.824 Q257.63 688.914 266.346 688.914 Z" fill="#000000" fill-rule="nonzero" fill-opacity="1" /><path clip-path="url(#clip540)" d="M145.791 401.525 L170.27 401.525 L170.27 407.428 L137.353 407.428 L137.353 401.525 Q141.346 397.393 148.221 390.449 Q155.131 383.47 156.902 381.456 Q160.27 377.671 161.589 375.067 Q162.943 372.428 162.943 369.894 Q162.943 365.762 160.027 363.157 Q157.145 360.553 152.492 360.553 Q149.193 360.553 145.513 361.699 Q141.867 362.845 137.7 365.171 L137.7 358.088 Q141.937 356.387 145.617 355.519 Q149.298 354.651 152.353 354.651 Q160.409 354.651 165.2 358.678 Q169.992 362.706 169.992 369.442 Q169.992 372.637 168.777 375.518 Q167.596 378.366 164.436 382.255 Q163.568 383.261 158.916 388.088 Q154.263 392.879 145.791 401.525 Z" fill="#000000" fill-rule="nonzero" fill-opacity="1" /><path clip-path="url(#clip540)" d="M183.221 355.588 L216.554 355.588 L216.554 358.574 L197.735 407.428 L190.408 407.428 L208.117 361.491 L183.221 361.491 L183.221 355.588 Z" fill="#000000" fill-rule="nonzero" fill-opacity="1" /><path clip-path="url(#clip540)" d="M230.235 398.609 L237.561 398.609 L237.561 407.428 L230.235 407.428 L230.235 398.609 Z" fill="#000000" fill-rule="nonzero" fill-opacity="1" /><path clip-path="url(#clip540)" d="M252.908 355.588 L280.443 355.588 L280.443 361.491 L259.332 361.491 L259.332 374.199 Q260.859 373.678 262.387 373.435 Q263.915 373.157 265.443 373.157 Q274.123 373.157 279.193 377.914 Q284.262 382.671 284.262 390.796 Q284.262 399.164 279.054 403.817 Q273.846 408.435 264.366 408.435 Q261.103 408.435 257.7 407.879 Q254.332 407.324 250.721 406.213 L250.721 399.164 Q253.846 400.866 257.179 401.699 Q260.512 402.532 264.228 402.532 Q270.234 402.532 273.741 399.373 Q277.248 396.213 277.248 390.796 Q277.248 385.38 273.741 382.22 Q270.234 379.06 264.228 379.06 Q261.415 379.06 258.603 379.685 Q255.825 380.31 252.908 381.63 L252.908 355.588 Z" fill="#000000" fill-rule="nonzero" fill-opacity="1" /><path clip-path="url(#clip540)" d="M159.506 45.2129 Q164.541 46.2892 167.353 49.692 Q170.2 53.0948 170.2 58.0947 Q170.2 65.7683 164.923 69.9697 Q159.645 74.171 149.923 74.171 Q146.659 74.171 143.187 73.5113 Q139.749 72.8863 136.068 71.6016 L136.068 64.8308 Q138.985 66.5322 142.457 67.4002 Q145.93 68.2683 149.714 68.2683 Q156.311 68.2683 159.749 65.6641 Q163.221 63.06 163.221 58.0947 Q163.221 53.5114 159.992 50.942 Q156.798 48.3378 151.068 48.3378 L145.027 48.3378 L145.027 42.574 L151.346 42.574 Q156.52 42.574 159.263 40.5254 Q162.006 38.4421 162.006 34.5532 Q162.006 30.5602 159.159 28.4421 Q156.346 26.2893 151.068 26.2893 Q148.186 26.2893 144.888 26.9143 Q141.589 27.5393 137.631 28.8588 L137.631 22.6088 Q141.624 21.4977 145.096 20.9422 Q148.603 20.3866 151.693 20.3866 Q159.679 20.3866 164.332 24.0324 Q168.985 27.6435 168.985 33.824 Q168.985 38.1296 166.52 41.1157 Q164.054 44.067 159.506 45.2129 Z" fill="#000000" fill-rule="nonzero" fill-opacity="1" /><path clip-path="url(#clip540)" d="M198.499 25.9421 Q193.082 25.9421 190.339 31.2893 Q187.631 36.6018 187.631 47.2962 Q187.631 57.9558 190.339 63.303 Q193.082 68.6155 198.499 68.6155 Q203.95 68.6155 206.658 63.303 Q209.401 57.9558 209.401 47.2962 Q209.401 36.6018 206.658 31.2893 Q203.95 25.9421 198.499 25.9421 M198.499 20.3866 Q207.214 20.3866 211.797 27.2963 Q216.415 34.1712 216.415 47.2962 Q216.415 60.3864 211.797 67.2961 Q207.214 74.171 198.499 74.171 Q189.783 74.171 185.165 67.2961 Q180.582 60.3864 180.582 47.2962 Q180.582 34.1712 185.165 27.2963 Q189.783 20.3866 198.499 20.3866 Z" fill="#000000" fill-rule="nonzero" fill-opacity="1" /><path clip-path="url(#clip540)" d="M228.742 64.3447 L236.068 64.3447 L236.068 73.1641 L228.742 73.1641 L228.742 64.3447 Z" fill="#000000" fill-rule="nonzero" fill-opacity="1" /><path clip-path="url(#clip540)" d="M266.346 25.9421 Q260.929 25.9421 258.186 31.2893 Q255.478 36.6018 255.478 47.2962 Q255.478 57.9558 258.186 63.303 Q260.929 68.6155 266.346 68.6155 Q271.797 68.6155 274.505 63.303 Q277.248 57.9558 277.248 47.2962 Q277.248 36.6018 274.505 31.2893 Q271.797 25.9421 266.346 25.9421 M266.346 20.3866 Q275.061 20.3866 279.644 27.2963 Q284.262 34.1712 284.262 47.2962 Q284.262 60.3864 279.644 67.2961 Q275.061 74.171 266.346 74.171 Q257.63 74.171 253.012 67.2961 Q248.429 60.3864 248.429 47.2962 Q248.429 34.1712 253.012 27.2963 Q257.63 20.3866 266.346 20.3866 Z" fill="#000000" fill-rule="nonzero" fill-opacity="1" /><path clip-path="url(#clip540)" d="M19.2171 1166.67 L53.615 1179.36 L53.615 1153.94 L19.2171 1166.67 M10.0042 1171.95 L10.0042 1161.35 L79.1242 1135.01 L79.1242 1144.73 L61.3928 1151.02 L61.3928 1182.18 L79.1242 1188.48 L79.1242 1198.34 L10.0042 1171.95 Z" fill="#000000" fill-rule="nonzero" fill-opacity="1" /><path clip-path="url(#clip540)" d="M27.2726 1125.28 L27.2726 1116.77 L79.1242 1116.77 L79.1242 1125.28 L27.2726 1125.28 M7.08751 1125.28 L7.08751 1116.77 L17.8745 1116.77 L17.8745 1125.28 L7.08751 1125.28 Z" fill="#000000" fill-rule="nonzero" fill-opacity="1" /><path clip-path="url(#clip540)" d="M35.2355 1068.9 Q34.4022 1070.33 34.0318 1072.04 Q33.6151 1073.71 33.6151 1075.75 Q33.6151 1082.97 38.3373 1086.86 Q43.0132 1090.7 51.8095 1090.7 L79.1242 1090.7 L79.1242 1099.27 L27.2726 1099.27 L27.2726 1090.7 L35.3281 1090.7 Q30.6059 1088.02 28.3374 1083.71 Q26.0226 1079.4 26.0226 1073.25 Q26.0226 1072.37 26.1615 1071.3 Q26.2541 1070.24 26.4856 1068.94 L35.2355 1068.9 Z" fill="#000000" fill-rule="nonzero" fill-opacity="1" /><path clip-path="url(#clip540)" d="M12.5504 1021.4 L27.2726 1021.4 L27.2726 1003.85 L33.8929 1003.85 L33.8929 1021.4 L62.0409 1021.4 Q68.3835 1021.4 70.189 1019.68 Q71.9946 1017.92 71.9946 1012.6 L71.9946 1003.85 L79.1242 1003.85 L79.1242 1012.6 Q79.1242 1022.46 75.4668 1026.21 Q71.7631 1029.96 62.0409 1029.96 L33.8929 1029.96 L33.8929 1036.21 L27.2726 1036.21 L27.2726 1029.96 L12.5504 1029.96 L12.5504 1021.4 Z" fill="#000000" fill-rule="nonzero" fill-opacity="1" /><path clip-path="url(#clip540)" d="M51.0688 948.294 L55.2354 948.294 L55.2354 987.46 Q64.0316 986.905 68.6613 982.183 Q73.2446 977.414 73.2446 968.942 Q73.2446 964.035 72.0409 959.451 Q70.8372 954.822 68.4298 950.285 L76.4853 950.285 Q78.4297 954.868 79.4482 959.683 Q80.4667 964.497 80.4667 969.451 Q80.4667 981.859 73.2446 989.127 Q66.0224 996.349 53.7076 996.349 Q40.9762 996.349 33.5225 989.497 Q26.0226 982.599 26.0226 970.933 Q26.0226 960.47 32.7818 954.405 Q39.4947 948.294 51.0688 948.294 M48.5688 956.812 Q41.5781 956.905 37.4114 960.748 Q33.2448 964.544 33.2448 970.84 Q33.2448 977.97 37.2725 982.275 Q41.3003 986.534 48.6151 987.183 L48.5688 956.812 Z" fill="#000000" fill-rule="nonzero" fill-opacity="1" /><path clip-path="url(#clip540)" d="M37.2262 893.942 Q31.4855 890.748 28.7541 886.303 Q26.0226 881.859 26.0226 875.841 Q26.0226 867.739 31.717 863.341 Q37.3651 858.942 47.828 858.942 L79.1242 858.942 L79.1242 867.507 L48.1058 867.507 Q40.6521 867.507 37.041 870.146 Q33.43 872.785 33.43 878.202 Q33.43 884.822 37.8281 888.665 Q42.2262 892.507 49.8188 892.507 L79.1242 892.507 L79.1242 901.072 L48.1058 901.072 Q40.6058 901.072 37.041 903.711 Q33.43 906.35 33.43 911.859 Q33.43 918.387 37.8744 922.229 Q42.2725 926.072 49.8188 926.072 L79.1242 926.072 L79.1242 934.637 L27.2726 934.637 L27.2726 926.072 L35.3281 926.072 Q30.5596 923.155 28.2911 919.081 Q26.0226 915.007 26.0226 909.405 Q26.0226 903.757 28.8929 899.822 Q31.7633 895.84 37.2262 893.942 Z" fill="#000000" fill-rule="nonzero" fill-opacity="1" /><path clip-path="url(#clip540)" d="M71.3464 833.711 L98.8463 833.711 L98.8463 842.276 L27.2726 842.276 L27.2726 833.711 L35.1429 833.711 Q30.5133 831.026 28.2911 826.952 Q26.0226 822.832 26.0226 817.137 Q26.0226 807.693 33.5225 801.813 Q41.0225 795.887 53.2447 795.887 Q65.4668 795.887 72.9668 801.813 Q80.4667 807.693 80.4667 817.137 Q80.4667 822.832 78.2445 826.952 Q75.976 831.026 71.3464 833.711 M53.2447 804.73 Q43.8466 804.73 38.5225 808.619 Q33.1522 812.461 33.1522 819.22 Q33.1522 825.98 38.5225 829.869 Q43.8466 833.711 53.2447 833.711 Q62.6428 833.711 68.0131 829.869 Q73.3372 825.98 73.3372 819.22 Q73.3372 812.461 68.0131 808.619 Q62.6428 804.73 53.2447 804.73 Z" fill="#000000" fill-rule="nonzero" fill-opacity="1" /><path clip-path="url(#clip540)" d="M51.0688 737.415 L55.2354 737.415 L55.2354 776.582 Q64.0316 776.026 68.6613 771.304 Q73.2446 766.536 73.2446 758.063 Q73.2446 753.156 72.0409 748.573 Q70.8372 743.943 68.4298 739.406 L76.4853 739.406 Q78.4297 743.989 79.4482 748.804 Q80.4667 753.619 80.4667 758.573 Q80.4667 770.98 73.2446 778.248 Q66.0224 785.471 53.7076 785.471 Q40.9762 785.471 33.5225 778.619 Q26.0226 771.721 26.0226 760.054 Q26.0226 749.591 32.7818 743.526 Q39.4947 737.415 51.0688 737.415 M48.5688 745.934 Q41.5781 746.026 37.4114 749.869 Q33.2448 753.665 33.2448 759.962 Q33.2448 767.091 37.2725 771.397 Q41.3003 775.656 48.6151 776.304 L48.5688 745.934 Z" fill="#000000" fill-rule="nonzero" fill-opacity="1" /><path clip-path="url(#clip540)" d="M35.2355 693.388 Q34.4022 694.823 34.0318 696.536 Q33.6151 698.203 33.6151 700.24 Q33.6151 707.462 38.3373 711.351 Q43.0132 715.193 51.8095 715.193 L79.1242 715.193 L79.1242 723.758 L27.2726 723.758 L27.2726 715.193 L35.3281 715.193 Q30.6059 712.508 28.3374 708.203 Q26.0226 703.897 26.0226 697.74 Q26.0226 696.86 26.1615 695.795 Q26.2541 694.73 26.4856 693.434 L35.2355 693.388 Z" fill="#000000" fill-rule="nonzero" fill-opacity="1" /><path clip-path="url(#clip540)" d="M53.0595 660.888 Q53.0595 671.212 55.4206 675.193 Q57.7817 679.175 63.4761 679.175 Q68.0131 679.175 70.6983 676.212 Q73.3372 673.203 73.3372 668.064 Q73.3372 660.981 68.3372 656.721 Q63.2909 652.416 54.9576 652.416 L53.0595 652.416 L53.0595 660.888 M49.541 643.897 L79.1242 643.897 L79.1242 652.416 L71.2538 652.416 Q75.976 655.332 78.2445 659.684 Q80.4667 664.036 80.4667 670.332 Q80.4667 678.295 76.0223 683.018 Q71.5316 687.693 64.0316 687.693 Q55.2817 687.693 50.8373 681.86 Q46.3929 675.981 46.3929 664.36 L46.3929 652.416 L45.5595 652.416 Q39.6799 652.416 36.4855 656.305 Q33.2448 660.147 33.2448 667.138 Q33.2448 671.582 34.3096 675.795 Q35.3744 680.008 37.504 683.897 L29.6337 683.897 Q27.8281 679.221 26.9485 674.823 Q26.0226 670.425 26.0226 666.258 Q26.0226 655.008 31.8559 649.453 Q37.6892 643.897 49.541 643.897 Z" fill="#000000" fill-rule="nonzero" fill-opacity="1" /><path clip-path="url(#clip540)" d="M12.5504 617.925 L27.2726 617.925 L27.2726 600.379 L33.8929 600.379 L33.8929 617.925 L62.0409 617.925 Q68.3835 617.925 70.189 616.212 Q71.9946 614.453 71.9946 609.129 L71.9946 600.379 L79.1242 600.379 L79.1242 609.129 Q79.1242 618.99 75.4668 622.74 Q71.7631 626.49 62.0409 626.49 L33.8929 626.49 L33.8929 632.74 L27.2726 632.74 L27.2726 626.49 L12.5504 626.49 L12.5504 617.925 Z" fill="#000000" fill-rule="nonzero" fill-opacity="1" /><path clip-path="url(#clip540)" d="M58.6613 590.055 L27.2726 590.055 L27.2726 581.537 L58.3372 581.537 Q65.6983 581.537 69.402 578.666 Q73.0594 575.796 73.0594 570.055 Q73.0594 563.157 68.6613 559.176 Q64.2631 555.148 56.6706 555.148 L27.2726 555.148 L27.2726 546.629 L79.1242 546.629 L79.1242 555.148 L71.1612 555.148 Q75.8834 558.25 78.1982 562.37 Q80.4667 566.444 80.4667 571.861 Q80.4667 580.796 74.9112 585.425 Q69.3557 590.055 58.6613 590.055 M26.0226 568.62 L26.0226 568.62 Z" fill="#000000" fill-rule="nonzero" fill-opacity="1" /><path clip-path="url(#clip540)" d="M35.2355 499.037 Q34.4022 500.472 34.0318 502.185 Q33.6151 503.852 33.6151 505.889 Q33.6151 513.111 38.3373 517 Q43.0132 520.842 51.8095 520.842 L79.1242 520.842 L79.1242 529.407 L27.2726 529.407 L27.2726 520.842 L35.3281 520.842 Q30.6059 518.157 28.3374 513.852 Q26.0226 509.546 26.0226 503.389 Q26.0226 502.509 26.1615 501.444 Q26.2541 500.38 26.4856 499.083 L35.2355 499.037 Z" fill="#000000" fill-rule="nonzero" fill-opacity="1" /><path clip-path="url(#clip540)" d="M51.0688 447.834 L55.2354 447.834 L55.2354 487 Q64.0316 486.444 68.6613 481.722 Q73.2446 476.954 73.2446 468.482 Q73.2446 463.574 72.0409 458.991 Q70.8372 454.361 68.4298 449.824 L76.4853 449.824 Q78.4297 454.408 79.4482 459.222 Q80.4667 464.037 80.4667 468.991 Q80.4667 481.398 73.2446 488.667 Q66.0224 495.889 53.7076 495.889 Q40.9762 495.889 33.5225 489.037 Q26.0226 482.139 26.0226 470.472 Q26.0226 460.009 32.7818 453.945 Q39.4947 447.834 51.0688 447.834 M48.5688 456.352 Q41.5781 456.445 37.4114 460.287 Q33.2448 464.084 33.2448 470.38 Q33.2448 477.509 37.2725 481.815 Q41.3003 486.074 48.6151 486.722 L48.5688 456.352 Z" fill="#000000" fill-rule="nonzero" fill-opacity="1" /><path clip-path="url(#clip540)" d="M7.1801 383.251 Q17.8282 389.454 28.2448 392.464 Q38.6614 395.473 49.3558 395.473 Q60.0502 395.473 70.5594 392.464 Q81.0223 389.408 91.6241 383.251 L91.6241 390.658 Q80.7445 397.602 70.2353 401.075 Q59.7261 404.5 49.3558 404.5 Q39.0318 404.5 28.5689 401.075 Q18.106 397.649 7.1801 390.658 L7.1801 383.251 Z" fill="#000000" fill-rule="nonzero" fill-opacity="1" /><path clip-path="url(#clip540)" d="M14.7264 351.954 Q14.7264 355.658 17.3189 358.204 Q19.8652 360.751 23.5689 360.751 Q27.2263 360.751 29.7726 358.204 Q32.2726 355.658 32.2726 351.954 Q32.2726 348.251 29.7726 345.705 Q27.2263 343.158 23.5689 343.158 Q19.9115 343.158 17.3189 345.751 Q14.7264 348.297 14.7264 351.954 M8.75416 351.954 Q8.75416 348.992 9.91157 346.26 Q11.0227 343.529 13.1523 341.538 Q15.2356 339.408 17.8745 338.343 Q20.5134 337.279 23.5689 337.279 Q29.68 337.279 33.9392 341.584 Q38.1522 345.843 38.1522 352.047 Q38.1522 358.297 33.9855 362.464 Q29.8189 366.63 23.5689 366.63 Q17.3652 366.63 13.0597 362.371 Q8.75416 358.112 8.75416 351.954 Z" fill="#000000" fill-rule="nonzero" fill-opacity="1" /><path clip-path="url(#clip540)" d="M15.3282 267.186 L25.1893 267.186 Q20.7911 271.909 18.6152 277.279 Q16.4393 282.603 16.4393 288.621 Q16.4393 300.473 23.7078 306.77 Q30.93 313.066 44.6336 313.066 Q58.2909 313.066 65.5594 306.77 Q72.7816 300.473 72.7816 288.621 Q72.7816 282.603 70.6057 277.279 Q68.4298 271.909 64.0316 267.186 L73.8001 267.186 Q77.1334 272.094 78.8001 277.603 Q80.4667 283.066 80.4667 289.177 Q80.4667 304.871 70.8835 313.899 Q61.2539 322.927 44.6336 322.927 Q27.967 322.927 18.3837 313.899 Q8.75416 304.871 8.75416 289.177 Q8.75416 282.973 10.4208 277.51 Q12.0412 272.001 15.3282 267.186 Z" fill="#000000" fill-rule="nonzero" fill-opacity="1" /><path clip-path="url(#clip540)" d="M7.1801 254.455 L7.1801 247.048 Q18.106 240.103 28.5689 236.677 Q39.0318 233.205 49.3558 233.205 Q59.7261 233.205 70.2353 236.677 Q80.7445 240.103 91.6241 247.048 L91.6241 254.455 Q81.0223 248.298 70.5594 245.288 Q60.0502 242.233 49.3558 242.233 Q38.6614 242.233 28.2448 245.288 Q17.8282 248.298 7.1801 254.455 Z" fill="#000000" fill-rule="nonzero" fill-opacity="1" /><polyline clip-path="url(#clip542)" style="stroke:#000000; stroke-linecap:round; stroke-linejoin:round; stroke-width:8; stroke-opacity:1; fill:none" points="377.786,609.622 381.99,604.947 386.195,584.731 390.4,556.269 394.605,584.199 398.81,547.002 403.015,528.73 407.22,472.64 411.425,409.869 415.63,426.439 419.835,428.975 424.04,395.478 428.245,437.812 432.45,446.182 436.655,431.239 440.859,445.032 445.064,475.807 449.269,530.366 453.474,566.162 457.679,593.311 461.884,693.14 466.089,798.003 470.294,953.033 474.499,848.454 478.704,915.514 482.909,862.609 487.114,1035.63 491.319,882.983 495.524,891.24 499.728,856.553 503.933,827.067 508.138,779.994 512.343,817.948 516.548,753.713 520.753,711.913 524.958,652.176 529.163,676.186 533.368,675.628 537.573,661.675 541.778,636.906 545.983,569.869 550.188,569.597 554.393,587.673 558.597,596.292 562.802,546.995 567.007,548.57 570.161,554.469 574.366,462.105 578.571,462.432 582.776,436.574 586.981,509.407 591.186,441.355 595.391,412.081 599.595,361.932 603.8,352.001 608.005,301.88 612.21,425.085 616.415,350.497 620.62,435.257 624.825,434.946 629.03,462.058 633.235,424.781 637.44,463.403 641.645,560.821 645.85,666.123 650.055,760.667 654.26,836.098 658.464,883.319 662.669,826.789 666.874,1014.81 671.079,935.471 675.284,1126.52 679.489,975.468 683.694,974.687 687.899,1052.25 692.104,923.043 696.309,938.574 700.514,937.589 704.719,876.157 708.924,970.766 713.129,834.079 717.333,753.718 721.538,720.539 725.743,700.516 729.948,688.789 734.153,654.089 738.358,661.978 742.563,639.137 746.768,584.969 750.973,646.747 755.178,605.333 759.383,585.438 762.011,609.017 766.216,571.108 770.421,527.304 774.626,518.405 778.831,520.495 783.035,451.808 787.24,467.665 791.445,407.506 795.65,417.267 799.855,432.925 804.06,431.348 808.265,392.022 812.47,380.743 816.675,382.007 820.88,453.238 825.085,440.476 829.29,427.671 833.495,442.575 837.699,541.612 841.904,652.825 846.109,762.297 850.314,788.011 854.519,858.181 858.724,955.696 862.929,935.196 867.134,1063.26 871.339,1100.87 875.544,1027.85 879.749,973.394 883.954,955.083 888.159,931.35 892.364,842.704 896.568,862.163 900.773,808.712 904.978,756.596 909.183,721.442 913.388,731.945 917.593,676.354 921.798,712.704 926.003,672.329 930.208,628.228 934.413,618.486 938.618,633.079 942.823,612.699 947.028,624.192 951.233,673.169 953.861,646.191 958.066,583.928 962.27,508.592 966.475,540.4 970.68,483.138 974.885,472.416 979.09,505.506 983.295,445.92 987.5,413.909 991.705,434.588 995.91,420.578 1000.11,469.059 1004.32,368.688 1008.52,421.848 1012.73,381.212 1016.93,421.836 1021.14,430.256 1025.34,462.6 1029.55,616.184 1033.75,790.82 1037.96,885.268 1042.16,905.171 1046.37,858.946 1050.57,871.168 1054.78,927.35 1058.98,1031.82 1063.19,983.332 1067.39,1042.84 1071.6,963.926 1075.8,949.893 1080.01,936.836 1084.21,866.903 1088.42,864.418 1092.62,769.121 1096.83,769.685 1101.03,722.943 1105.24,738.964 1109.44,677.104 1113.65,651.035 1117.85,641.645 1122.06,589.735 1126.26,577.536 1130.47,605.6 1134.67,559.335 1138.88,580.453 1143.08,535.155 1145.71,490.811 1149.92,445.686 1154.12,506.625 1158.33,510.327 1162.53,431.745 1166.74,413.385 1170.94,380.936 1175.14,354.585 1179.35,336.753 1183.55,357.186 1187.76,304.809 1191.96,389.895 1196.17,329.565 1200.37,313.009 1204.58,390.503 1208.78,402.707 1212.99,407.673 1217.19,500.555 1221.4,526.33 1225.6,582.887 1229.81,782.692 1234.01,719.494 1238.22,733.153 1242.42,783.256 1246.63,807.47 1250.83,837.33 1255.04,861.204 1259.24,807.626 1263.45,840.94 1267.65,852.118 1271.86,745.155 1276.06,788.62 1280.27,768.48 1284.47,699.464 1288.68,682.301 1292.88,652.696 1297.09,625.531 1301.29,595.543 1305.5,583.104 1309.7,558.828 1313.91,520.815 1318.11,530.134 1322.32,503.015 1326.52,533.348 1330.73,506.171 1334.93,533.511 1338.09,516.856 1342.29,520.015 1346.5,485.885 1350.7,469.519 1354.91,452.809 1359.11,446.888 1363.32,397.313 1367.52,406.134 1371.73,338.625 1375.93,369.842 1380.14,346.677 1384.34,300.213 1388.55,397.008 1392.75,363.477 1396.95,388.865 1401.16,462.003 1405.36,510.203 1409.57,490.517 1413.77,490.493 1417.98,588.583 1422.18,739.652 1426.39,732.072 1430.59,865.592 1434.8,999.507 1439,908.261 1443.21,1051.19 1447.41,956.96 1451.62,1004.17 1455.82,911.855 1460.03,893.813 1464.23,870.749 1468.44,850.577 1472.64,834.419 1476.85,769.53 1481.05,714.292 1485.26,695.422 1489.46,636.599 1493.67,613.863 1497.87,594.938 1502.08,586.493 1506.28,598.83 1510.49,586.237 1514.69,621.379 1518.9,615.571 1523.1,597.586 1527.31,576.419 1529.94,596.467 1534.14,600.301 1538.35,564.647 1542.55,529.701 1546.76,436.121 1550.96,432.033 1555.17,421.937 1559.37,387.575 1563.58,356.623 1567.78,336.685 1571.98,417.96 1576.19,389.452 1580.39,392.647 1584.6,377.549 1588.8,373.361 1593.01,408.387 1597.21,449.436 1601.42,503.346 1605.62,522.558 1609.83,573.566 1614.03,607.125 1618.24,712.674 1622.44,735.101 1626.65,809.086 1630.85,808.839 1635.06,943.891 1639.26,833.897 1643.47,861.48 1647.67,824.79 1651.88,860.405 1656.08,769.681 1660.29,726.049 1664.49,705.589 1668.7,726.316 1672.9,649.086 1677.11,642.822 1681.31,589.97 1685.52,553.291 1689.72,581.133 1693.93,508.826 1698.13,537.157 1702.34,556.265 1706.54,554.839 1710.75,558.635 1714.95,579.011 1719.16,528.611 1721.79,523.399 1725.99,470.958 1730.2,477.557 1734.4,441.582 1738.61,425.082 1742.81,371.895 1747.02,351.258 1751.22,403.979 1755.42,335.916 1759.63,338.09 1763.83,319.895 1768.04,290.206 1772.24,360.661 1776.45,344.218 1780.65,363.406 1784.86,378.88 1789.06,363.234 1793.27,442.567 1797.47,581.935 1801.68,761.687 1805.88,644.149 1810.09,747.238 1814.29,756.071 1818.5,943.109 1822.7,776.224 1826.91,840.847 1831.11,889.036 1835.32,871.757 1839.52,803.623 1843.73,810.846 1847.93,762.504 1852.14,707.461 1856.34,702.996 1860.55,637.243 1864.75,635.766 1868.96,604.343 1873.16,551.677 1877.37,537.839 1881.57,529.246 1885.78,516.641 1889.98,499.86 1894.19,519.84 1898.39,534.474 1902.6,486.585 1906.8,459.722 1911.01,410.591 1913.64,412.411 1917.84,410.863 1922.05,403.21 1926.25,385.236 1930.46,385.938 1934.66,375.852 1938.86,313.877 1943.07,285.245 1947.27,304.67 1951.48,344.062 1955.68,300.963 1959.89,272.699 1964.09,283.07 1968.3,348.001 1972.5,363.5 1976.71,328.082 1980.91,373.991 1985.12,380.878 1989.32,470.987 1993.53,550.42 1997.73,778.256 2001.94,892.394 2006.14,972.137 2010.35,888.719 2014.55,867.112 2018.76,816.65 2022.96,979.889 2027.17,844.601 2031.37,878.032 2035.58,999.575 2039.78,872 2043.99,882.906 2048.19,864.168 2052.4,892.595 2056.6,777.115 2060.81,723.26 2065.01,705.288 2069.22,654.251 2073.42,595.781 2077.63,578.367 2081.83,584.112 2086.04,606.196 2090.24,581.616 2094.45,581.777 2098.65,563.101 2102.86,535.57 2106.01,518.169 2110.22,524.444 2114.42,512.241 2118.63,501.824 2122.83,424.901 2127.04,402.879 2131.24,458.405 2135.45,382.831 2139.65,398.893 2143.86,436.897 2148.06,461.754 2152.26,359.947 2156.47,357.312 2160.67,406.406 2164.88,366.964 2169.08,396.704 2173.29,379.357 2177.49,417.995 2181.7,461.907 2185.9,529.952 2190.11,528.622 2194.31,577.205 2198.52,615.063 2202.72,753.383 2206.93,783.348 2211.13,800.68 2215.34,768.264 2219.54,761.585 2223.75,743.894 2227.95,803.463 2232.16,806.167 2236.36,652.345 2240.57,686.622 2244.77,656.298 2248.98,639.225 2253.18,582.148 2257.39,617.512 2261.59,601.491 2265.8,543.066 2270,546.326 2274.21,496.301 2278.41,542.19 2282.62,518.181 2286.82,533.923 2291.03,517.599 2295.23,507.899 "/>
</svg>
