<?xml version="1.0" encoding="utf-8"?>
<svg xmlns="http://www.w3.org/2000/svg" xmlns:xlink="http://www.w3.org/1999/xlink" width="672" height="480" viewBox="0 0 2688 1920">
<defs>
  <clipPath id="clip990">
    <rect x="0" y="0" width="2688" height="1920"/>
  </clipPath>
</defs>
<path clip-path="url(#clip990)" d="M0 1920 L2688 1920 L2688 0 L0 0  Z" fill="#ffffff" fill-rule="evenodd" fill-opacity="1"/>
<defs>
  <clipPath id="clip991">
    <rect x="537" y="0" width="1883" height="1883"/>
  </clipPath>
</defs>
<path clip-path="url(#clip990)" d="M257.628 1692.46 L2640.76 1692.46 L2640.76 47.2441 L257.628 47.2441  Z" fill="#ffffff" fill-rule="evenodd" fill-opacity="1"/>
<defs>
  <clipPath id="clip992">
    <rect x="257" y="47" width="2384" height="1646"/>
  </clipPath>
</defs>
<polyline clip-path="url(#clip992)" style="stroke:#000000; stroke-linecap:round; stroke-linejoin:round; stroke-width:2; stroke-opacity:0.1; fill:none" points="325.075,1692.46 325.075,47.2441 "/>
<polyline clip-path="url(#clip992)" style="stroke:#000000; stroke-linecap:round; stroke-linejoin:round; stroke-width:2; stroke-opacity:0.1; fill:none" points="815.028,1692.46 815.028,47.2441 "/>
<polyline clip-path="url(#clip992)" style="stroke:#000000; stroke-linecap:round; stroke-linejoin:round; stroke-width:2; stroke-opacity:0.1; fill:none" points="1304.36,1692.46 1304.36,47.2441 "/>
<polyline clip-path="url(#clip992)" style="stroke:#000000; stroke-linecap:round; stroke-linejoin:round; stroke-width:2; stroke-opacity:0.1; fill:none" points="1794.32,1692.46 1794.32,47.2441 "/>
<polyline clip-path="url(#clip992)" style="stroke:#000000; stroke-linecap:round; stroke-linejoin:round; stroke-width:2; stroke-opacity:0.1; fill:none" points="2283.65,1692.46 2283.65,47.2441 "/>
<polyline clip-path="url(#clip990)" style="stroke:#000000; stroke-linecap:round; stroke-linejoin:round; stroke-width:4; stroke-opacity:1; fill:none" points="257.628,1692.46 2640.76,1692.46 "/>
<polyline clip-path="url(#clip990)" style="stroke:#000000; stroke-linecap:round; stroke-linejoin:round; stroke-width:4; stroke-opacity:1; fill:none" points="325.075,1692.46 325.075,1673.56 "/>
<polyline clip-path="url(#clip990)" style="stroke:#000000; stroke-linecap:round; stroke-linejoin:round; stroke-width:4; stroke-opacity:1; fill:none" points="815.028,1692.46 815.028,1673.56 "/>
<polyline clip-path="url(#clip990)" style="stroke:#000000; stroke-linecap:round; stroke-linejoin:round; stroke-width:4; stroke-opacity:1; fill:none" points="1304.36,1692.46 1304.36,1673.56 "/>
<polyline clip-path="url(#clip990)" style="stroke:#000000; stroke-linecap:round; stroke-linejoin:round; stroke-width:4; stroke-opacity:1; fill:none" points="1794.32,1692.46 1794.32,1673.56 "/>
<polyline clip-path="url(#clip990)" style="stroke:#000000; stroke-linecap:round; stroke-linejoin:round; stroke-width:4; stroke-opacity:1; fill:none" points="2283.65,1692.46 2283.65,1673.56 "/>
<path clip-path="url(#clip990)" d="M224.572 1726.92 L231.586 1726.92 L231.586 1775.15 Q231.586 1784.53 228.01 1788.76 Q224.468 1793 216.586 1793 L213.913 1793 L213.913 1787.1 L216.1 1787.1 Q220.753 1787.1 222.663 1784.49 Q224.572 1781.89 224.572 1775.15 L224.572 1726.92 Z" fill="#000000" fill-rule="nonzero" fill-opacity="1" /><path clip-path="url(#clip990)" d="M262.94 1759.22 Q255.197 1759.22 252.211 1760.99 Q249.225 1762.76 249.225 1767.03 Q249.225 1770.43 251.447 1772.44 Q253.704 1774.42 257.558 1774.42 Q262.871 1774.42 266.065 1770.67 Q269.294 1766.89 269.294 1760.64 L269.294 1759.22 L262.94 1759.22 M275.683 1756.58 L275.683 1778.76 L269.294 1778.76 L269.294 1772.86 Q267.107 1776.4 263.843 1778.1 Q260.579 1779.77 255.857 1779.77 Q249.885 1779.77 246.343 1776.44 Q242.836 1773.07 242.836 1767.44 Q242.836 1760.88 247.211 1757.55 Q251.621 1754.22 260.336 1754.22 L269.294 1754.22 L269.294 1753.59 Q269.294 1749.18 266.378 1746.78 Q263.496 1744.35 258.253 1744.35 Q254.919 1744.35 251.76 1745.15 Q248.6 1745.95 245.683 1747.55 L245.683 1741.65 Q249.19 1740.29 252.489 1739.63 Q255.787 1738.94 258.912 1738.94 Q267.35 1738.94 271.517 1743.31 Q275.683 1747.69 275.683 1756.58 Z" fill="#000000" fill-rule="nonzero" fill-opacity="1" /><path clip-path="url(#clip990)" d="M321.169 1755.29 L321.169 1778.76 L314.78 1778.76 L314.78 1755.5 Q314.78 1749.98 312.627 1747.24 Q310.475 1744.49 306.169 1744.49 Q300.996 1744.49 298.009 1747.79 Q295.023 1751.09 295.023 1756.78 L295.023 1778.76 L288.6 1778.76 L288.6 1739.88 L295.023 1739.88 L295.023 1745.92 Q297.315 1742.41 300.405 1740.67 Q303.53 1738.94 307.593 1738.94 Q314.294 1738.94 317.732 1743.1 Q321.169 1747.24 321.169 1755.29 Z" fill="#000000" fill-rule="nonzero" fill-opacity="1" /><path clip-path="url(#clip990)" d="M330.683 1756.44 L349.398 1756.44 L349.398 1762.13 L330.683 1762.13 L330.683 1756.44 Z" fill="#000000" fill-rule="nonzero" fill-opacity="1" /><path clip-path="url(#clip990)" d="M361.69 1772.86 L373.148 1772.86 L373.148 1733.31 L360.683 1735.81 L360.683 1729.42 L373.078 1726.92 L380.092 1726.92 L380.092 1772.86 L391.551 1772.86 L391.551 1778.76 L361.69 1778.76 L361.69 1772.86 Z" fill="#000000" fill-rule="nonzero" fill-opacity="1" /><path clip-path="url(#clip990)" d="M411.759 1772.86 L436.238 1772.86 L436.238 1778.76 L403.321 1778.76 L403.321 1772.86 Q407.314 1768.73 414.189 1761.78 Q421.099 1754.81 422.87 1752.79 Q426.238 1749.01 427.557 1746.4 Q428.912 1743.76 428.912 1741.23 Q428.912 1737.1 425.995 1734.49 Q423.113 1731.89 418.46 1731.89 Q415.162 1731.89 411.481 1733.03 Q407.835 1734.18 403.669 1736.51 L403.669 1729.42 Q407.905 1727.72 411.585 1726.85 Q415.266 1725.99 418.321 1725.99 Q426.377 1725.99 431.168 1730.01 Q435.96 1734.04 435.96 1740.78 Q435.96 1743.97 434.745 1746.85 Q433.564 1749.7 430.405 1753.59 Q429.537 1754.6 424.884 1759.42 Q420.231 1764.22 411.759 1772.86 Z" fill="#000000" fill-rule="nonzero" fill-opacity="1" /><path clip-path="url(#clip990)" d="M697.632 1726.92 L708.084 1726.92 L721.313 1762.2 L734.611 1726.92 L745.063 1726.92 L745.063 1778.76 L738.222 1778.76 L738.222 1733.24 L724.854 1768.8 L717.806 1768.8 L704.438 1733.24 L704.438 1778.76 L697.632 1778.76 L697.632 1726.92 Z" fill="#000000" fill-rule="nonzero" fill-opacity="1" /><path clip-path="url(#clip990)" d="M776.382 1759.22 Q768.639 1759.22 765.653 1760.99 Q762.667 1762.76 762.667 1767.03 Q762.667 1770.43 764.889 1772.44 Q767.146 1774.42 771 1774.42 Q776.312 1774.42 779.507 1770.67 Q782.736 1766.89 782.736 1760.64 L782.736 1759.22 L776.382 1759.22 M789.125 1756.58 L789.125 1778.76 L782.736 1778.76 L782.736 1772.86 Q780.549 1776.4 777.285 1778.1 Q774.021 1779.77 769.299 1779.77 Q763.326 1779.77 759.785 1776.44 Q756.278 1773.07 756.278 1767.44 Q756.278 1760.88 760.653 1757.55 Q765.062 1754.22 773.778 1754.22 L782.736 1754.22 L782.736 1753.59 Q782.736 1749.18 779.819 1746.78 Q776.937 1744.35 771.694 1744.35 Q768.361 1744.35 765.201 1745.15 Q762.042 1745.95 759.125 1747.55 L759.125 1741.65 Q762.632 1740.29 765.931 1739.63 Q769.229 1738.94 772.354 1738.94 Q780.792 1738.94 784.958 1743.31 Q789.125 1747.69 789.125 1756.58 Z" fill="#000000" fill-rule="nonzero" fill-opacity="1" /><path clip-path="url(#clip990)" d="M824.819 1745.85 Q823.743 1745.22 822.458 1744.94 Q821.208 1744.63 819.68 1744.63 Q814.264 1744.63 811.347 1748.17 Q808.465 1751.68 808.465 1758.28 L808.465 1778.76 L802.041 1778.76 L802.041 1739.88 L808.465 1739.88 L808.465 1745.92 Q810.479 1742.38 813.708 1740.67 Q816.937 1738.94 821.555 1738.94 Q822.215 1738.94 823.014 1739.04 Q823.812 1739.11 824.784 1739.28 L824.819 1745.85 Z" fill="#000000" fill-rule="nonzero" fill-opacity="1" /><path clip-path="url(#clip990)" d="M823.743 1756.44 L842.458 1756.44 L842.458 1762.13 L823.743 1762.13 L823.743 1756.44 Z" fill="#000000" fill-rule="nonzero" fill-opacity="1" /><path clip-path="url(#clip990)" d="M854.75 1772.86 L866.208 1772.86 L866.208 1733.31 L853.743 1735.81 L853.743 1729.42 L866.138 1726.92 L873.152 1726.92 L873.152 1772.86 L884.61 1772.86 L884.61 1778.76 L854.75 1778.76 L854.75 1772.86 Z" fill="#000000" fill-rule="nonzero" fill-opacity="1" /><path clip-path="url(#clip990)" d="M918.048 1733.03 L900.34 1760.71 L918.048 1760.71 L918.048 1733.03 M916.208 1726.92 L925.027 1726.92 L925.027 1760.71 L932.423 1760.71 L932.423 1766.54 L925.027 1766.54 L925.027 1778.76 L918.048 1778.76 L918.048 1766.54 L894.645 1766.54 L894.645 1759.77 L916.208 1726.92 Z" fill="#000000" fill-rule="nonzero" fill-opacity="1" /><path clip-path="url(#clip990)" d="M1179.14 1726.92 L1189.59 1726.92 L1202.82 1762.2 L1216.12 1726.92 L1226.57 1726.92 L1226.57 1778.76 L1219.73 1778.76 L1219.73 1733.24 L1206.36 1768.8 L1199.31 1768.8 L1185.94 1733.24 L1185.94 1778.76 L1179.14 1778.76 L1179.14 1726.92 Z" fill="#000000" fill-rule="nonzero" fill-opacity="1" /><path clip-path="url(#clip990)" d="M1257.89 1759.22 Q1250.14 1759.22 1247.16 1760.99 Q1244.17 1762.76 1244.17 1767.03 Q1244.17 1770.43 1246.4 1772.44 Q1248.65 1774.42 1252.51 1774.42 Q1257.82 1774.42 1261.01 1770.67 Q1264.24 1766.89 1264.24 1760.64 L1264.24 1759.22 L1257.89 1759.22 M1270.63 1756.58 L1270.63 1778.76 L1264.24 1778.76 L1264.24 1772.86 Q1262.05 1776.4 1258.79 1778.1 Q1255.53 1779.77 1250.8 1779.77 Q1244.83 1779.77 1241.29 1776.44 Q1237.78 1773.07 1237.78 1767.44 Q1237.78 1760.88 1242.16 1757.55 Q1246.57 1754.22 1255.28 1754.22 L1264.24 1754.22 L1264.24 1753.59 Q1264.24 1749.18 1261.33 1746.78 Q1258.44 1744.35 1253.2 1744.35 Q1249.87 1744.35 1246.71 1745.15 Q1243.55 1745.95 1240.63 1747.55 L1240.63 1741.65 Q1244.14 1740.29 1247.44 1739.63 Q1250.74 1738.94 1253.86 1738.94 Q1262.3 1738.94 1266.46 1743.31 Q1270.63 1747.69 1270.63 1756.58 Z" fill="#000000" fill-rule="nonzero" fill-opacity="1" /><path clip-path="url(#clip990)" d="M1299.97 1782.37 Q1297.26 1789.32 1294.69 1791.44 Q1292.12 1793.56 1287.82 1793.56 L1282.71 1793.56 L1282.71 1788.21 L1286.46 1788.21 Q1289.1 1788.21 1290.56 1786.96 Q1292.02 1785.71 1293.79 1781.06 L1294.94 1778.14 L1279.21 1739.88 L1285.98 1739.88 L1298.13 1770.29 L1310.28 1739.88 L1317.05 1739.88 L1299.97 1782.37 Z" fill="#000000" fill-rule="nonzero" fill-opacity="1" /><path clip-path="url(#clip990)" d="M1321.39 1756.44 L1340.11 1756.44 L1340.11 1762.13 L1321.39 1762.13 L1321.39 1756.44 Z" fill="#000000" fill-rule="nonzero" fill-opacity="1" /><path clip-path="url(#clip990)" d="M1352.4 1772.86 L1363.86 1772.86 L1363.86 1733.31 L1351.39 1735.81 L1351.39 1729.42 L1363.79 1726.92 L1370.8 1726.92 L1370.8 1772.86 L1382.26 1772.86 L1382.26 1778.76 L1352.4 1778.76 L1352.4 1772.86 Z" fill="#000000" fill-rule="nonzero" fill-opacity="1" /><path clip-path="url(#clip990)" d="M1412.3 1750.05 Q1407.57 1750.05 1404.8 1753.28 Q1402.05 1756.51 1402.05 1762.13 Q1402.05 1767.72 1404.8 1770.99 Q1407.57 1774.22 1412.3 1774.22 Q1417.02 1774.22 1419.76 1770.99 Q1422.54 1767.72 1422.54 1762.13 Q1422.54 1756.51 1419.76 1753.28 Q1417.02 1750.05 1412.3 1750.05 M1426.22 1728.07 L1426.22 1734.46 Q1423.58 1733.21 1420.87 1732.55 Q1418.2 1731.89 1415.56 1731.89 Q1408.62 1731.89 1404.94 1736.58 Q1401.29 1741.26 1400.77 1750.74 Q1402.82 1747.72 1405.91 1746.13 Q1409 1744.49 1412.71 1744.49 Q1420.53 1744.49 1425.04 1749.25 Q1429.59 1753.97 1429.59 1762.13 Q1429.59 1770.12 1424.87 1774.94 Q1420.14 1779.77 1412.3 1779.77 Q1403.3 1779.77 1398.55 1772.9 Q1393.79 1765.99 1393.79 1752.9 Q1393.79 1740.6 1399.62 1733.31 Q1405.46 1725.99 1415.28 1725.99 Q1417.92 1725.99 1420.6 1726.51 Q1423.3 1727.03 1426.22 1728.07 Z" fill="#000000" fill-rule="nonzero" fill-opacity="1" /><path clip-path="url(#clip990)" d="M1704.59 1726.92 L1711.61 1726.92 L1711.61 1775.15 Q1711.61 1784.53 1708.03 1788.76 Q1704.49 1793 1696.61 1793 L1693.93 1793 L1693.93 1787.1 L1696.12 1787.1 Q1700.77 1787.1 1702.68 1784.49 Q1704.59 1781.89 1704.59 1775.15 L1704.59 1726.92 Z" fill="#000000" fill-rule="nonzero" fill-opacity="1" /><path clip-path="url(#clip990)" d="M1724.63 1763.42 L1724.63 1739.88 L1731.02 1739.88 L1731.02 1763.17 Q1731.02 1768.69 1733.17 1771.47 Q1735.32 1774.22 1739.63 1774.22 Q1744.8 1774.22 1747.79 1770.92 Q1750.81 1767.62 1750.81 1761.92 L1750.81 1739.88 L1757.2 1739.88 L1757.2 1778.76 L1750.81 1778.76 L1750.81 1772.79 Q1748.48 1776.33 1745.39 1778.07 Q1742.34 1779.77 1738.27 1779.77 Q1731.57 1779.77 1728.1 1775.6 Q1724.63 1771.44 1724.63 1763.42 M1740.7 1738.94 L1740.7 1738.94 Z" fill="#000000" fill-rule="nonzero" fill-opacity="1" /><path clip-path="url(#clip990)" d="M1770.36 1724.74 L1776.75 1724.74 L1776.75 1778.76 L1770.36 1778.76 L1770.36 1724.74 Z" fill="#000000" fill-rule="nonzero" fill-opacity="1" /><path clip-path="url(#clip990)" d="M1786.89 1756.44 L1805.6 1756.44 L1805.6 1762.13 L1786.89 1762.13 L1786.89 1756.44 Z" fill="#000000" fill-rule="nonzero" fill-opacity="1" /><path clip-path="url(#clip990)" d="M1817.89 1772.86 L1829.35 1772.86 L1829.35 1733.31 L1816.88 1735.81 L1816.88 1729.42 L1829.28 1726.92 L1836.29 1726.92 L1836.29 1772.86 L1847.75 1772.86 L1847.75 1778.76 L1817.89 1778.76 L1817.89 1772.86 Z" fill="#000000" fill-rule="nonzero" fill-opacity="1" /><path clip-path="url(#clip990)" d="M1876.92 1754.15 Q1871.92 1754.15 1869.04 1756.82 Q1866.19 1759.49 1866.19 1764.18 Q1866.19 1768.87 1869.04 1771.54 Q1871.92 1774.22 1876.92 1774.22 Q1881.92 1774.22 1884.8 1771.54 Q1887.68 1768.83 1887.68 1764.18 Q1887.68 1759.49 1884.8 1756.82 Q1881.95 1754.15 1876.92 1754.15 M1869.91 1751.16 Q1865.39 1750.05 1862.86 1746.96 Q1860.36 1743.87 1860.36 1739.42 Q1860.36 1733.21 1864.77 1729.6 Q1869.21 1725.99 1876.92 1725.99 Q1884.66 1725.99 1889.07 1729.6 Q1893.48 1733.21 1893.48 1739.42 Q1893.48 1743.87 1890.95 1746.96 Q1888.45 1750.05 1883.97 1751.16 Q1889.04 1752.34 1891.85 1755.78 Q1894.7 1759.22 1894.7 1764.18 Q1894.7 1771.72 1890.08 1775.74 Q1885.5 1779.77 1876.92 1779.77 Q1868.34 1779.77 1863.73 1775.74 Q1859.14 1771.72 1859.14 1764.18 Q1859.14 1759.22 1861.99 1755.78 Q1864.84 1752.34 1869.91 1751.16 M1867.34 1740.08 Q1867.34 1744.11 1869.84 1746.37 Q1872.37 1748.63 1876.92 1748.63 Q1881.43 1748.63 1883.97 1746.37 Q1886.54 1744.11 1886.54 1740.08 Q1886.54 1736.06 1883.97 1733.8 Q1881.43 1731.54 1876.92 1731.54 Q1872.37 1731.54 1869.84 1733.8 Q1867.34 1736.06 1867.34 1740.08 Z" fill="#000000" fill-rule="nonzero" fill-opacity="1" /><path clip-path="url(#clip990)" d="M2196.64 1728.63 L2196.64 1735.47 Q2192.65 1733.56 2189.1 1732.62 Q2185.56 1731.68 2182.26 1731.68 Q2176.53 1731.68 2173.41 1733.9 Q2170.32 1736.13 2170.32 1740.22 Q2170.32 1743.66 2172.37 1745.43 Q2174.45 1747.17 2180.21 1748.24 L2184.45 1749.11 Q2192.3 1750.6 2196.01 1754.39 Q2199.76 1758.14 2199.76 1764.46 Q2199.76 1771.99 2194.69 1775.88 Q2189.66 1779.77 2179.9 1779.77 Q2176.22 1779.77 2172.05 1778.94 Q2167.92 1778.1 2163.48 1776.47 L2163.48 1769.25 Q2167.75 1771.65 2171.85 1772.86 Q2175.94 1774.08 2179.9 1774.08 Q2185.91 1774.08 2189.17 1771.72 Q2192.44 1769.35 2192.44 1764.98 Q2192.44 1761.16 2190.08 1759.01 Q2187.75 1756.85 2182.4 1755.78 L2178.13 1754.94 Q2170.28 1753.38 2166.78 1750.05 Q2163.27 1746.72 2163.27 1740.78 Q2163.27 1733.9 2168.1 1729.94 Q2172.96 1725.99 2181.46 1725.99 Q2185.11 1725.99 2188.9 1726.65 Q2192.68 1727.31 2196.64 1728.63 Z" fill="#000000" fill-rule="nonzero" fill-opacity="1" /><path clip-path="url(#clip990)" d="M2243.69 1757.72 L2243.69 1760.85 L2214.31 1760.85 Q2214.73 1767.44 2218.27 1770.92 Q2221.85 1774.35 2228.2 1774.35 Q2231.88 1774.35 2235.32 1773.45 Q2238.79 1772.55 2242.19 1770.74 L2242.19 1776.78 Q2238.76 1778.24 2235.14 1779.01 Q2231.53 1779.77 2227.82 1779.77 Q2218.51 1779.77 2213.06 1774.35 Q2207.65 1768.94 2207.65 1759.7 Q2207.65 1750.15 2212.78 1744.56 Q2217.96 1738.94 2226.71 1738.94 Q2234.55 1738.94 2239.1 1744.01 Q2243.69 1749.04 2243.69 1757.72 M2237.3 1755.85 Q2237.23 1750.6 2234.35 1747.48 Q2231.5 1744.35 2226.78 1744.35 Q2221.43 1744.35 2218.2 1747.38 Q2215.01 1750.4 2214.52 1755.88 L2237.3 1755.85 Z" fill="#000000" fill-rule="nonzero" fill-opacity="1" /><path clip-path="url(#clip990)" d="M2260.35 1772.93 L2260.35 1793.56 L2253.93 1793.56 L2253.93 1739.88 L2260.35 1739.88 L2260.35 1745.78 Q2262.37 1742.31 2265.42 1740.64 Q2268.51 1738.94 2272.78 1738.94 Q2279.87 1738.94 2284.28 1744.56 Q2288.72 1750.19 2288.72 1759.35 Q2288.72 1768.52 2284.28 1774.15 Q2279.87 1779.77 2272.78 1779.77 Q2268.51 1779.77 2265.42 1778.1 Q2262.37 1776.4 2260.35 1772.93 M2282.09 1759.35 Q2282.09 1752.31 2279.17 1748.31 Q2276.29 1744.28 2271.22 1744.28 Q2266.15 1744.28 2263.24 1748.31 Q2260.35 1752.31 2260.35 1759.35 Q2260.35 1766.4 2263.24 1770.43 Q2266.15 1774.42 2271.22 1774.42 Q2276.29 1774.42 2279.17 1770.43 Q2282.09 1766.4 2282.09 1759.35 Z" fill="#000000" fill-rule="nonzero" fill-opacity="1" /><path clip-path="url(#clip990)" d="M2296.08 1756.44 L2314.8 1756.44 L2314.8 1762.13 L2296.08 1762.13 L2296.08 1756.44 Z" fill="#000000" fill-rule="nonzero" fill-opacity="1" /><path clip-path="url(#clip990)" d="M2331.92 1772.86 L2356.39 1772.86 L2356.39 1778.76 L2323.48 1778.76 L2323.48 1772.86 Q2327.47 1768.73 2334.35 1761.78 Q2341.26 1754.81 2343.03 1752.79 Q2346.39 1749.01 2347.71 1746.4 Q2349.07 1743.76 2349.07 1741.23 Q2349.07 1737.1 2346.15 1734.49 Q2343.27 1731.89 2338.62 1731.89 Q2335.32 1731.89 2331.64 1733.03 Q2327.99 1734.18 2323.83 1736.51 L2323.83 1729.42 Q2328.06 1727.72 2331.74 1726.85 Q2335.42 1725.99 2338.48 1725.99 Q2346.53 1725.99 2351.32 1730.01 Q2356.12 1734.04 2356.12 1740.78 Q2356.12 1743.97 2354.9 1746.85 Q2353.72 1749.7 2350.56 1753.59 Q2349.69 1754.6 2345.04 1759.42 Q2340.39 1764.22 2331.92 1772.86 Z" fill="#000000" fill-rule="nonzero" fill-opacity="1" /><path clip-path="url(#clip990)" d="M2386.12 1731.54 Q2380.7 1731.54 2377.96 1736.89 Q2375.25 1742.2 2375.25 1752.9 Q2375.25 1763.56 2377.96 1768.9 Q2380.7 1774.22 2386.12 1774.22 Q2391.57 1774.22 2394.28 1768.9 Q2397.02 1763.56 2397.02 1752.9 Q2397.02 1742.2 2394.28 1736.89 Q2391.57 1731.54 2386.12 1731.54 M2386.12 1725.99 Q2394.83 1725.99 2399.41 1732.9 Q2404.03 1739.77 2404.03 1752.9 Q2404.03 1765.99 2399.41 1772.9 Q2394.83 1779.77 2386.12 1779.77 Q2377.4 1779.77 2372.78 1772.9 Q2368.2 1765.99 2368.2 1752.9 Q2368.2 1739.77 2372.78 1732.9 Q2377.4 1725.99 2386.12 1725.99 Z" fill="#000000" fill-rule="nonzero" fill-opacity="1" /><path clip-path="url(#clip990)" d="M1133.85 1824.36 L1192.32 1824.36 L1192.32 1832.23 L1167.78 1832.23 L1167.78 1893.48 L1158.38 1893.48 L1158.38 1832.23 L1133.85 1832.23 L1133.85 1824.36 Z" fill="#000000" fill-rule="nonzero" fill-opacity="1" /><path clip-path="url(#clip990)" d="M1198.06 1841.63 L1206.58 1841.63 L1206.58 1893.48 L1198.06 1893.48 L1198.06 1841.63 M1198.06 1821.45 L1206.58 1821.45 L1206.58 1832.23 L1198.06 1832.23 L1198.06 1821.45 Z" fill="#000000" fill-rule="nonzero" fill-opacity="1" /><path clip-path="url(#clip990)" d="M1264.77 1851.59 Q1267.97 1845.85 1272.41 1843.11 Q1276.86 1840.38 1282.87 1840.38 Q1290.98 1840.38 1295.37 1846.08 Q1299.77 1851.72 1299.77 1862.19 L1299.77 1893.48 L1291.21 1893.48 L1291.21 1862.47 Q1291.21 1855.01 1288.57 1851.4 Q1285.93 1847.79 1280.51 1847.79 Q1273.89 1847.79 1270.05 1852.19 Q1266.21 1856.59 1266.21 1864.18 L1266.21 1893.48 L1257.64 1893.48 L1257.64 1862.47 Q1257.64 1854.97 1255 1851.4 Q1252.36 1847.79 1246.86 1847.79 Q1240.33 1847.79 1236.48 1852.23 Q1232.64 1856.63 1232.64 1864.18 L1232.64 1893.48 L1224.08 1893.48 L1224.08 1841.63 L1232.64 1841.63 L1232.64 1849.69 Q1235.56 1844.92 1239.63 1842.65 Q1243.71 1840.38 1249.31 1840.38 Q1254.96 1840.38 1258.89 1843.25 Q1262.87 1846.12 1264.77 1851.59 Z" fill="#000000" fill-rule="nonzero" fill-opacity="1" /><path clip-path="url(#clip990)" d="M1361.11 1865.43 L1361.11 1869.6 L1321.95 1869.6 Q1322.5 1878.39 1327.23 1883.02 Q1331.99 1887.6 1340.47 1887.6 Q1345.37 1887.6 1349.96 1886.4 Q1354.59 1885.2 1359.12 1882.79 L1359.12 1890.84 Q1354.54 1892.79 1349.73 1893.81 Q1344.91 1894.83 1339.96 1894.83 Q1327.55 1894.83 1320.28 1887.6 Q1313.06 1880.38 1313.06 1868.07 Q1313.06 1855.34 1319.91 1847.88 Q1326.81 1840.38 1338.48 1840.38 Q1348.94 1840.38 1355 1847.14 Q1361.11 1853.85 1361.11 1865.43 M1352.6 1862.93 Q1352.5 1855.94 1348.66 1851.77 Q1344.86 1847.6 1338.57 1847.6 Q1331.44 1847.6 1327.13 1851.63 Q1322.87 1855.66 1322.23 1862.97 L1352.6 1862.93 Z" fill="#000000" fill-rule="nonzero" fill-opacity="1" /><path clip-path="url(#clip990)" d="M1425.7 1821.54 Q1419.49 1832.19 1416.48 1842.6 Q1413.47 1853.02 1413.47 1863.72 Q1413.47 1874.41 1416.48 1884.92 Q1419.54 1895.38 1425.7 1905.98 L1418.29 1905.98 Q1411.35 1895.1 1407.87 1884.6 Q1404.45 1874.09 1404.45 1863.72 Q1404.45 1853.39 1407.87 1842.93 Q1411.3 1832.47 1418.29 1821.54 L1425.7 1821.54 Z" fill="#000000" fill-rule="nonzero" fill-opacity="1" /><path clip-path="url(#clip990)" d="M1442.59 1824.36 L1456.53 1824.36 L1474.17 1871.4 L1491.9 1824.36 L1505.84 1824.36 L1505.84 1893.48 L1496.71 1893.48 L1496.71 1832.79 L1478.89 1880.2 L1469.49 1880.2 L1451.67 1832.79 L1451.67 1893.48 L1442.59 1893.48 L1442.59 1824.36 Z" fill="#000000" fill-rule="nonzero" fill-opacity="1" /><path clip-path="url(#clip990)" d="M1524.4 1824.36 L1538.34 1824.36 L1555.97 1871.4 L1573.71 1824.36 L1587.64 1824.36 L1587.64 1893.48 L1578.52 1893.48 L1578.52 1832.79 L1560.7 1880.2 L1551.3 1880.2 L1533.47 1832.79 L1533.47 1893.48 L1524.4 1893.48 L1524.4 1824.36 Z" fill="#000000" fill-rule="nonzero" fill-opacity="1" /><path clip-path="url(#clip990)" d="M1601.53 1863.72 L1626.48 1863.72 L1626.48 1871.31 L1601.53 1871.31 L1601.53 1863.72 Z" fill="#000000" fill-rule="nonzero" fill-opacity="1" /><path clip-path="url(#clip990)" d="M1619.68 1824.36 L1629.72 1824.36 L1648.89 1852.79 L1667.92 1824.36 L1677.96 1824.36 L1653.52 1860.57 L1653.52 1893.48 L1644.12 1893.48 L1644.12 1860.57 L1619.68 1824.36 Z" fill="#000000" fill-rule="nonzero" fill-opacity="1" /><path clip-path="url(#clip990)" d="M1677.59 1824.36 L1687.64 1824.36 L1706.81 1852.79 L1725.83 1824.36 L1735.88 1824.36 L1711.44 1860.57 L1711.44 1893.48 L1702.04 1893.48 L1702.04 1860.57 L1677.59 1824.36 Z" fill="#000000" fill-rule="nonzero" fill-opacity="1" /><path clip-path="url(#clip990)" d="M1743.29 1821.54 L1750.7 1821.54 Q1757.64 1832.47 1761.07 1842.93 Q1764.54 1853.39 1764.54 1863.72 Q1764.54 1874.09 1761.07 1884.6 Q1757.64 1895.1 1750.7 1905.98 L1743.29 1905.98 Q1749.45 1895.38 1752.45 1884.92 Q1755.51 1874.41 1755.51 1863.72 Q1755.51 1853.02 1752.45 1842.6 Q1749.45 1832.19 1743.29 1821.54 Z" fill="#000000" fill-rule="nonzero" fill-opacity="1" /><polyline clip-path="url(#clip992)" style="stroke:#000000; stroke-linecap:round; stroke-linejoin:round; stroke-width:2; stroke-opacity:0.1; fill:none" points="257.628,1692.46 2640.76,1692.46 "/>
<polyline clip-path="url(#clip992)" style="stroke:#000000; stroke-linecap:round; stroke-linejoin:round; stroke-width:2; stroke-opacity:0.1; fill:none" points="257.628,1363.42 2640.76,1363.42 "/>
<polyline clip-path="url(#clip992)" style="stroke:#000000; stroke-linecap:round; stroke-linejoin:round; stroke-width:2; stroke-opacity:0.1; fill:none" points="257.628,1034.37 2640.76,1034.37 "/>
<polyline clip-path="url(#clip992)" style="stroke:#000000; stroke-linecap:round; stroke-linejoin:round; stroke-width:2; stroke-opacity:0.1; fill:none" points="257.628,705.33 2640.76,705.33 "/>
<polyline clip-path="url(#clip992)" style="stroke:#000000; stroke-linecap:round; stroke-linejoin:round; stroke-width:2; stroke-opacity:0.1; fill:none" points="257.628,376.287 2640.76,376.287 "/>
<polyline clip-path="url(#clip992)" style="stroke:#000000; stroke-linecap:round; stroke-linejoin:round; stroke-width:2; stroke-opacity:0.1; fill:none" points="257.628,47.2441 2640.76,47.2441 "/>
<polyline clip-path="url(#clip990)" style="stroke:#000000; stroke-linecap:round; stroke-linejoin:round; stroke-width:4; stroke-opacity:1; fill:none" points="257.628,1692.46 257.628,47.2441 "/>
<polyline clip-path="url(#clip990)" style="stroke:#000000; stroke-linecap:round; stroke-linejoin:round; stroke-width:4; stroke-opacity:1; fill:none" points="257.628,1692.46 276.526,1692.46 "/>
<polyline clip-path="url(#clip990)" style="stroke:#000000; stroke-linecap:round; stroke-linejoin:round; stroke-width:4; stroke-opacity:1; fill:none" points="257.628,1363.42 276.526,1363.42 "/>
<polyline clip-path="url(#clip990)" style="stroke:#000000; stroke-linecap:round; stroke-linejoin:round; stroke-width:4; stroke-opacity:1; fill:none" points="257.628,1034.37 276.526,1034.37 "/>
<polyline clip-path="url(#clip990)" style="stroke:#000000; stroke-linecap:round; stroke-linejoin:round; stroke-width:4; stroke-opacity:1; fill:none" points="257.628,705.33 276.526,705.33 "/>
<polyline clip-path="url(#clip990)" style="stroke:#000000; stroke-linecap:round; stroke-linejoin:round; stroke-width:4; stroke-opacity:1; fill:none" points="257.628,376.287 276.526,376.287 "/>
<polyline clip-path="url(#clip990)" style="stroke:#000000; stroke-linecap:round; stroke-linejoin:round; stroke-width:4; stroke-opacity:1; fill:none" points="257.628,47.2441 276.526,47.2441 "/>
<path clip-path="url(#clip990)" d="M199.392 1671.16 Q193.975 1671.16 191.232 1676.51 Q188.524 1681.82 188.524 1692.51 Q188.524 1703.17 191.232 1708.52 Q193.975 1713.83 199.392 1713.83 Q204.843 1713.83 207.551 1708.52 Q210.294 1703.17 210.294 1692.51 Q210.294 1681.82 207.551 1676.51 Q204.843 1671.16 199.392 1671.16 M199.392 1665.6 Q208.107 1665.6 212.69 1672.51 Q217.308 1679.39 217.308 1692.51 Q217.308 1705.6 212.69 1712.51 Q208.107 1719.39 199.392 1719.39 Q190.676 1719.39 186.058 1712.51 Q181.475 1705.6 181.475 1692.51 Q181.475 1679.39 186.058 1672.51 Q190.676 1665.6 199.392 1665.6 Z" fill="#000000" fill-rule="nonzero" fill-opacity="1" /><path clip-path="url(#clip990)" d="M192.829 1383.43 L217.308 1383.43 L217.308 1389.34 L184.392 1389.34 L184.392 1383.43 Q188.385 1379.3 195.26 1372.36 Q202.169 1365.38 203.94 1363.36 Q207.308 1359.58 208.628 1356.98 Q209.982 1354.34 209.982 1351.8 Q209.982 1347.67 207.065 1345.07 Q204.183 1342.46 199.531 1342.46 Q196.232 1342.46 192.551 1343.61 Q188.906 1344.75 184.739 1347.08 L184.739 1340 Q188.975 1338.3 192.656 1337.43 Q196.336 1336.56 199.392 1336.56 Q207.447 1336.56 212.239 1340.59 Q217.03 1344.61 217.03 1351.35 Q217.03 1354.55 215.815 1357.43 Q214.635 1360.27 211.475 1364.16 Q210.607 1365.17 205.954 1370 Q201.301 1374.79 192.829 1383.43 Z" fill="#000000" fill-rule="nonzero" fill-opacity="1" /><path clip-path="url(#clip990)" d="M202.933 1014.56 L185.225 1042.24 L202.933 1042.24 L202.933 1014.56 M201.093 1008.45 L209.912 1008.45 L209.912 1042.24 L217.308 1042.24 L217.308 1048.07 L209.912 1048.07 L209.912 1060.29 L202.933 1060.29 L202.933 1048.07 L179.531 1048.07 L179.531 1041.3 L201.093 1008.45 Z" fill="#000000" fill-rule="nonzero" fill-opacity="1" /><path clip-path="url(#clip990)" d="M200.017 702.535 Q195.295 702.535 192.517 705.764 Q189.774 708.994 189.774 714.619 Q189.774 720.209 192.517 723.473 Q195.295 726.702 200.017 726.702 Q204.739 726.702 207.482 723.473 Q210.26 720.209 210.26 714.619 Q210.26 708.994 207.482 705.764 Q204.739 702.535 200.017 702.535 M213.94 680.556 L213.94 686.945 Q211.301 685.695 208.593 685.035 Q205.919 684.376 203.281 684.376 Q196.336 684.376 192.656 689.063 Q189.01 693.751 188.489 703.23 Q190.538 700.209 193.628 698.612 Q196.718 696.98 200.433 696.98 Q208.246 696.98 212.76 701.737 Q217.308 706.459 217.308 714.619 Q217.308 722.605 212.586 727.431 Q207.864 732.257 200.017 732.257 Q191.024 732.257 186.267 725.382 Q181.51 718.473 181.51 705.382 Q181.51 693.091 187.343 685.799 Q193.176 678.473 203.003 678.473 Q205.642 678.473 208.315 678.994 Q211.024 679.515 213.94 680.556 Z" fill="#000000" fill-rule="nonzero" fill-opacity="1" /><path clip-path="url(#clip990)" d="M199.531 377.589 Q194.531 377.589 191.649 380.263 Q188.801 382.937 188.801 387.624 Q188.801 392.311 191.649 394.985 Q194.531 397.659 199.531 397.659 Q204.531 397.659 207.412 394.985 Q210.294 392.277 210.294 387.624 Q210.294 382.937 207.412 380.263 Q204.565 377.589 199.531 377.589 M192.517 374.603 Q188.003 373.492 185.468 370.402 Q182.968 367.312 182.968 362.867 Q182.968 356.652 187.378 353.041 Q191.822 349.43 199.531 349.43 Q207.274 349.43 211.683 353.041 Q216.093 356.652 216.093 362.867 Q216.093 367.312 213.558 370.402 Q211.058 373.492 206.579 374.603 Q211.649 375.784 214.461 379.221 Q217.308 382.659 217.308 387.624 Q217.308 395.159 212.69 399.186 Q208.107 403.214 199.531 403.214 Q190.954 403.214 186.336 399.186 Q181.753 395.159 181.753 387.624 Q181.753 382.659 184.6 379.221 Q187.447 375.784 192.517 374.603 M189.947 363.527 Q189.947 367.555 192.447 369.812 Q194.982 372.069 199.531 372.069 Q204.044 372.069 206.579 369.812 Q209.149 367.555 209.149 363.527 Q209.149 359.499 206.579 357.242 Q204.044 354.985 199.531 354.985 Q194.982 354.985 192.447 357.242 Q189.947 359.499 189.947 363.527 Z" fill="#000000" fill-rule="nonzero" fill-opacity="1" /><path clip-path="url(#clip990)" d="M140.364 67.2613 L151.823 67.2613 L151.823 27.7129 L139.357 30.2129 L139.357 23.8241 L151.753 21.3241 L158.767 21.3241 L158.767 67.2613 L170.225 67.2613 L170.225 73.1641 L140.364 73.1641 L140.364 67.2613 Z" fill="#000000" fill-rule="nonzero" fill-opacity="1" /><path clip-path="url(#clip990)" d="M199.392 25.9421 Q193.975 25.9421 191.232 31.2893 Q188.524 36.6018 188.524 47.2962 Q188.524 57.9558 191.232 63.303 Q193.975 68.6155 199.392 68.6155 Q204.843 68.6155 207.551 63.303 Q210.294 57.9558 210.294 47.2962 Q210.294 36.6018 207.551 31.2893 Q204.843 25.9421 199.392 25.9421 M199.392 20.3866 Q208.107 20.3866 212.69 27.2963 Q217.308 34.1712 217.308 47.2962 Q217.308 60.3864 212.69 67.2961 Q208.107 74.171 199.392 74.171 Q190.676 74.171 186.058 67.2961 Q181.475 60.3864 181.475 47.2962 Q181.475 34.1712 186.058 27.2963 Q190.676 20.3866 199.392 20.3866 Z" fill="#000000" fill-rule="nonzero" fill-opacity="1" /><path clip-path="url(#clip990)" d="M18.3942 1320.75 L52.7922 1333.44 L52.7922 1308.02 L18.3942 1320.75 M9.1813 1326.03 L9.1813 1315.43 L78.3013 1289.09 L78.3013 1298.81 L60.5699 1305.1 L60.5699 1336.26 L78.3013 1342.56 L78.3013 1352.42 L9.1813 1326.03 Z" fill="#000000" fill-rule="nonzero" fill-opacity="1" /><path clip-path="url(#clip990)" d="M26.4497 1279.36 L26.4497 1270.85 L78.3013 1270.85 L78.3013 1279.36 L26.4497 1279.36 M6.26465 1279.36 L6.26465 1270.85 L17.0516 1270.85 L17.0516 1279.36 L6.26465 1279.36 Z" fill="#000000" fill-rule="nonzero" fill-opacity="1" /><path clip-path="url(#clip990)" d="M34.4126 1222.98 Q33.5793 1224.41 33.2089 1226.12 Q32.7923 1227.79 32.7923 1229.83 Q32.7923 1237.05 37.5145 1240.94 Q42.1904 1244.78 50.9866 1244.78 L78.3013 1244.78 L78.3013 1253.35 L26.4497 1253.35 L26.4497 1244.78 L34.5052 1244.78 Q29.783 1242.1 27.5145 1237.79 Q25.1997 1233.48 25.1997 1227.33 Q25.1997 1226.45 25.3386 1225.38 Q25.4312 1224.32 25.6627 1223.02 L34.4126 1222.98 Z" fill="#000000" fill-rule="nonzero" fill-opacity="1" /><path clip-path="url(#clip990)" d="M11.7276 1175.48 L26.4497 1175.48 L26.4497 1157.93 L33.0701 1157.93 L33.0701 1175.48 L61.2181 1175.48 Q67.5606 1175.48 69.3662 1173.76 Q71.1717 1172 71.1717 1166.68 L71.1717 1157.93 L78.3013 1157.93 L78.3013 1166.68 Q78.3013 1176.54 74.6439 1180.29 Q70.9402 1184.04 61.2181 1184.04 L33.0701 1184.04 L33.0701 1190.29 L26.4497 1190.29 L26.4497 1184.04 L11.7276 1184.04 L11.7276 1175.48 Z" fill="#000000" fill-rule="nonzero" fill-opacity="1" /><path clip-path="url(#clip990)" d="M50.2459 1102.37 L54.4125 1102.37 L54.4125 1141.54 Q63.2088 1140.98 67.8384 1136.26 Q72.4217 1131.49 72.4217 1123.02 Q72.4217 1118.11 71.218 1113.53 Q70.0143 1108.9 67.6069 1104.36 L75.6624 1104.36 Q77.6069 1108.95 78.6254 1113.76 Q79.6439 1118.58 79.6439 1123.53 Q79.6439 1135.94 72.4217 1143.21 Q65.1995 1150.43 52.8848 1150.43 Q40.1534 1150.43 32.6997 1143.58 Q25.1997 1136.68 25.1997 1125.01 Q25.1997 1114.55 31.959 1108.48 Q38.6719 1102.37 50.2459 1102.37 M47.7459 1110.89 Q40.7552 1110.98 36.5886 1114.83 Q32.4219 1118.62 32.4219 1124.92 Q32.4219 1132.05 36.4497 1136.36 Q40.4774 1140.61 47.7922 1141.26 L47.7459 1110.89 Z" fill="#000000" fill-rule="nonzero" fill-opacity="1" /><path clip-path="url(#clip990)" d="M36.4034 1048.02 Q30.6627 1044.83 27.9312 1040.38 Q25.1997 1035.94 25.1997 1029.92 Q25.1997 1021.82 30.8941 1017.42 Q36.5423 1013.02 47.0052 1013.02 L78.3013 1013.02 L78.3013 1021.59 L47.2829 1021.59 Q39.8293 1021.59 36.2182 1024.23 Q32.6071 1026.87 32.6071 1032.28 Q32.6071 1038.9 37.0052 1042.74 Q41.4033 1046.59 48.9959 1046.59 L78.3013 1046.59 L78.3013 1055.15 L47.2829 1055.15 Q39.783 1055.15 36.2182 1057.79 Q32.6071 1060.43 32.6071 1065.94 Q32.6071 1072.47 37.0515 1076.31 Q41.4496 1080.15 48.9959 1080.15 L78.3013 1080.15 L78.3013 1088.72 L26.4497 1088.72 L26.4497 1080.15 L34.5052 1080.15 Q29.7367 1077.24 27.4682 1073.16 Q25.1997 1069.09 25.1997 1063.49 Q25.1997 1057.84 28.0701 1053.9 Q30.9404 1049.92 36.4034 1048.02 Z" fill="#000000" fill-rule="nonzero" fill-opacity="1" /><path clip-path="url(#clip990)" d="M70.5236 987.791 L98.0234 987.791 L98.0234 996.356 L26.4497 996.356 L26.4497 987.791 L34.3201 987.791 Q29.6904 985.106 27.4682 981.032 Q25.1997 976.912 25.1997 971.217 Q25.1997 961.773 32.6997 955.893 Q40.1997 949.967 52.4218 949.967 Q64.644 949.967 72.1439 955.893 Q79.6439 961.773 79.6439 971.217 Q79.6439 976.912 77.4217 981.032 Q75.1532 985.106 70.5236 987.791 M52.4218 958.81 Q43.0237 958.81 37.6997 962.699 Q32.3293 966.541 32.3293 973.3 Q32.3293 980.06 37.6997 983.949 Q43.0237 987.791 52.4218 987.791 Q61.8199 987.791 67.1902 983.949 Q72.5143 980.06 72.5143 973.3 Q72.5143 966.541 67.1902 962.699 Q61.8199 958.81 52.4218 958.81 Z" fill="#000000" fill-rule="nonzero" fill-opacity="1" /><path clip-path="url(#clip990)" d="M50.2459 891.495 L54.4125 891.495 L54.4125 930.662 Q63.2088 930.106 67.8384 925.384 Q72.4217 920.616 72.4217 912.143 Q72.4217 907.236 71.218 902.653 Q70.0143 898.023 67.6069 893.486 L75.6624 893.486 Q77.6069 898.069 78.6254 902.884 Q79.6439 907.699 79.6439 912.653 Q79.6439 925.06 72.4217 932.328 Q65.1995 939.551 52.8848 939.551 Q40.1534 939.551 32.6997 932.699 Q25.1997 925.801 25.1997 914.134 Q25.1997 903.671 31.959 897.606 Q38.6719 891.495 50.2459 891.495 M47.7459 900.014 Q40.7552 900.106 36.5886 903.949 Q32.4219 907.745 32.4219 914.042 Q32.4219 921.171 36.4497 925.477 Q40.4774 929.736 47.7922 930.384 L47.7459 900.014 Z" fill="#000000" fill-rule="nonzero" fill-opacity="1" /><path clip-path="url(#clip990)" d="M34.4126 847.468 Q33.5793 848.903 33.2089 850.616 Q32.7923 852.283 32.7923 854.32 Q32.7923 861.542 37.5145 865.431 Q42.1904 869.273 50.9866 869.273 L78.3013 869.273 L78.3013 877.838 L26.4497 877.838 L26.4497 869.273 L34.5052 869.273 Q29.783 866.588 27.5145 862.283 Q25.1997 857.977 25.1997 851.82 Q25.1997 850.94 25.3386 849.875 Q25.4312 848.81 25.6627 847.514 L34.4126 847.468 Z" fill="#000000" fill-rule="nonzero" fill-opacity="1" /><path clip-path="url(#clip990)" d="M52.2366 814.968 Q52.2366 825.292 54.5977 829.273 Q56.9588 833.255 62.6532 833.255 Q67.1902 833.255 69.8754 830.292 Q72.5143 827.283 72.5143 822.144 Q72.5143 815.061 67.5143 810.801 Q62.4681 806.496 54.1348 806.496 L52.2366 806.496 L52.2366 814.968 M48.7181 797.977 L78.3013 797.977 L78.3013 806.496 L70.431 806.496 Q75.1532 809.412 77.4217 813.764 Q79.6439 818.116 79.6439 824.412 Q79.6439 832.375 75.1995 837.098 Q70.7087 841.773 63.2088 841.773 Q54.4588 841.773 50.0144 835.94 Q45.57 830.061 45.57 818.44 L45.57 806.496 L44.7367 806.496 Q38.8571 806.496 35.6626 810.385 Q32.4219 814.227 32.4219 821.218 Q32.4219 825.662 33.4867 829.875 Q34.5515 834.088 36.6812 837.977 L28.8108 837.977 Q27.0053 833.301 26.1257 828.903 Q25.1997 824.505 25.1997 820.338 Q25.1997 809.088 31.033 803.533 Q36.8663 797.977 48.7181 797.977 Z" fill="#000000" fill-rule="nonzero" fill-opacity="1" /><path clip-path="url(#clip990)" d="M11.7276 772.005 L26.4497 772.005 L26.4497 754.459 L33.0701 754.459 L33.0701 772.005 L61.2181 772.005 Q67.5606 772.005 69.3662 770.292 Q71.1717 768.533 71.1717 763.209 L71.1717 754.459 L78.3013 754.459 L78.3013 763.209 Q78.3013 773.07 74.6439 776.82 Q70.9402 780.57 61.2181 780.57 L33.0701 780.57 L33.0701 786.82 L26.4497 786.82 L26.4497 780.57 L11.7276 780.57 L11.7276 772.005 Z" fill="#000000" fill-rule="nonzero" fill-opacity="1" /><path clip-path="url(#clip990)" d="M57.8384 744.135 L26.4497 744.135 L26.4497 735.617 L57.5144 735.617 Q64.8754 735.617 68.5791 732.746 Q72.2365 729.876 72.2365 724.135 Q72.2365 717.237 67.8384 713.256 Q63.4403 709.228 55.8477 709.228 L26.4497 709.228 L26.4497 700.709 L78.3013 700.709 L78.3013 709.228 L70.3384 709.228 Q75.0606 712.33 77.3754 716.45 Q79.6439 720.524 79.6439 725.941 Q79.6439 734.876 74.0884 739.505 Q68.5328 744.135 57.8384 744.135 M25.1997 722.7 L25.1997 722.7 Z" fill="#000000" fill-rule="nonzero" fill-opacity="1" /><path clip-path="url(#clip990)" d="M34.4126 653.117 Q33.5793 654.552 33.2089 656.265 Q32.7923 657.932 32.7923 659.969 Q32.7923 667.191 37.5145 671.08 Q42.1904 674.922 50.9866 674.922 L78.3013 674.922 L78.3013 683.487 L26.4497 683.487 L26.4497 674.922 L34.5052 674.922 Q29.783 672.237 27.5145 667.932 Q25.1997 663.626 25.1997 657.469 Q25.1997 656.589 25.3386 655.524 Q25.4312 654.46 25.6627 653.163 L34.4126 653.117 Z" fill="#000000" fill-rule="nonzero" fill-opacity="1" /><path clip-path="url(#clip990)" d="M50.2459 601.914 L54.4125 601.914 L54.4125 641.08 Q63.2088 640.524 67.8384 635.802 Q72.4217 631.034 72.4217 622.562 Q72.4217 617.654 71.218 613.071 Q70.0143 608.441 67.6069 603.904 L75.6624 603.904 Q77.6069 608.488 78.6254 613.302 Q79.6439 618.117 79.6439 623.071 Q79.6439 635.478 72.4217 642.747 Q65.1995 649.969 52.8848 649.969 Q40.1534 649.969 32.6997 643.117 Q25.1997 636.219 25.1997 624.552 Q25.1997 614.089 31.959 608.025 Q38.6719 601.914 50.2459 601.914 M47.7459 610.432 Q40.7552 610.525 36.5886 614.367 Q32.4219 618.164 32.4219 624.46 Q32.4219 631.589 36.4497 635.895 Q40.4774 640.154 47.7922 640.802 L47.7459 610.432 Z" fill="#000000" fill-rule="nonzero" fill-opacity="1" /><path clip-path="url(#clip990)" d="M6.35724 537.331 Q17.0053 543.534 27.4219 546.544 Q37.8386 549.553 48.5329 549.553 Q59.2273 549.553 69.7365 546.544 Q80.1994 543.488 90.8012 537.331 L90.8012 544.738 Q79.9217 551.682 69.4125 555.155 Q58.9033 558.58 48.5329 558.58 Q38.2089 558.58 27.746 555.155 Q17.2831 551.729 6.35724 544.738 L6.35724 537.331 Z" fill="#000000" fill-rule="nonzero" fill-opacity="1" /><path clip-path="url(#clip990)" d="M13.9035 506.034 Q13.9035 509.738 16.4961 512.284 Q19.0424 514.831 22.746 514.831 Q26.4034 514.831 28.9497 512.284 Q31.4497 509.738 31.4497 506.034 Q31.4497 502.331 28.9497 499.785 Q26.4034 497.238 22.746 497.238 Q19.0887 497.238 16.4961 499.831 Q13.9035 502.377 13.9035 506.034 M7.93131 506.034 Q7.93131 503.072 9.08871 500.34 Q10.1998 497.609 12.3294 495.618 Q14.4128 493.488 17.0516 492.423 Q19.6905 491.359 22.746 491.359 Q28.8571 491.359 33.1164 495.664 Q37.3293 499.923 37.3293 506.127 Q37.3293 512.377 33.1627 516.544 Q28.996 520.71 22.746 520.71 Q16.5424 520.71 12.2368 516.451 Q7.93131 512.192 7.93131 506.034 Z" fill="#000000" fill-rule="nonzero" fill-opacity="1" /><path clip-path="url(#clip990)" d="M14.5053 421.266 L24.3664 421.266 Q19.9683 425.989 17.7924 431.359 Q15.6165 436.683 15.6165 442.701 Q15.6165 454.553 22.8849 460.85 Q30.1071 467.146 43.8107 467.146 Q57.4681 467.146 64.7366 460.85 Q71.9587 454.553 71.9587 442.701 Q71.9587 436.683 69.7828 431.359 Q67.6069 425.989 63.2088 421.266 L72.9773 421.266 Q76.3106 426.174 77.9772 431.683 Q79.6439 437.146 79.6439 443.257 Q79.6439 458.951 70.0606 467.979 Q60.431 477.007 43.8107 477.007 Q27.1442 477.007 17.5609 467.979 Q7.93131 458.951 7.93131 443.257 Q7.93131 437.053 9.59796 431.59 Q11.2183 426.081 14.5053 421.266 Z" fill="#000000" fill-rule="nonzero" fill-opacity="1" /><path clip-path="url(#clip990)" d="M6.35724 408.535 L6.35724 401.128 Q17.2831 394.183 27.746 390.757 Q38.2089 387.285 48.5329 387.285 Q58.9033 387.285 69.4125 390.757 Q79.9217 394.183 90.8012 401.128 L90.8012 408.535 Q80.1994 402.378 69.7365 399.368 Q59.2273 396.313 48.5329 396.313 Q37.8386 396.313 27.4219 399.368 Q17.0053 402.378 6.35724 408.535 Z" fill="#000000" fill-rule="nonzero" fill-opacity="1" /><polyline clip-path="url(#clip992)" style="stroke:#000000; stroke-linecap:round; stroke-linejoin:round; stroke-width:8; stroke-opacity:1; fill:none" points="325.075,996.023 330.006,1032.85 334.936,1060.16 339.866,1152.89 344.797,1128.25 349.727,1077.57 354.657,1080.6 359.588,1197.61 364.518,1125.99 369.448,1111.16 374.379,1076.19 379.309,1029.4 384.239,989.934 389.17,928.022 394.1,845.34 399.03,762.396 403.961,606.222 408.891,601.852 413.821,538.834 418.752,483.92 423.682,398.591 428.612,382.355 433.543,339.493 438.473,381.228 443.403,418.317 448.334,391.796 453.264,430.375 458.194,418.576 463.125,460.915 468.055,417.631 472.985,452.377 477.916,560.674 482.846,609.345 487.776,607.205 492.707,609.098 497.637,741.603 502.567,762.123 507.498,798.264 512.428,838.552 517.358,845.56 522.289,878.638 527.219,906.412 532.149,938.522 537.08,988.788 542.01,1023.09 546.94,992.372 550.638,941.819 555.569,993.659 560.499,1041.21 565.429,1079.48 570.36,1130.93 575.29,1194.73 580.22,1228.9 585.151,1195.69 590.081,1133.26 595.011,1081.38 599.942,1144.77 604.872,1071.48 609.802,957.935 614.733,925.073 619.663,813.821 624.593,778.933 629.524,725.377 634.454,672.741 639.384,577.862 644.315,533.668 649.245,372.945 654.175,298.017 659.106,328.157 664.036,357.287 668.966,452.915 673.897,383.124 678.827,369.185 683.757,305.959 688.688,375.788 693.618,475.619 698.548,492.168 703.479,486.468 708.409,484.899 713.339,576.286 718.27,643.712 723.2,816.175 728.13,803.128 733.061,896.066 737.991,936.954 742.921,871.663 747.852,892.481 752.782,894.785 757.712,939.801 762.643,928.479 767.573,949.878 772.503,1015.5 775.585,1037.45 780.515,992.379 785.445,1039.89 790.376,1044.59 795.306,1096.06 800.236,1079.19 805.167,1154.87 810.097,1177.23 815.028,1138.71 819.958,1079.83 824.888,1042.52 829.819,1010.08 834.749,1007.95 839.679,833.584 844.61,804.338 849.54,730.345 854.47,617.265 859.401,595.677 864.331,472.72 869.261,455.602 874.192,436.577 879.122,399.5 884.052,435.09 888.983,398.223 893.913,377.121 898.843,392.699 903.774,417.911 908.704,394.259 913.634,452.166 918.565,353.443 923.495,401.731 928.425,514.437 933.356,593.048 938.286,595.228 943.216,665.257 948.147,769.334 953.077,794.739 958.007,787.889 962.938,866.132 967.868,924.118 972.798,980.563 977.729,998.927 982.659,980.342 987.589,957.023 992.52,943.817 997.45,1028.32 1000.53,999.73 1005.46,1001.22 1010.39,1044.54 1015.32,1101.23 1020.25,1114.23 1025.18,1069.33 1030.11,1062.57 1035.04,1104.42 1039.97,1026.79 1044.9,1029.97 1049.83,1049.59 1054.77,1063.39 1059.7,950.307 1064.63,815.731 1069.56,782.567 1074.49,765.408 1079.42,705.388 1084.35,606.724 1089.28,523.398 1094.21,401.902 1099.14,421.416 1104.07,415.484 1109,422.337 1113.93,447.06 1118.86,378.721 1123.79,360.073 1128.72,336.898 1133.65,372.003 1138.58,437.653 1143.51,464.771 1148.44,499.598 1153.37,570.946 1158.3,624.527 1163.23,679.418 1168.16,557.239 1173.09,667.771 1178.02,741.049 1182.95,826.764 1187.88,921.688 1192.81,824.173 1197.74,873.181 1202.68,904.104 1207.61,868.255 1212.54,949.416 1217.47,1013.83 1222.4,953.236 1225.48,921.283 1230.41,915.075 1235.34,967.078 1240.27,984.178 1245.2,1030.02 1250.13,1050.05 1255.06,957.3 1259.99,952.207 1264.92,1017.68 1269.85,1047.88 1274.78,1019.3 1279.71,990.573 1284.64,928.668 1289.57,786.853 1294.5,724.154 1299.43,671.921 1304.36,597.197 1309.29,544.312 1314.22,465.6 1319.15,435.036 1324.08,440.544 1329.02,394.318 1333.95,374.132 1338.88,373.474 1343.81,316.419 1348.74,310.13 1353.67,344.504 1358.6,317.014 1363.53,254.24 1368.46,391.945 1373.39,446.916 1378.32,569.318 1383.25,499.473 1388.18,552.785 1393.11,626.112 1398.04,603.419 1402.97,710.409 1407.9,778.418 1412.83,698.57 1417.76,746.245 1422.69,780.189 1427.62,857.832 1432.55,901.985 1437.48,915.027 1442.41,872.242 1447.34,896.622 1451.04,945.795 1455.97,1004.79 1460.9,922.086 1465.83,975.15 1470.76,967.857 1475.69,1004.88 1480.62,1077.36 1485.55,1017.53 1490.48,1058.96 1495.41,1014.42 1500.34,953.142 1505.27,904.935 1510.21,921.381 1515.14,885.392 1520.07,766.931 1525,732.979 1529.93,633.558 1534.86,542.129 1539.79,441.474 1544.72,461.91 1549.65,439.198 1554.58,381.77 1559.51,401.543 1564.44,406.297 1569.37,370.757 1574.3,322.034 1579.23,306.083 1584.16,371.654 1589.09,349.302 1594.02,436.275 1598.95,526.441 1603.88,500.058 1608.81,588.396 1613.74,627.274 1618.67,596.382 1623.6,676.093 1628.53,670.128 1633.46,788.047 1638.39,823.805 1643.32,874.351 1648.25,911.591 1653.18,867.177 1658.12,900.997 1663.05,934.767 1667.98,902.093 1672.91,923.879 1675.99,952.549 1680.92,991.29 1685.85,1002.34 1690.78,1057.92 1695.71,1033.24 1700.64,978.088 1705.57,1009.34 1710.5,1078.9 1715.43,1139.69 1720.36,1140.63 1725.29,976.21 1730.22,977.106 1735.15,947.218 1740.08,799.512 1745.01,758.512 1749.94,703.204 1754.87,533.855 1759.8,557.714 1764.73,496.816 1769.66,395.179 1774.59,353.578 1779.52,299.832 1784.45,363.363 1789.39,403.188 1794.32,346.431 1799.25,282.226 1804.18,305.787 1809.11,277.281 1814.04,317.495 1818.97,466.039 1823.9,528.533 1828.83,554.501 1833.76,590.065 1838.69,598.033 1843.62,597.191 1848.55,630.97 1853.48,681.113 1858.41,714.133 1863.34,813.992 1868.27,897.633 1873.2,928.294 1878.13,936.411 1883.06,912.1 1887.99,854.009 1892.92,927.735 1897.85,983.438 1900.93,1000.66 1905.86,1058.26 1910.79,1054.18 1915.73,1115 1920.66,1099.87 1925.59,1067.81 1930.52,1042.7 1935.45,983.43 1940.38,1024.61 1945.31,1106.28 1950.24,978.03 1955.17,903.34 1960.1,910.72 1965.03,820.651 1969.96,754.87 1974.89,635.51 1979.82,611.948 1984.75,568.529 1989.68,471.021 1994.61,437.932 1999.54,383.954 2004.47,376.416 2009.4,305.828 2014.33,257.257 2019.26,314.096 2024.19,306.174 2029.12,392.296 2034.05,340.608 2038.98,369.64 2043.91,324.722 2048.84,404.904 2053.77,502.252 2058.7,567.88 2063.64,587.758 2068.57,594.221 2073.5,681.872 2078.43,708.727 2083.36,729.766 2088.29,830.72 2093.22,876.801 2098.15,807.245 2103.08,888.645 2108.01,849.647 2112.94,882.606 2117.87,924.921 2122.8,960.278 2125.88,940.349 2130.81,961.846 2135.74,978.721 2140.67,1037.23 2145.6,1041.28 2150.53,1036.9 2155.46,978.493 2160.39,1081.33 2165.32,1137.86 2170.25,1061.23 2175.18,1036.07 2180.11,947.152 2185.04,902.413 2189.98,746.913 2194.91,651.261 2199.84,668.614 2204.77,569.998 2209.7,490.054 2214.63,438.997 2219.56,380.876 2224.49,419.091 2229.42,287.204 2234.35,275.294 2239.28,332.876 2244.21,272.012 2249.14,311.23 2254.07,377.49 2259,363.185 2263.93,374.872 2268.86,421.99 2273.79,408.814 2278.72,470.753 2283.65,492.663 2288.58,566.113 2293.51,575.343 2298.44,667.432 2303.37,750.01 2308.3,790 2313.23,777.817 2318.16,737.812 2323.09,717.835 2328.02,799.619 2332.95,862.394 2337.89,931.513 2342.82,1000.44 2347.75,963.85 2351.44,967.813 2356.37,1016.23 2361.3,1019.62 2366.23,1092.86 2371.17,1115.7 2376.1,1154.36 2381.03,1135.21 2385.96,1148.02 2390.89,1109.66 2395.82,1102.4 2400.75,1067.95 2405.68,1033.74 2410.61,978.519 2415.54,904.855 2420.47,787.728 2425.4,717.033 2430.33,688.006 2435.26,540.369 2440.19,460.167 2445.12,479.038 2450.05,484.813 2454.98,377.458 2459.91,333.954 2464.84,308.644 2469.77,351.336 2474.7,339.982 2479.63,316.38 2484.56,405.69 2489.49,378.233 2494.42,442.226 2499.35,455.536 2504.28,478.794 2509.21,515.625 2514.14,624.687 2519.08,638.611 2524.01,685.814 2528.94,785.325 2533.87,761.072 2538.8,806.586 2543.73,879.689 2548.66,909.716 2553.59,950.098 2558.52,940.148 2563.45,936.114 2568.38,921.306 2573.31,1006.74 "/>
</svg>
