<?xml version="1.0" encoding="utf-8"?>
<svg xmlns="http://www.w3.org/2000/svg" xmlns:xlink="http://www.w3.org/1999/xlink" width="672" height="480" viewBox="0 0 2688 1920">
<defs>
  <clipPath id="clip950">
    <rect x="0" y="0" width="2688" height="1920"/>
  </clipPath>
</defs>
<path clip-path="url(#clip950)" d="M0 1920 L2688 1920 L2688 0 L0 0  Z" fill="#ffffff" fill-rule="evenodd" fill-opacity="1"/>
<defs>
  <clipPath id="clip951">
    <rect x="537" y="0" width="1883" height="1883"/>
  </clipPath>
</defs>
<path clip-path="url(#clip950)" d="M328.079 1692.46 L2640.76 1692.46 L2640.76 47.2441 L328.079 47.2441  Z" fill="#ffffff" fill-rule="evenodd" fill-opacity="1"/>
<defs>
  <clipPath id="clip952">
    <rect x="328" y="47" width="2314" height="1646"/>
  </clipPath>
</defs>
<polyline clip-path="url(#clip952)" style="stroke:#000000; stroke-linecap:round; stroke-linejoin:round; stroke-width:2; stroke-opacity:0.1; fill:none" points="393.532,1692.46 393.532,47.2441 "/>
<polyline clip-path="url(#clip952)" style="stroke:#000000; stroke-linecap:round; stroke-linejoin:round; stroke-width:2; stroke-opacity:0.1; fill:none" points="869,1692.46 869,47.2441 "/>
<polyline clip-path="url(#clip952)" style="stroke:#000000; stroke-linecap:round; stroke-linejoin:round; stroke-width:2; stroke-opacity:0.1; fill:none" points="1343.87,1692.46 1343.87,47.2441 "/>
<polyline clip-path="url(#clip952)" style="stroke:#000000; stroke-linecap:round; stroke-linejoin:round; stroke-width:2; stroke-opacity:0.1; fill:none" points="1819.34,1692.46 1819.34,47.2441 "/>
<polyline clip-path="url(#clip952)" style="stroke:#000000; stroke-linecap:round; stroke-linejoin:round; stroke-width:2; stroke-opacity:0.1; fill:none" points="2294.21,1692.46 2294.21,47.2441 "/>
<polyline clip-path="url(#clip950)" style="stroke:#000000; stroke-linecap:round; stroke-linejoin:round; stroke-width:4; stroke-opacity:1; fill:none" points="328.079,1692.46 2640.76,1692.46 "/>
<polyline clip-path="url(#clip950)" style="stroke:#000000; stroke-linecap:round; stroke-linejoin:round; stroke-width:4; stroke-opacity:1; fill:none" points="393.532,1692.46 393.532,1673.56 "/>
<polyline clip-path="url(#clip950)" style="stroke:#000000; stroke-linecap:round; stroke-linejoin:round; stroke-width:4; stroke-opacity:1; fill:none" points="869,1692.46 869,1673.56 "/>
<polyline clip-path="url(#clip950)" style="stroke:#000000; stroke-linecap:round; stroke-linejoin:round; stroke-width:4; stroke-opacity:1; fill:none" points="1343.87,1692.46 1343.87,1673.56 "/>
<polyline clip-path="url(#clip950)" style="stroke:#000000; stroke-linecap:round; stroke-linejoin:round; stroke-width:4; stroke-opacity:1; fill:none" points="1819.34,1692.46 1819.34,1673.56 "/>
<polyline clip-path="url(#clip950)" style="stroke:#000000; stroke-linecap:round; stroke-linejoin:round; stroke-width:4; stroke-opacity:1; fill:none" points="2294.21,1692.46 2294.21,1673.56 "/>
<path clip-path="url(#clip950)" d="M293.029 1726.92 L300.043 1726.92 L300.043 1775.15 Q300.043 1784.53 296.467 1788.76 Q292.925 1793 285.043 1793 L282.37 1793 L282.37 1787.1 L284.557 1787.1 Q289.21 1787.1 291.12 1784.49 Q293.029 1781.89 293.029 1775.15 L293.029 1726.92 Z" fill="#000000" fill-rule="nonzero" fill-opacity="1" /><path clip-path="url(#clip950)" d="M331.397 1759.22 Q323.654 1759.22 320.668 1760.99 Q317.682 1762.76 317.682 1767.03 Q317.682 1770.43 319.904 1772.44 Q322.161 1774.42 326.015 1774.42 Q331.328 1774.42 334.522 1770.67 Q337.751 1766.89 337.751 1760.64 L337.751 1759.22 L331.397 1759.22 M344.14 1756.58 L344.14 1778.76 L337.751 1778.76 L337.751 1772.86 Q335.564 1776.4 332.3 1778.1 Q329.036 1779.77 324.314 1779.77 Q318.342 1779.77 314.8 1776.44 Q311.293 1773.07 311.293 1767.44 Q311.293 1760.88 315.668 1757.55 Q320.078 1754.22 328.793 1754.22 L337.751 1754.22 L337.751 1753.59 Q337.751 1749.18 334.835 1746.78 Q331.953 1744.35 326.71 1744.35 Q323.377 1744.35 320.217 1745.15 Q317.057 1745.95 314.14 1747.55 L314.14 1741.65 Q317.647 1740.29 320.946 1739.63 Q324.245 1738.94 327.37 1738.94 Q335.807 1738.94 339.974 1743.31 Q344.14 1747.69 344.14 1756.58 Z" fill="#000000" fill-rule="nonzero" fill-opacity="1" /><path clip-path="url(#clip950)" d="M389.626 1755.29 L389.626 1778.76 L383.237 1778.76 L383.237 1755.5 Q383.237 1749.98 381.085 1747.24 Q378.932 1744.49 374.626 1744.49 Q369.453 1744.49 366.467 1747.79 Q363.48 1751.09 363.48 1756.78 L363.48 1778.76 L357.057 1778.76 L357.057 1739.88 L363.48 1739.88 L363.48 1745.92 Q365.772 1742.41 368.862 1740.67 Q371.987 1738.94 376.05 1738.94 Q382.751 1738.94 386.189 1743.1 Q389.626 1747.24 389.626 1755.29 Z" fill="#000000" fill-rule="nonzero" fill-opacity="1" /><path clip-path="url(#clip950)" d="M399.14 1756.44 L417.855 1756.44 L417.855 1762.13 L399.14 1762.13 L399.14 1756.44 Z" fill="#000000" fill-rule="nonzero" fill-opacity="1" /><path clip-path="url(#clip950)" d="M430.147 1772.86 L441.605 1772.86 L441.605 1733.31 L429.14 1735.81 L429.14 1729.42 L441.536 1726.92 L448.549 1726.92 L448.549 1772.86 L460.008 1772.86 L460.008 1778.76 L430.147 1778.76 L430.147 1772.86 Z" fill="#000000" fill-rule="nonzero" fill-opacity="1" /><path clip-path="url(#clip950)" d="M480.216 1772.86 L504.695 1772.86 L504.695 1778.76 L471.779 1778.76 L471.779 1772.86 Q475.772 1768.73 482.647 1761.78 Q489.556 1754.81 491.327 1752.79 Q494.695 1749.01 496.014 1746.4 Q497.369 1743.76 497.369 1741.23 Q497.369 1737.1 494.452 1734.49 Q491.57 1731.89 486.917 1731.89 Q483.619 1731.89 479.938 1733.03 Q476.292 1734.18 472.126 1736.51 L472.126 1729.42 Q476.362 1727.72 480.042 1726.85 Q483.723 1725.99 486.778 1725.99 Q494.834 1725.99 499.626 1730.01 Q504.417 1734.04 504.417 1740.78 Q504.417 1743.97 503.202 1746.85 Q502.021 1749.7 498.862 1753.59 Q497.994 1754.6 493.341 1759.42 Q488.688 1764.22 480.216 1772.86 Z" fill="#000000" fill-rule="nonzero" fill-opacity="1" /><path clip-path="url(#clip950)" d="M751.605 1726.92 L762.057 1726.92 L775.286 1762.2 L788.584 1726.92 L799.036 1726.92 L799.036 1778.76 L792.195 1778.76 L792.195 1733.24 L778.827 1768.8 L771.779 1768.8 L758.411 1733.24 L758.411 1778.76 L751.605 1778.76 L751.605 1726.92 Z" fill="#000000" fill-rule="nonzero" fill-opacity="1" /><path clip-path="url(#clip950)" d="M830.355 1759.22 Q822.612 1759.22 819.626 1760.99 Q816.64 1762.76 816.64 1767.03 Q816.64 1770.43 818.862 1772.44 Q821.119 1774.42 824.973 1774.42 Q830.285 1774.42 833.48 1770.67 Q836.709 1766.89 836.709 1760.64 L836.709 1759.22 L830.355 1759.22 M843.098 1756.58 L843.098 1778.76 L836.709 1778.76 L836.709 1772.86 Q834.521 1776.4 831.258 1778.1 Q827.994 1779.77 823.272 1779.77 Q817.299 1779.77 813.758 1776.44 Q810.251 1773.07 810.251 1767.44 Q810.251 1760.88 814.626 1757.55 Q819.035 1754.22 827.751 1754.22 L836.709 1754.22 L836.709 1753.59 Q836.709 1749.18 833.792 1746.78 Q830.91 1744.35 825.667 1744.35 Q822.334 1744.35 819.174 1745.15 Q816.015 1745.95 813.098 1747.55 L813.098 1741.65 Q816.605 1740.29 819.903 1739.63 Q823.202 1738.94 826.327 1738.94 Q834.765 1738.94 838.931 1743.31 Q843.098 1747.69 843.098 1756.58 Z" fill="#000000" fill-rule="nonzero" fill-opacity="1" /><path clip-path="url(#clip950)" d="M878.792 1745.85 Q877.716 1745.22 876.431 1744.94 Q875.181 1744.63 873.653 1744.63 Q868.237 1744.63 865.32 1748.17 Q862.438 1751.68 862.438 1758.28 L862.438 1778.76 L856.014 1778.76 L856.014 1739.88 L862.438 1739.88 L862.438 1745.92 Q864.452 1742.38 867.681 1740.67 Q870.91 1738.94 875.528 1738.94 Q876.188 1738.94 876.987 1739.04 Q877.785 1739.11 878.757 1739.28 L878.792 1745.85 Z" fill="#000000" fill-rule="nonzero" fill-opacity="1" /><path clip-path="url(#clip950)" d="M877.716 1756.44 L896.431 1756.44 L896.431 1762.13 L877.716 1762.13 L877.716 1756.44 Z" fill="#000000" fill-rule="nonzero" fill-opacity="1" /><path clip-path="url(#clip950)" d="M908.722 1772.86 L920.181 1772.86 L920.181 1733.31 L907.716 1735.81 L907.716 1729.42 L920.111 1726.92 L927.125 1726.92 L927.125 1772.86 L938.583 1772.86 L938.583 1778.76 L908.722 1778.76 L908.722 1772.86 Z" fill="#000000" fill-rule="nonzero" fill-opacity="1" /><path clip-path="url(#clip950)" d="M972.021 1733.03 L954.312 1760.71 L972.021 1760.71 L972.021 1733.03 M970.18 1726.92 L979 1726.92 L979 1760.71 L986.396 1760.71 L986.396 1766.54 L979 1766.54 L979 1778.76 L972.021 1778.76 L972.021 1766.54 L948.618 1766.54 L948.618 1759.77 L970.18 1726.92 Z" fill="#000000" fill-rule="nonzero" fill-opacity="1" /><path clip-path="url(#clip950)" d="M1218.65 1726.92 L1229.1 1726.92 L1242.33 1762.2 L1255.62 1726.92 L1266.08 1726.92 L1266.08 1778.76 L1259.24 1778.76 L1259.24 1733.24 L1245.87 1768.8 L1238.82 1768.8 L1225.45 1733.24 L1225.45 1778.76 L1218.65 1778.76 L1218.65 1726.92 Z" fill="#000000" fill-rule="nonzero" fill-opacity="1" /><path clip-path="url(#clip950)" d="M1297.39 1759.22 Q1289.65 1759.22 1286.67 1760.99 Q1283.68 1762.76 1283.68 1767.03 Q1283.68 1770.43 1285.9 1772.44 Q1288.16 1774.42 1292.01 1774.42 Q1297.33 1774.42 1300.52 1770.67 Q1303.75 1766.89 1303.75 1760.64 L1303.75 1759.22 L1297.39 1759.22 M1310.14 1756.58 L1310.14 1778.76 L1303.75 1778.76 L1303.75 1772.86 Q1301.56 1776.4 1298.3 1778.1 Q1295.03 1779.77 1290.31 1779.77 Q1284.34 1779.77 1280.8 1776.44 Q1277.29 1773.07 1277.29 1767.44 Q1277.29 1760.88 1281.67 1757.55 Q1286.08 1754.22 1294.79 1754.22 L1303.75 1754.22 L1303.75 1753.59 Q1303.75 1749.18 1300.83 1746.78 Q1297.95 1744.35 1292.71 1744.35 Q1289.37 1744.35 1286.21 1745.15 Q1283.05 1745.95 1280.14 1747.55 L1280.14 1741.65 Q1283.65 1740.29 1286.94 1739.63 Q1290.24 1738.94 1293.37 1738.94 Q1301.8 1738.94 1305.97 1743.31 Q1310.14 1747.69 1310.14 1756.58 Z" fill="#000000" fill-rule="nonzero" fill-opacity="1" /><path clip-path="url(#clip950)" d="M1339.48 1782.37 Q1336.77 1789.32 1334.2 1791.44 Q1331.63 1793.56 1327.33 1793.56 L1322.22 1793.56 L1322.22 1788.21 L1325.97 1788.21 Q1328.61 1788.21 1330.07 1786.96 Q1331.53 1785.71 1333.3 1781.06 L1334.44 1778.14 L1318.71 1739.88 L1325.49 1739.88 L1337.64 1770.29 L1349.79 1739.88 L1356.56 1739.88 L1339.48 1782.37 Z" fill="#000000" fill-rule="nonzero" fill-opacity="1" /><path clip-path="url(#clip950)" d="M1360.9 1756.44 L1379.62 1756.44 L1379.62 1762.13 L1360.9 1762.13 L1360.9 1756.44 Z" fill="#000000" fill-rule="nonzero" fill-opacity="1" /><path clip-path="url(#clip950)" d="M1391.91 1772.86 L1403.37 1772.86 L1403.37 1733.31 L1390.9 1735.81 L1390.9 1729.42 L1403.3 1726.92 L1410.31 1726.92 L1410.31 1772.86 L1421.77 1772.86 L1421.77 1778.76 L1391.91 1778.76 L1391.91 1772.86 Z" fill="#000000" fill-rule="nonzero" fill-opacity="1" /><path clip-path="url(#clip950)" d="M1451.8 1750.05 Q1447.08 1750.05 1444.3 1753.28 Q1441.56 1756.51 1441.56 1762.13 Q1441.56 1767.72 1444.3 1770.99 Q1447.08 1774.22 1451.8 1774.22 Q1456.53 1774.22 1459.27 1770.99 Q1462.05 1767.72 1462.05 1762.13 Q1462.05 1756.51 1459.27 1753.28 Q1456.53 1750.05 1451.8 1750.05 M1465.73 1728.07 L1465.73 1734.46 Q1463.09 1733.21 1460.38 1732.55 Q1457.71 1731.89 1455.07 1731.89 Q1448.12 1731.89 1444.44 1736.58 Q1440.8 1741.26 1440.28 1750.74 Q1442.32 1747.72 1445.42 1746.13 Q1448.51 1744.49 1452.22 1744.49 Q1460.03 1744.49 1464.55 1749.25 Q1469.1 1753.97 1469.1 1762.13 Q1469.1 1770.12 1464.37 1774.94 Q1459.65 1779.77 1451.8 1779.77 Q1442.81 1779.77 1438.05 1772.9 Q1433.3 1765.99 1433.3 1752.9 Q1433.3 1740.6 1439.13 1733.31 Q1444.96 1725.99 1454.79 1725.99 Q1457.43 1725.99 1460.1 1726.51 Q1462.81 1727.03 1465.73 1728.07 Z" fill="#000000" fill-rule="nonzero" fill-opacity="1" /><path clip-path="url(#clip950)" d="M1729.62 1726.92 L1736.63 1726.92 L1736.63 1775.15 Q1736.63 1784.53 1733.05 1788.76 Q1729.51 1793 1721.63 1793 L1718.96 1793 L1718.96 1787.1 L1721.14 1787.1 Q1725.8 1787.1 1727.71 1784.49 Q1729.62 1781.89 1729.62 1775.15 L1729.62 1726.92 Z" fill="#000000" fill-rule="nonzero" fill-opacity="1" /><path clip-path="url(#clip950)" d="M1749.65 1763.42 L1749.65 1739.88 L1756.04 1739.88 L1756.04 1763.17 Q1756.04 1768.69 1758.19 1771.47 Q1760.35 1774.22 1764.65 1774.22 Q1769.82 1774.22 1772.81 1770.92 Q1775.83 1767.62 1775.83 1761.92 L1775.83 1739.88 L1782.22 1739.88 L1782.22 1778.76 L1775.83 1778.76 L1775.83 1772.79 Q1773.51 1776.33 1770.42 1778.07 Q1767.36 1779.77 1763.3 1779.77 Q1756.6 1779.77 1753.12 1775.6 Q1749.65 1771.44 1749.65 1763.42 M1765.73 1738.94 L1765.73 1738.94 Z" fill="#000000" fill-rule="nonzero" fill-opacity="1" /><path clip-path="url(#clip950)" d="M1795.38 1724.74 L1801.77 1724.74 L1801.77 1778.76 L1795.38 1778.76 L1795.38 1724.74 Z" fill="#000000" fill-rule="nonzero" fill-opacity="1" /><path clip-path="url(#clip950)" d="M1811.91 1756.44 L1830.62 1756.44 L1830.62 1762.13 L1811.91 1762.13 L1811.91 1756.44 Z" fill="#000000" fill-rule="nonzero" fill-opacity="1" /><path clip-path="url(#clip950)" d="M1842.91 1772.86 L1854.37 1772.86 L1854.37 1733.31 L1841.91 1735.81 L1841.91 1729.42 L1854.3 1726.92 L1861.32 1726.92 L1861.32 1772.86 L1872.78 1772.86 L1872.78 1778.76 L1842.91 1778.76 L1842.91 1772.86 Z" fill="#000000" fill-rule="nonzero" fill-opacity="1" /><path clip-path="url(#clip950)" d="M1901.94 1754.15 Q1896.94 1754.15 1894.06 1756.82 Q1891.21 1759.49 1891.21 1764.18 Q1891.21 1768.87 1894.06 1771.54 Q1896.94 1774.22 1901.94 1774.22 Q1906.94 1774.22 1909.82 1771.54 Q1912.71 1768.83 1912.71 1764.18 Q1912.71 1759.49 1909.82 1756.82 Q1906.98 1754.15 1901.94 1754.15 M1894.93 1751.16 Q1890.41 1750.05 1887.88 1746.96 Q1885.38 1743.87 1885.38 1739.42 Q1885.38 1733.21 1889.79 1729.6 Q1894.23 1725.99 1901.94 1725.99 Q1909.69 1725.99 1914.09 1729.6 Q1918.5 1733.21 1918.5 1739.42 Q1918.5 1743.87 1915.97 1746.96 Q1913.47 1750.05 1908.99 1751.16 Q1914.06 1752.34 1916.87 1755.78 Q1919.72 1759.22 1919.72 1764.18 Q1919.72 1771.72 1915.1 1775.74 Q1910.52 1779.77 1901.94 1779.77 Q1893.37 1779.77 1888.75 1775.74 Q1884.16 1771.72 1884.16 1764.18 Q1884.16 1759.22 1887.01 1755.78 Q1889.86 1752.34 1894.93 1751.16 M1892.36 1740.08 Q1892.36 1744.11 1894.86 1746.37 Q1897.39 1748.63 1901.94 1748.63 Q1906.46 1748.63 1908.99 1746.37 Q1911.56 1744.11 1911.56 1740.08 Q1911.56 1736.06 1908.99 1733.8 Q1906.46 1731.54 1901.94 1731.54 Q1897.39 1731.54 1894.86 1733.8 Q1892.36 1736.06 1892.36 1740.08 Z" fill="#000000" fill-rule="nonzero" fill-opacity="1" /><path clip-path="url(#clip950)" d="M2207.2 1728.63 L2207.2 1735.47 Q2203.2 1733.56 2199.66 1732.62 Q2196.12 1731.68 2192.82 1731.68 Q2187.09 1731.68 2183.97 1733.9 Q2180.88 1736.13 2180.88 1740.22 Q2180.88 1743.66 2182.92 1745.43 Q2185.01 1747.17 2190.77 1748.24 L2195.01 1749.11 Q2202.85 1750.6 2206.57 1754.39 Q2210.32 1758.14 2210.32 1764.46 Q2210.32 1771.99 2205.25 1775.88 Q2200.22 1779.77 2190.46 1779.77 Q2186.78 1779.77 2182.61 1778.94 Q2178.48 1778.1 2174.04 1776.47 L2174.04 1769.25 Q2178.31 1771.65 2182.4 1772.86 Q2186.5 1774.08 2190.46 1774.08 Q2196.47 1774.08 2199.73 1771.72 Q2202.99 1769.35 2202.99 1764.98 Q2202.99 1761.16 2200.63 1759.01 Q2198.31 1756.85 2192.96 1755.78 L2188.69 1754.94 Q2180.84 1753.38 2177.33 1750.05 Q2173.83 1746.72 2173.83 1740.78 Q2173.83 1733.9 2178.65 1729.94 Q2183.51 1725.99 2192.02 1725.99 Q2195.67 1725.99 2199.45 1726.65 Q2203.24 1727.31 2207.2 1728.63 Z" fill="#000000" fill-rule="nonzero" fill-opacity="1" /><path clip-path="url(#clip950)" d="M2254.24 1757.72 L2254.24 1760.85 L2224.87 1760.85 Q2225.29 1767.44 2228.83 1770.92 Q2232.4 1774.35 2238.76 1774.35 Q2242.44 1774.35 2245.88 1773.45 Q2249.35 1772.55 2252.75 1770.74 L2252.75 1776.78 Q2249.31 1778.24 2245.7 1779.01 Q2242.09 1779.77 2238.38 1779.77 Q2229.07 1779.77 2223.62 1774.35 Q2218.2 1768.94 2218.2 1759.7 Q2218.2 1750.15 2223.34 1744.56 Q2228.51 1738.94 2237.26 1738.94 Q2245.11 1738.94 2249.66 1744.01 Q2254.24 1749.04 2254.24 1757.72 M2247.85 1755.85 Q2247.79 1750.6 2244.9 1747.48 Q2242.06 1744.35 2237.33 1744.35 Q2231.99 1744.35 2228.76 1747.38 Q2225.56 1750.4 2225.08 1755.88 L2247.85 1755.85 Z" fill="#000000" fill-rule="nonzero" fill-opacity="1" /><path clip-path="url(#clip950)" d="M2270.91 1772.93 L2270.91 1793.56 L2264.49 1793.56 L2264.49 1739.88 L2270.91 1739.88 L2270.91 1745.78 Q2272.92 1742.31 2275.98 1740.64 Q2279.07 1738.94 2283.34 1738.94 Q2290.42 1738.94 2294.83 1744.56 Q2299.28 1750.19 2299.28 1759.35 Q2299.28 1768.52 2294.83 1774.15 Q2290.42 1779.77 2283.34 1779.77 Q2279.07 1779.77 2275.98 1778.1 Q2272.92 1776.4 2270.91 1772.93 M2292.65 1759.35 Q2292.65 1752.31 2289.73 1748.31 Q2286.85 1744.28 2281.78 1744.28 Q2276.71 1744.28 2273.79 1748.31 Q2270.91 1752.31 2270.91 1759.35 Q2270.91 1766.4 2273.79 1770.43 Q2276.71 1774.42 2281.78 1774.42 Q2286.85 1774.42 2289.73 1770.43 Q2292.65 1766.4 2292.65 1759.35 Z" fill="#000000" fill-rule="nonzero" fill-opacity="1" /><path clip-path="url(#clip950)" d="M2306.64 1756.44 L2325.35 1756.44 L2325.35 1762.13 L2306.64 1762.13 L2306.64 1756.44 Z" fill="#000000" fill-rule="nonzero" fill-opacity="1" /><path clip-path="url(#clip950)" d="M2342.47 1772.86 L2366.95 1772.86 L2366.95 1778.76 L2334.03 1778.76 L2334.03 1772.86 Q2338.03 1768.73 2344.9 1761.78 Q2351.81 1754.81 2353.58 1752.79 Q2356.95 1749.01 2358.27 1746.4 Q2359.62 1743.76 2359.62 1741.23 Q2359.62 1737.1 2356.71 1734.49 Q2353.83 1731.89 2349.17 1731.89 Q2345.87 1731.89 2342.19 1733.03 Q2338.55 1734.18 2334.38 1736.51 L2334.38 1729.42 Q2338.62 1727.72 2342.3 1726.85 Q2345.98 1725.99 2349.03 1725.99 Q2357.09 1725.99 2361.88 1730.01 Q2366.67 1734.04 2366.67 1740.78 Q2366.67 1743.97 2365.46 1746.85 Q2364.28 1749.7 2361.12 1753.59 Q2360.25 1754.6 2355.6 1759.42 Q2350.94 1764.22 2342.47 1772.86 Z" fill="#000000" fill-rule="nonzero" fill-opacity="1" /><path clip-path="url(#clip950)" d="M2396.67 1731.54 Q2391.26 1731.54 2388.51 1736.89 Q2385.81 1742.2 2385.81 1752.9 Q2385.81 1763.56 2388.51 1768.9 Q2391.26 1774.22 2396.67 1774.22 Q2402.12 1774.22 2404.83 1768.9 Q2407.58 1763.56 2407.58 1752.9 Q2407.58 1742.2 2404.83 1736.89 Q2402.12 1731.54 2396.67 1731.54 M2396.67 1725.99 Q2405.39 1725.99 2409.97 1732.9 Q2414.59 1739.77 2414.59 1752.9 Q2414.59 1765.99 2409.97 1772.9 Q2405.39 1779.77 2396.67 1779.77 Q2387.96 1779.77 2383.34 1772.9 Q2378.76 1765.99 2378.76 1752.9 Q2378.76 1739.77 2383.34 1732.9 Q2387.96 1725.99 2396.67 1725.99 Z" fill="#000000" fill-rule="nonzero" fill-opacity="1" /><path clip-path="url(#clip950)" d="M1169.07 1824.36 L1227.54 1824.36 L1227.54 1832.23 L1203.01 1832.23 L1203.01 1893.48 L1193.61 1893.48 L1193.61 1832.23 L1169.07 1832.23 L1169.07 1824.36 Z" fill="#000000" fill-rule="nonzero" fill-opacity="1" /><path clip-path="url(#clip950)" d="M1233.28 1841.63 L1241.8 1841.63 L1241.8 1893.48 L1233.28 1893.48 L1233.28 1841.63 M1233.28 1821.45 L1241.8 1821.45 L1241.8 1832.23 L1233.28 1832.23 L1233.28 1821.45 Z" fill="#000000" fill-rule="nonzero" fill-opacity="1" /><path clip-path="url(#clip950)" d="M1300 1851.59 Q1303.19 1845.85 1307.64 1843.11 Q1312.08 1840.38 1318.1 1840.38 Q1326.2 1840.38 1330.6 1846.08 Q1335 1851.72 1335 1862.19 L1335 1893.48 L1326.43 1893.48 L1326.43 1862.47 Q1326.43 1855.01 1323.79 1851.4 Q1321.15 1847.79 1315.74 1847.79 Q1309.12 1847.79 1305.28 1852.19 Q1301.43 1856.59 1301.43 1864.18 L1301.43 1893.48 L1292.87 1893.48 L1292.87 1862.47 Q1292.87 1854.97 1290.23 1851.4 Q1287.59 1847.79 1282.08 1847.79 Q1275.55 1847.79 1271.71 1852.23 Q1267.87 1856.63 1267.87 1864.18 L1267.87 1893.48 L1259.3 1893.48 L1259.3 1841.63 L1267.87 1841.63 L1267.87 1849.69 Q1270.78 1844.92 1274.86 1842.65 Q1278.93 1840.38 1284.53 1840.38 Q1290.18 1840.38 1294.12 1843.25 Q1298.1 1846.12 1300 1851.59 Z" fill="#000000" fill-rule="nonzero" fill-opacity="1" /><path clip-path="url(#clip950)" d="M1396.34 1865.43 L1396.34 1869.6 L1357.17 1869.6 Q1357.73 1878.39 1362.45 1883.02 Q1367.22 1887.6 1375.69 1887.6 Q1380.6 1887.6 1385.18 1886.4 Q1389.81 1885.2 1394.35 1882.79 L1394.35 1890.84 Q1389.77 1892.79 1384.95 1893.81 Q1380.14 1894.83 1375.18 1894.83 Q1362.77 1894.83 1355.51 1887.6 Q1348.28 1880.38 1348.28 1868.07 Q1348.28 1855.34 1355.14 1847.88 Q1362.03 1840.38 1373.7 1840.38 Q1384.16 1840.38 1390.23 1847.14 Q1396.34 1853.85 1396.34 1865.43 M1387.82 1862.93 Q1387.73 1855.94 1383.89 1851.77 Q1380.09 1847.6 1373.79 1847.6 Q1366.66 1847.6 1362.36 1851.63 Q1358.1 1855.66 1357.45 1862.97 L1387.82 1862.93 Z" fill="#000000" fill-rule="nonzero" fill-opacity="1" /><path clip-path="url(#clip950)" d="M1460.92 1821.54 Q1454.72 1832.19 1451.71 1842.6 Q1448.7 1853.02 1448.7 1863.72 Q1448.7 1874.41 1451.71 1884.92 Q1454.76 1895.38 1460.92 1905.98 L1453.51 1905.98 Q1446.57 1895.1 1443.1 1884.6 Q1439.67 1874.09 1439.67 1863.72 Q1439.67 1853.39 1443.1 1842.93 Q1446.52 1832.47 1453.51 1821.54 L1460.92 1821.54 Z" fill="#000000" fill-rule="nonzero" fill-opacity="1" /><path clip-path="url(#clip950)" d="M1477.82 1824.36 L1491.76 1824.36 L1509.39 1871.4 L1527.13 1824.36 L1541.06 1824.36 L1541.06 1893.48 L1531.94 1893.48 L1531.94 1832.79 L1514.12 1880.2 L1504.72 1880.2 L1486.89 1832.79 L1486.89 1893.48 L1477.82 1893.48 L1477.82 1824.36 Z" fill="#000000" fill-rule="nonzero" fill-opacity="1" /><path clip-path="url(#clip950)" d="M1559.63 1824.36 L1573.56 1824.36 L1591.2 1871.4 L1608.93 1824.36 L1622.87 1824.36 L1622.87 1893.48 L1613.75 1893.48 L1613.75 1832.79 L1595.92 1880.2 L1586.52 1880.2 L1568.7 1832.79 L1568.7 1893.48 L1559.63 1893.48 L1559.63 1824.36 Z" fill="#000000" fill-rule="nonzero" fill-opacity="1" /><path clip-path="url(#clip950)" d="M1636.75 1863.72 L1661.71 1863.72 L1661.71 1871.31 L1636.75 1871.31 L1636.75 1863.72 Z" fill="#000000" fill-rule="nonzero" fill-opacity="1" /><path clip-path="url(#clip950)" d="M1654.9 1824.36 L1664.95 1824.36 L1684.12 1852.79 L1703.14 1824.36 L1713.19 1824.36 L1688.75 1860.57 L1688.75 1893.48 L1679.35 1893.48 L1679.35 1860.57 L1654.9 1824.36 Z" fill="#000000" fill-rule="nonzero" fill-opacity="1" /><path clip-path="url(#clip950)" d="M1712.82 1824.36 L1722.87 1824.36 L1742.03 1852.79 L1761.06 1824.36 L1771.11 1824.36 L1746.66 1860.57 L1746.66 1893.48 L1737.26 1893.48 L1737.26 1860.57 L1712.82 1824.36 Z" fill="#000000" fill-rule="nonzero" fill-opacity="1" /><path clip-path="url(#clip950)" d="M1778.51 1821.54 L1785.92 1821.54 Q1792.87 1832.47 1796.29 1842.93 Q1799.76 1853.39 1799.76 1863.72 Q1799.76 1874.09 1796.29 1884.6 Q1792.87 1895.1 1785.92 1905.98 L1778.51 1905.98 Q1784.67 1895.38 1787.68 1884.92 Q1790.74 1874.41 1790.74 1863.72 Q1790.74 1853.02 1787.68 1842.6 Q1784.67 1832.19 1778.51 1821.54 Z" fill="#000000" fill-rule="nonzero" fill-opacity="1" /><polyline clip-path="url(#clip952)" style="stroke:#000000; stroke-linecap:round; stroke-linejoin:round; stroke-width:2; stroke-opacity:0.1; fill:none" points="328.079,1692.46 2640.76,1692.46 "/>
<polyline clip-path="url(#clip952)" style="stroke:#000000; stroke-linecap:round; stroke-linejoin:round; stroke-width:2; stroke-opacity:0.1; fill:none" points="328.079,1281.16 2640.76,1281.16 "/>
<polyline clip-path="url(#clip952)" style="stroke:#000000; stroke-linecap:round; stroke-linejoin:round; stroke-width:2; stroke-opacity:0.1; fill:none" points="328.079,869.852 2640.76,869.852 "/>
<polyline clip-path="url(#clip952)" style="stroke:#000000; stroke-linecap:round; stroke-linejoin:round; stroke-width:2; stroke-opacity:0.1; fill:none" points="328.079,458.548 2640.76,458.548 "/>
<polyline clip-path="url(#clip952)" style="stroke:#000000; stroke-linecap:round; stroke-linejoin:round; stroke-width:2; stroke-opacity:0.1; fill:none" points="328.079,47.2441 2640.76,47.2441 "/>
<polyline clip-path="url(#clip950)" style="stroke:#000000; stroke-linecap:round; stroke-linejoin:round; stroke-width:4; stroke-opacity:1; fill:none" points="328.079,1692.46 328.079,47.2441 "/>
<polyline clip-path="url(#clip950)" style="stroke:#000000; stroke-linecap:round; stroke-linejoin:round; stroke-width:4; stroke-opacity:1; fill:none" points="328.079,1692.46 346.977,1692.46 "/>
<polyline clip-path="url(#clip950)" style="stroke:#000000; stroke-linecap:round; stroke-linejoin:round; stroke-width:4; stroke-opacity:1; fill:none" points="328.079,1281.16 346.977,1281.16 "/>
<polyline clip-path="url(#clip950)" style="stroke:#000000; stroke-linecap:round; stroke-linejoin:round; stroke-width:4; stroke-opacity:1; fill:none" points="328.079,869.852 346.977,869.852 "/>
<polyline clip-path="url(#clip950)" style="stroke:#000000; stroke-linecap:round; stroke-linejoin:round; stroke-width:4; stroke-opacity:1; fill:none" points="328.079,458.548 346.977,458.548 "/>
<polyline clip-path="url(#clip950)" style="stroke:#000000; stroke-linecap:round; stroke-linejoin:round; stroke-width:4; stroke-opacity:1; fill:none" points="328.079,47.2441 346.977,47.2441 "/>
<path clip-path="url(#clip950)" d="M147.795 1712.48 L172.274 1712.48 L172.274 1718.38 L139.357 1718.38 L139.357 1712.48 Q143.35 1708.35 150.225 1701.4 Q157.135 1694.42 158.906 1692.41 Q162.274 1688.62 163.593 1686.02 Q164.947 1683.38 164.947 1680.85 Q164.947 1676.71 162.031 1674.11 Q159.149 1671.51 154.496 1671.51 Q151.198 1671.51 147.517 1672.65 Q143.871 1673.8 139.705 1676.12 L139.705 1669.04 Q143.941 1667.34 147.621 1666.47 Q151.302 1665.6 154.357 1665.6 Q162.413 1665.6 167.204 1669.63 Q171.996 1673.66 171.996 1680.39 Q171.996 1683.59 170.781 1686.47 Q169.6 1689.32 166.44 1693.21 Q165.572 1694.21 160.92 1699.04 Q156.267 1703.83 147.795 1712.48 Z" fill="#000000" fill-rule="nonzero" fill-opacity="1" /><path clip-path="url(#clip950)" d="M201.996 1671.16 Q196.579 1671.16 193.836 1676.51 Q191.128 1681.82 191.128 1692.51 Q191.128 1703.17 193.836 1708.52 Q196.579 1713.83 201.996 1713.83 Q207.447 1713.83 210.156 1708.52 Q212.899 1703.17 212.899 1692.51 Q212.899 1681.82 210.156 1676.51 Q207.447 1671.16 201.996 1671.16 M201.996 1665.6 Q210.711 1665.6 215.294 1672.51 Q219.912 1679.39 219.912 1692.51 Q219.912 1705.6 215.294 1712.51 Q210.711 1719.39 201.996 1719.39 Q193.281 1719.39 188.663 1712.51 Q184.079 1705.6 184.079 1692.51 Q184.079 1679.39 188.663 1672.51 Q193.281 1665.6 201.996 1665.6 Z" fill="#000000" fill-rule="nonzero" fill-opacity="1" /><path clip-path="url(#clip950)" d="M232.239 1709.56 L239.565 1709.56 L239.565 1718.38 L232.239 1718.38 L232.239 1709.56 Z" fill="#000000" fill-rule="nonzero" fill-opacity="1" /><path clip-path="url(#clip950)" d="M269.843 1671.16 Q264.426 1671.16 261.683 1676.51 Q258.975 1681.82 258.975 1692.51 Q258.975 1703.17 261.683 1708.52 Q264.426 1713.83 269.843 1713.83 Q275.294 1713.83 278.002 1708.52 Q280.745 1703.17 280.745 1692.51 Q280.745 1681.82 278.002 1676.51 Q275.294 1671.16 269.843 1671.16 M269.843 1665.6 Q278.558 1665.6 283.141 1672.51 Q287.759 1679.39 287.759 1692.51 Q287.759 1705.6 283.141 1712.51 Q278.558 1719.39 269.843 1719.39 Q261.127 1719.39 256.509 1712.51 Q251.926 1705.6 251.926 1692.51 Q251.926 1679.39 256.509 1672.51 Q261.127 1665.6 269.843 1665.6 Z" fill="#000000" fill-rule="nonzero" fill-opacity="1" /><path clip-path="url(#clip950)" d="M149.288 1301.17 L173.767 1301.17 L173.767 1307.08 L140.85 1307.08 L140.85 1301.17 Q144.843 1297.04 151.718 1290.1 Q158.628 1283.12 160.399 1281.1 Q163.767 1277.32 165.086 1274.71 Q166.44 1272.08 166.44 1269.54 Q166.44 1265.41 163.524 1262.81 Q160.642 1260.2 155.989 1260.2 Q152.691 1260.2 149.01 1261.35 Q145.364 1262.49 141.198 1264.82 L141.198 1257.74 Q145.434 1256.03 149.114 1255.17 Q152.795 1254.3 155.85 1254.3 Q163.906 1254.3 168.697 1258.33 Q173.489 1262.35 173.489 1269.09 Q173.489 1272.28 172.274 1275.17 Q171.093 1278.01 167.934 1281.9 Q167.065 1282.91 162.413 1287.74 Q157.76 1292.53 149.288 1301.17 Z" fill="#000000" fill-rule="nonzero" fill-opacity="1" /><path clip-path="url(#clip950)" d="M194.531 1301.17 L219.01 1301.17 L219.01 1307.08 L186.093 1307.08 L186.093 1301.17 Q190.086 1297.04 196.961 1290.1 Q203.871 1283.12 205.642 1281.1 Q209.01 1277.32 210.329 1274.71 Q211.683 1272.08 211.683 1269.54 Q211.683 1265.41 208.767 1262.81 Q205.885 1260.2 201.232 1260.2 Q197.933 1260.2 194.253 1261.35 Q190.607 1262.49 186.44 1264.82 L186.44 1257.74 Q190.676 1256.03 194.357 1255.17 Q198.038 1254.3 201.093 1254.3 Q209.149 1254.3 213.94 1258.33 Q218.732 1262.35 218.732 1269.09 Q218.732 1272.28 217.517 1275.17 Q216.336 1278.01 213.176 1281.9 Q212.308 1282.91 207.656 1287.74 Q203.003 1292.53 194.531 1301.17 Z" fill="#000000" fill-rule="nonzero" fill-opacity="1" /><path clip-path="url(#clip950)" d="M233.732 1298.26 L241.058 1298.26 L241.058 1307.08 L233.732 1307.08 L233.732 1298.26 Z" fill="#000000" fill-rule="nonzero" fill-opacity="1" /><path clip-path="url(#clip950)" d="M256.405 1255.24 L283.94 1255.24 L283.94 1261.14 L262.829 1261.14 L262.829 1273.85 Q264.357 1273.33 265.884 1273.08 Q267.412 1272.81 268.94 1272.81 Q277.62 1272.81 282.69 1277.56 Q287.759 1282.32 287.759 1290.44 Q287.759 1298.81 282.551 1303.46 Q277.343 1308.08 267.864 1308.08 Q264.6 1308.08 261.197 1307.53 Q257.829 1306.97 254.218 1305.86 L254.218 1298.81 Q257.343 1300.51 260.676 1301.35 Q264.009 1302.18 267.725 1302.18 Q273.732 1302.18 277.239 1299.02 Q280.745 1295.86 280.745 1290.44 Q280.745 1285.03 277.239 1281.87 Q273.732 1278.71 267.725 1278.71 Q264.912 1278.71 262.1 1279.33 Q259.322 1279.96 256.405 1281.28 L256.405 1255.24 Z" fill="#000000" fill-rule="nonzero" fill-opacity="1" /><path clip-path="url(#clip950)" d="M147.795 889.869 L172.274 889.869 L172.274 895.772 L139.357 895.772 L139.357 889.869 Q143.35 885.737 150.225 878.793 Q157.135 871.814 158.906 869.8 Q162.274 866.015 163.593 863.411 Q164.947 860.772 164.947 858.237 Q164.947 854.106 162.031 851.501 Q159.149 848.897 154.496 848.897 Q151.198 848.897 147.517 850.043 Q143.871 851.189 139.705 853.515 L139.705 846.432 Q143.941 844.731 147.621 843.863 Q151.302 842.994 154.357 842.994 Q162.413 842.994 167.204 847.022 Q171.996 851.05 171.996 857.786 Q171.996 860.98 170.781 863.862 Q169.6 866.71 166.44 870.598 Q165.572 871.605 160.92 876.432 Q156.267 881.223 147.795 889.869 Z" fill="#000000" fill-rule="nonzero" fill-opacity="1" /><path clip-path="url(#clip950)" d="M187.065 843.932 L214.6 843.932 L214.6 849.835 L193.489 849.835 L193.489 862.543 Q195.017 862.022 196.544 861.779 Q198.072 861.501 199.6 861.501 Q208.281 861.501 213.35 866.258 Q218.419 871.015 218.419 879.14 Q218.419 887.508 213.211 892.161 Q208.003 896.779 198.524 896.779 Q195.26 896.779 191.857 896.223 Q188.489 895.668 184.878 894.557 L184.878 887.508 Q188.003 889.21 191.336 890.043 Q194.67 890.876 198.385 890.876 Q204.392 890.876 207.899 887.716 Q211.406 884.557 211.406 879.14 Q211.406 873.723 207.899 870.564 Q204.392 867.404 198.385 867.404 Q195.572 867.404 192.76 868.029 Q189.982 868.654 187.065 869.973 L187.065 843.932 Z" fill="#000000" fill-rule="nonzero" fill-opacity="1" /><path clip-path="url(#clip950)" d="M232.239 886.953 L239.565 886.953 L239.565 895.772 L232.239 895.772 L232.239 886.953 Z" fill="#000000" fill-rule="nonzero" fill-opacity="1" /><path clip-path="url(#clip950)" d="M269.843 848.55 Q264.426 848.55 261.683 853.897 Q258.975 859.21 258.975 869.904 Q258.975 880.564 261.683 885.911 Q264.426 891.223 269.843 891.223 Q275.294 891.223 278.002 885.911 Q280.745 880.564 280.745 869.904 Q280.745 859.21 278.002 853.897 Q275.294 848.55 269.843 848.55 M269.843 842.994 Q278.558 842.994 283.141 849.904 Q287.759 856.779 287.759 869.904 Q287.759 882.994 283.141 889.904 Q278.558 896.779 269.843 896.779 Q261.127 896.779 256.509 889.904 Q251.926 882.994 251.926 869.904 Q251.926 856.779 256.509 849.904 Q261.127 842.994 269.843 842.994 Z" fill="#000000" fill-rule="nonzero" fill-opacity="1" /><path clip-path="url(#clip950)" d="M149.288 478.565 L173.767 478.565 L173.767 484.468 L140.85 484.468 L140.85 478.565 Q144.843 474.433 151.718 467.489 Q158.628 460.51 160.399 458.496 Q163.767 454.711 165.086 452.107 Q166.44 449.468 166.44 446.934 Q166.44 442.802 163.524 440.197 Q160.642 437.593 155.989 437.593 Q152.691 437.593 149.01 438.739 Q145.364 439.885 141.198 442.211 L141.198 435.128 Q145.434 433.427 149.114 432.559 Q152.795 431.691 155.85 431.691 Q163.906 431.691 168.697 435.718 Q173.489 439.746 173.489 446.482 Q173.489 449.677 172.274 452.558 Q171.093 455.406 167.934 459.295 Q167.065 460.301 162.413 465.128 Q157.76 469.919 149.288 478.565 Z" fill="#000000" fill-rule="nonzero" fill-opacity="1" /><path clip-path="url(#clip950)" d="M186.718 432.628 L220.051 432.628 L220.051 435.614 L201.232 484.468 L193.906 484.468 L211.614 438.531 L186.718 438.531 L186.718 432.628 Z" fill="#000000" fill-rule="nonzero" fill-opacity="1" /><path clip-path="url(#clip950)" d="M233.732 475.649 L241.058 475.649 L241.058 484.468 L233.732 484.468 L233.732 475.649 Z" fill="#000000" fill-rule="nonzero" fill-opacity="1" /><path clip-path="url(#clip950)" d="M256.405 432.628 L283.94 432.628 L283.94 438.531 L262.829 438.531 L262.829 451.239 Q264.357 450.718 265.884 450.475 Q267.412 450.197 268.94 450.197 Q277.62 450.197 282.69 454.954 Q287.759 459.711 287.759 467.836 Q287.759 476.204 282.551 480.857 Q277.343 485.475 267.864 485.475 Q264.6 485.475 261.197 484.919 Q257.829 484.364 254.218 483.253 L254.218 476.204 Q257.343 477.906 260.676 478.739 Q264.009 479.572 267.725 479.572 Q273.732 479.572 277.239 476.413 Q280.745 473.253 280.745 467.836 Q280.745 462.42 277.239 459.26 Q273.732 456.1 267.725 456.1 Q264.912 456.1 262.1 456.725 Q259.322 457.35 256.405 458.67 L256.405 432.628 Z" fill="#000000" fill-rule="nonzero" fill-opacity="1" /><path clip-path="url(#clip950)" d="M163.003 45.2129 Q168.038 46.2892 170.85 49.692 Q173.697 53.0948 173.697 58.0947 Q173.697 65.7683 168.42 69.9697 Q163.142 74.171 153.42 74.171 Q150.156 74.171 146.684 73.5113 Q143.246 72.8863 139.566 71.6016 L139.566 64.8308 Q142.482 66.5322 145.954 67.4002 Q149.427 68.2683 153.211 68.2683 Q159.809 68.2683 163.246 65.6641 Q166.718 63.06 166.718 58.0947 Q166.718 53.5114 163.489 50.942 Q160.295 48.3378 154.566 48.3378 L148.524 48.3378 L148.524 42.574 L154.843 42.574 Q160.017 42.574 162.76 40.5254 Q165.503 38.4421 165.503 34.5532 Q165.503 30.5602 162.656 28.4421 Q159.843 26.2893 154.566 26.2893 Q151.684 26.2893 148.385 26.9143 Q145.086 27.5393 141.128 28.8588 L141.128 22.6088 Q145.121 21.4977 148.593 20.9422 Q152.1 20.3866 155.191 20.3866 Q163.177 20.3866 167.829 24.0324 Q172.482 27.6435 172.482 33.824 Q172.482 38.1296 170.017 41.1157 Q167.552 44.067 163.003 45.2129 Z" fill="#000000" fill-rule="nonzero" fill-opacity="1" /><path clip-path="url(#clip950)" d="M201.996 25.9421 Q196.579 25.9421 193.836 31.2893 Q191.128 36.6018 191.128 47.2962 Q191.128 57.9558 193.836 63.303 Q196.579 68.6155 201.996 68.6155 Q207.447 68.6155 210.156 63.303 Q212.899 57.9558 212.899 47.2962 Q212.899 36.6018 210.156 31.2893 Q207.447 25.9421 201.996 25.9421 M201.996 20.3866 Q210.711 20.3866 215.294 27.2963 Q219.912 34.1712 219.912 47.2962 Q219.912 60.3864 215.294 67.2961 Q210.711 74.171 201.996 74.171 Q193.281 74.171 188.663 67.2961 Q184.079 60.3864 184.079 47.2962 Q184.079 34.1712 188.663 27.2963 Q193.281 20.3866 201.996 20.3866 Z" fill="#000000" fill-rule="nonzero" fill-opacity="1" /><path clip-path="url(#clip950)" d="M232.239 64.3447 L239.565 64.3447 L239.565 73.1641 L232.239 73.1641 L232.239 64.3447 Z" fill="#000000" fill-rule="nonzero" fill-opacity="1" /><path clip-path="url(#clip950)" d="M269.843 25.9421 Q264.426 25.9421 261.683 31.2893 Q258.975 36.6018 258.975 47.2962 Q258.975 57.9558 261.683 63.303 Q264.426 68.6155 269.843 68.6155 Q275.294 68.6155 278.002 63.303 Q280.745 57.9558 280.745 47.2962 Q280.745 36.6018 278.002 31.2893 Q275.294 25.9421 269.843 25.9421 M269.843 20.3866 Q278.558 20.3866 283.141 27.2963 Q287.759 34.1712 287.759 47.2962 Q287.759 60.3864 283.141 67.2961 Q278.558 74.171 269.843 74.171 Q261.127 74.171 256.509 67.2961 Q251.926 60.3864 251.926 47.2962 Q251.926 34.1712 256.509 27.2963 Q261.127 20.3866 269.843 20.3866 Z" fill="#000000" fill-rule="nonzero" fill-opacity="1" /><path clip-path="url(#clip950)" d="M18.3942 1320.75 L52.7922 1333.44 L52.7922 1308.02 L18.3942 1320.75 M9.1813 1326.03 L9.1813 1315.43 L78.3013 1289.09 L78.3013 1298.81 L60.5699 1305.1 L60.5699 1336.26 L78.3013 1342.56 L78.3013 1352.42 L9.1813 1326.03 Z" fill="#000000" fill-rule="nonzero" fill-opacity="1" /><path clip-path="url(#clip950)" d="M26.4497 1279.36 L26.4497 1270.85 L78.3013 1270.85 L78.3013 1279.36 L26.4497 1279.36 M6.26465 1279.36 L6.26465 1270.85 L17.0516 1270.85 L17.0516 1279.36 L6.26465 1279.36 Z" fill="#000000" fill-rule="nonzero" fill-opacity="1" /><path clip-path="url(#clip950)" d="M34.4126 1222.98 Q33.5793 1224.41 33.2089 1226.12 Q32.7923 1227.79 32.7923 1229.83 Q32.7923 1237.05 37.5145 1240.94 Q42.1904 1244.78 50.9866 1244.78 L78.3013 1244.78 L78.3013 1253.35 L26.4497 1253.35 L26.4497 1244.78 L34.5052 1244.78 Q29.783 1242.1 27.5145 1237.79 Q25.1997 1233.48 25.1997 1227.33 Q25.1997 1226.45 25.3386 1225.38 Q25.4312 1224.32 25.6627 1223.02 L34.4126 1222.98 Z" fill="#000000" fill-rule="nonzero" fill-opacity="1" /><path clip-path="url(#clip950)" d="M11.7276 1175.48 L26.4497 1175.48 L26.4497 1157.93 L33.0701 1157.93 L33.0701 1175.48 L61.2181 1175.48 Q67.5606 1175.48 69.3662 1173.76 Q71.1717 1172 71.1717 1166.68 L71.1717 1157.93 L78.3013 1157.93 L78.3013 1166.68 Q78.3013 1176.54 74.6439 1180.29 Q70.9402 1184.04 61.2181 1184.04 L33.0701 1184.04 L33.0701 1190.29 L26.4497 1190.29 L26.4497 1184.04 L11.7276 1184.04 L11.7276 1175.48 Z" fill="#000000" fill-rule="nonzero" fill-opacity="1" /><path clip-path="url(#clip950)" d="M50.2459 1102.37 L54.4125 1102.37 L54.4125 1141.54 Q63.2088 1140.98 67.8384 1136.26 Q72.4217 1131.49 72.4217 1123.02 Q72.4217 1118.11 71.218 1113.53 Q70.0143 1108.9 67.6069 1104.36 L75.6624 1104.36 Q77.6069 1108.95 78.6254 1113.76 Q79.6439 1118.58 79.6439 1123.53 Q79.6439 1135.94 72.4217 1143.21 Q65.1995 1150.43 52.8848 1150.43 Q40.1534 1150.43 32.6997 1143.58 Q25.1997 1136.68 25.1997 1125.01 Q25.1997 1114.55 31.959 1108.48 Q38.6719 1102.37 50.2459 1102.37 M47.7459 1110.89 Q40.7552 1110.98 36.5886 1114.83 Q32.4219 1118.62 32.4219 1124.92 Q32.4219 1132.05 36.4497 1136.36 Q40.4774 1140.61 47.7922 1141.26 L47.7459 1110.89 Z" fill="#000000" fill-rule="nonzero" fill-opacity="1" /><path clip-path="url(#clip950)" d="M36.4034 1048.02 Q30.6627 1044.83 27.9312 1040.38 Q25.1997 1035.94 25.1997 1029.92 Q25.1997 1021.82 30.8941 1017.42 Q36.5423 1013.02 47.0052 1013.02 L78.3013 1013.02 L78.3013 1021.59 L47.2829 1021.59 Q39.8293 1021.59 36.2182 1024.23 Q32.6071 1026.87 32.6071 1032.28 Q32.6071 1038.9 37.0052 1042.74 Q41.4033 1046.59 48.9959 1046.59 L78.3013 1046.59 L78.3013 1055.15 L47.2829 1055.15 Q39.783 1055.15 36.2182 1057.79 Q32.6071 1060.43 32.6071 1065.94 Q32.6071 1072.47 37.0515 1076.31 Q41.4496 1080.15 48.9959 1080.15 L78.3013 1080.15 L78.3013 1088.72 L26.4497 1088.72 L26.4497 1080.15 L34.5052 1080.15 Q29.7367 1077.24 27.4682 1073.16 Q25.1997 1069.09 25.1997 1063.49 Q25.1997 1057.84 28.0701 1053.9 Q30.9404 1049.92 36.4034 1048.02 Z" fill="#000000" fill-rule="nonzero" fill-opacity="1" /><path clip-path="url(#clip950)" d="M70.5236 987.791 L98.0234 987.791 L98.0234 996.356 L26.4497 996.356 L26.4497 987.791 L34.3201 987.791 Q29.6904 985.106 27.4682 981.032 Q25.1997 976.912 25.1997 971.217 Q25.1997 961.773 32.6997 955.893 Q40.1997 949.967 52.4218 949.967 Q64.644 949.967 72.1439 955.893 Q79.6439 961.773 79.6439 971.217 Q79.6439 976.912 77.4217 981.032 Q75.1532 985.106 70.5236 987.791 M52.4218 958.81 Q43.0237 958.81 37.6997 962.699 Q32.3293 966.541 32.3293 973.3 Q32.3293 980.06 37.6997 983.949 Q43.0237 987.791 52.4218 987.791 Q61.8199 987.791 67.1902 983.949 Q72.5143 980.06 72.5143 973.3 Q72.5143 966.541 67.1902 962.699 Q61.8199 958.81 52.4218 958.81 Z" fill="#000000" fill-rule="nonzero" fill-opacity="1" /><path clip-path="url(#clip950)" d="M50.2459 891.495 L54.4125 891.495 L54.4125 930.662 Q63.2088 930.106 67.8384 925.384 Q72.4217 920.616 72.4217 912.143 Q72.4217 907.236 71.218 902.653 Q70.0143 898.023 67.6069 893.486 L75.6624 893.486 Q77.6069 898.069 78.6254 902.884 Q79.6439 907.699 79.6439 912.653 Q79.6439 925.06 72.4217 932.328 Q65.1995 939.551 52.8848 939.551 Q40.1534 939.551 32.6997 932.699 Q25.1997 925.801 25.1997 914.134 Q25.1997 903.671 31.959 897.606 Q38.6719 891.495 50.2459 891.495 M47.7459 900.014 Q40.7552 900.106 36.5886 903.949 Q32.4219 907.745 32.4219 914.042 Q32.4219 921.171 36.4497 925.477 Q40.4774 929.736 47.7922 930.384 L47.7459 900.014 Z" fill="#000000" fill-rule="nonzero" fill-opacity="1" /><path clip-path="url(#clip950)" d="M34.4126 847.468 Q33.5793 848.903 33.2089 850.616 Q32.7923 852.283 32.7923 854.32 Q32.7923 861.542 37.5145 865.431 Q42.1904 869.273 50.9866 869.273 L78.3013 869.273 L78.3013 877.838 L26.4497 877.838 L26.4497 869.273 L34.5052 869.273 Q29.783 866.588 27.5145 862.283 Q25.1997 857.977 25.1997 851.82 Q25.1997 850.94 25.3386 849.875 Q25.4312 848.81 25.6627 847.514 L34.4126 847.468 Z" fill="#000000" fill-rule="nonzero" fill-opacity="1" /><path clip-path="url(#clip950)" d="M52.2366 814.968 Q52.2366 825.292 54.5977 829.273 Q56.9588 833.255 62.6532 833.255 Q67.1902 833.255 69.8754 830.292 Q72.5143 827.283 72.5143 822.144 Q72.5143 815.061 67.5143 810.801 Q62.4681 806.496 54.1348 806.496 L52.2366 806.496 L52.2366 814.968 M48.7181 797.977 L78.3013 797.977 L78.3013 806.496 L70.431 806.496 Q75.1532 809.412 77.4217 813.764 Q79.6439 818.116 79.6439 824.412 Q79.6439 832.375 75.1995 837.098 Q70.7087 841.773 63.2088 841.773 Q54.4588 841.773 50.0144 835.94 Q45.57 830.061 45.57 818.44 L45.57 806.496 L44.7367 806.496 Q38.8571 806.496 35.6626 810.385 Q32.4219 814.227 32.4219 821.218 Q32.4219 825.662 33.4867 829.875 Q34.5515 834.088 36.6812 837.977 L28.8108 837.977 Q27.0053 833.301 26.1257 828.903 Q25.1997 824.505 25.1997 820.338 Q25.1997 809.088 31.033 803.533 Q36.8663 797.977 48.7181 797.977 Z" fill="#000000" fill-rule="nonzero" fill-opacity="1" /><path clip-path="url(#clip950)" d="M11.7276 772.005 L26.4497 772.005 L26.4497 754.459 L33.0701 754.459 L33.0701 772.005 L61.2181 772.005 Q67.5606 772.005 69.3662 770.292 Q71.1717 768.533 71.1717 763.209 L71.1717 754.459 L78.3013 754.459 L78.3013 763.209 Q78.3013 773.07 74.6439 776.82 Q70.9402 780.57 61.2181 780.57 L33.0701 780.57 L33.0701 786.82 L26.4497 786.82 L26.4497 780.57 L11.7276 780.57 L11.7276 772.005 Z" fill="#000000" fill-rule="nonzero" fill-opacity="1" /><path clip-path="url(#clip950)" d="M57.8384 744.135 L26.4497 744.135 L26.4497 735.617 L57.5144 735.617 Q64.8754 735.617 68.5791 732.746 Q72.2365 729.876 72.2365 724.135 Q72.2365 717.237 67.8384 713.256 Q63.4403 709.228 55.8477 709.228 L26.4497 709.228 L26.4497 700.709 L78.3013 700.709 L78.3013 709.228 L70.3384 709.228 Q75.0606 712.33 77.3754 716.45 Q79.6439 720.524 79.6439 725.941 Q79.6439 734.876 74.0884 739.505 Q68.5328 744.135 57.8384 744.135 M25.1997 722.7 L25.1997 722.7 Z" fill="#000000" fill-rule="nonzero" fill-opacity="1" /><path clip-path="url(#clip950)" d="M34.4126 653.117 Q33.5793 654.552 33.2089 656.265 Q32.7923 657.932 32.7923 659.969 Q32.7923 667.191 37.5145 671.08 Q42.1904 674.922 50.9866 674.922 L78.3013 674.922 L78.3013 683.487 L26.4497 683.487 L26.4497 674.922 L34.5052 674.922 Q29.783 672.237 27.5145 667.932 Q25.1997 663.626 25.1997 657.469 Q25.1997 656.589 25.3386 655.524 Q25.4312 654.46 25.6627 653.163 L34.4126 653.117 Z" fill="#000000" fill-rule="nonzero" fill-opacity="1" /><path clip-path="url(#clip950)" d="M50.2459 601.914 L54.4125 601.914 L54.4125 641.08 Q63.2088 640.524 67.8384 635.802 Q72.4217 631.034 72.4217 622.562 Q72.4217 617.654 71.218 613.071 Q70.0143 608.441 67.6069 603.904 L75.6624 603.904 Q77.6069 608.488 78.6254 613.302 Q79.6439 618.117 79.6439 623.071 Q79.6439 635.478 72.4217 642.747 Q65.1995 649.969 52.8848 649.969 Q40.1534 649.969 32.6997 643.117 Q25.1997 636.219 25.1997 624.552 Q25.1997 614.089 31.959 608.025 Q38.6719 601.914 50.2459 601.914 M47.7459 610.432 Q40.7552 610.525 36.5886 614.367 Q32.4219 618.164 32.4219 624.46 Q32.4219 631.589 36.4497 635.895 Q40.4774 640.154 47.7922 640.802 L47.7459 610.432 Z" fill="#000000" fill-rule="nonzero" fill-opacity="1" /><path clip-path="url(#clip950)" d="M6.35724 537.331 Q17.0053 543.534 27.4219 546.544 Q37.8386 549.553 48.5329 549.553 Q59.2273 549.553 69.7365 546.544 Q80.1994 543.488 90.8012 537.331 L90.8012 544.738 Q79.9217 551.682 69.4125 555.155 Q58.9033 558.58 48.5329 558.58 Q38.2089 558.58 27.746 555.155 Q17.2831 551.729 6.35724 544.738 L6.35724 537.331 Z" fill="#000000" fill-rule="nonzero" fill-opacity="1" /><path clip-path="url(#clip950)" d="M13.9035 506.034 Q13.9035 509.738 16.4961 512.284 Q19.0424 514.831 22.746 514.831 Q26.4034 514.831 28.9497 512.284 Q31.4497 509.738 31.4497 506.034 Q31.4497 502.331 28.9497 499.785 Q26.4034 497.238 22.746 497.238 Q19.0887 497.238 16.4961 499.831 Q13.9035 502.377 13.9035 506.034 M7.93131 506.034 Q7.93131 503.072 9.08871 500.34 Q10.1998 497.609 12.3294 495.618 Q14.4128 493.488 17.0516 492.423 Q19.6905 491.359 22.746 491.359 Q28.8571 491.359 33.1164 495.664 Q37.3293 499.923 37.3293 506.127 Q37.3293 512.377 33.1627 516.544 Q28.996 520.71 22.746 520.71 Q16.5424 520.71 12.2368 516.451 Q7.93131 512.192 7.93131 506.034 Z" fill="#000000" fill-rule="nonzero" fill-opacity="1" /><path clip-path="url(#clip950)" d="M14.5053 421.266 L24.3664 421.266 Q19.9683 425.989 17.7924 431.359 Q15.6165 436.683 15.6165 442.701 Q15.6165 454.553 22.8849 460.85 Q30.1071 467.146 43.8107 467.146 Q57.4681 467.146 64.7366 460.85 Q71.9587 454.553 71.9587 442.701 Q71.9587 436.683 69.7828 431.359 Q67.6069 425.989 63.2088 421.266 L72.9773 421.266 Q76.3106 426.174 77.9772 431.683 Q79.6439 437.146 79.6439 443.257 Q79.6439 458.951 70.0606 467.979 Q60.431 477.007 43.8107 477.007 Q27.1442 477.007 17.5609 467.979 Q7.93131 458.951 7.93131 443.257 Q7.93131 437.053 9.59796 431.59 Q11.2183 426.081 14.5053 421.266 Z" fill="#000000" fill-rule="nonzero" fill-opacity="1" /><path clip-path="url(#clip950)" d="M6.35724 408.535 L6.35724 401.128 Q17.2831 394.183 27.746 390.757 Q38.2089 387.285 48.5329 387.285 Q58.9033 387.285 69.4125 390.757 Q79.9217 394.183 90.8012 401.128 L90.8012 408.535 Q80.1994 402.378 69.7365 399.368 Q59.2273 396.313 48.5329 396.313 Q37.8386 396.313 27.4219 399.368 Q17.0053 402.378 6.35724 408.535 Z" fill="#000000" fill-rule="nonzero" fill-opacity="1" /><polyline clip-path="url(#clip952)" style="stroke:#000000; stroke-linecap:round; stroke-linejoin:round; stroke-width:8; stroke-opacity:1; fill:none" points="393.532,739.237 398.317,733.484 403.102,708.609 407.886,673.588 412.671,707.955 417.455,662.184 422.24,639.702 427.024,570.684 431.809,493.446 436.594,513.834 441.378,516.955 446.163,475.738 450.947,527.828 455.732,538.128 460.517,519.741 465.301,536.713 470.086,574.581 474.87,641.714 479.655,685.761 484.439,719.166 489.224,842.004 494.009,971.036 498.793,1161.8 503.578,1033.11 508.362,1115.63 513.147,1050.53 517.932,1263.43 522.716,1075.6 527.501,1085.76 532.285,1043.08 537.07,1006.8 541.855,948.876 546.639,995.577 551.424,916.537 556.208,865.104 560.993,791.599 565.777,821.143 570.562,820.455 575.347,803.287 580.131,772.81 584.916,690.321 589.7,689.987 594.485,712.23 599.27,722.834 604.054,662.176 608.839,664.114 612.427,671.373 617.212,557.721 621.996,558.123 626.781,526.306 631.565,615.924 636.35,532.188 641.135,496.167 645.919,434.46 650.704,422.241 655.488,360.568 660.273,512.168 665.058,420.389 669.842,524.685 674.627,524.302 679.411,557.663 684.196,511.794 688.98,559.318 693.765,679.188 698.55,808.76 703.334,925.095 708.119,1017.91 712.903,1076.01 717.688,1006.46 722.473,1237.81 727.257,1140.19 732.042,1375.26 736.826,1189.4 741.611,1188.44 746.395,1283.87 751.18,1124.89 755.965,1144 760.749,1142.79 765.534,1067.2 770.318,1183.62 775.103,1015.43 779.888,916.543 784.672,875.718 789.457,851.08 794.241,836.651 799.026,793.953 803.81,803.66 808.595,775.554 813.38,708.902 818.164,784.919 822.949,733.959 827.733,709.479 830.724,738.493 835.508,691.846 840.293,637.947 845.078,626.997 849.862,629.568 854.647,545.051 859.431,564.562 864.216,490.538 869,502.548 873.785,521.816 878.57,519.876 883.354,471.485 888.139,457.607 892.923,459.162 897.708,546.81 902.493,531.107 907.277,515.35 912.062,533.689 916.846,655.552 921.631,792.397 926.415,927.1 931.2,958.74 935.985,1045.08 940.769,1165.07 945.554,1139.85 950.338,1297.43 955.123,1343.7 959.908,1253.86 964.692,1186.85 969.477,1164.32 974.261,1135.12 979.046,1026.04 983.83,1049.98 988.615,984.212 993.4,920.084 998.184,876.829 1002.97,889.752 1007.75,821.349 1012.54,866.077 1017.32,816.396 1022.11,762.131 1026.89,750.144 1031.68,768.1 1036.46,743.023 1041.25,757.165 1046.03,817.43 1049.02,784.235 1053.81,707.621 1058.59,614.922 1063.37,654.06 1068.16,583.601 1072.94,570.408 1077.73,611.125 1082.51,537.806 1087.3,498.417 1092.08,523.861 1096.87,506.623 1101.65,566.277 1106.44,442.773 1111.22,508.186 1116,458.184 1120.79,508.171 1125.57,518.532 1130.36,558.33 1135.14,747.312 1139.93,962.196 1144.71,1078.41 1149.5,1102.9 1154.28,1046.02 1159.07,1061.06 1163.85,1130.19 1168.64,1258.75 1173.42,1199.08 1178.2,1272.3 1182.99,1175.2 1187.77,1157.93 1192.56,1141.87 1197.34,1055.82 1202.13,1052.76 1206.91,935.496 1211.7,936.191 1216.48,878.676 1221.27,898.389 1226.05,822.272 1230.83,790.195 1235.62,778.64 1240.4,714.767 1245.19,699.756 1249.97,734.288 1254.76,677.36 1259.54,703.346 1264.33,647.607 1267.32,593.043 1272.1,537.518 1276.89,612.502 1281.67,617.057 1286.46,520.363 1291.24,497.772 1296.02,457.844 1300.81,425.42 1305.59,403.478 1310.38,428.62 1315.16,364.171 1319.95,468.868 1324.73,394.634 1329.52,374.261 1334.3,469.616 1339.09,484.632 1343.87,490.744 1348.66,605.033 1353.44,636.748 1358.22,706.34 1363.01,952.195 1367.79,874.432 1372.58,891.239 1377.36,952.89 1382.15,982.684 1386.93,1019.43 1391.72,1048.8 1396.5,982.876 1401.29,1023.87 1406.07,1037.62 1410.85,906.007 1415.64,959.49 1420.42,934.708 1425.21,849.785 1429.99,828.666 1434.78,792.238 1439.56,758.813 1444.35,721.913 1449.13,706.607 1453.92,676.736 1458.7,629.962 1463.49,641.428 1468.27,608.06 1473.05,645.384 1477.84,611.943 1482.62,645.584 1486.21,625.091 1491,628.978 1495.78,586.981 1500.57,566.844 1505.35,546.282 1510.13,538.996 1514.92,477.996 1519.7,488.85 1524.49,405.782 1529.27,444.193 1534.06,415.689 1538.84,358.517 1543.63,477.62 1548.41,436.362 1553.2,467.601 1557.98,557.595 1562.77,616.904 1567.55,592.682 1572.33,592.651 1577.12,713.349 1581.9,899.236 1586.69,889.908 1591.47,1054.2 1596.26,1218.98 1601.04,1106.71 1605.83,1282.58 1610.61,1166.63 1615.4,1224.72 1620.18,1111.13 1624.96,1088.93 1629.75,1060.55 1634.53,1035.73 1639.32,1015.84 1644.1,936 1648.89,868.031 1653.67,844.812 1658.46,772.431 1663.24,744.455 1668.03,721.169 1672.81,710.778 1677.6,725.957 1682.38,710.462 1687.16,753.703 1691.95,746.557 1696.73,724.427 1701.52,698.381 1704.51,723.05 1709.29,727.767 1714.08,683.896 1718.86,640.897 1723.65,525.748 1728.43,520.718 1733.22,508.295 1738,466.013 1742.79,427.927 1747.57,403.394 1752.35,503.402 1757.14,468.323 1761.92,472.255 1766.71,453.676 1771.49,448.523 1776.28,491.622 1781.06,542.131 1785.85,608.467 1790.63,632.106 1795.42,694.871 1800.2,736.165 1804.98,866.041 1809.77,893.635 1814.55,984.673 1819.34,984.368 1824.12,1150.55 1828.91,1015.2 1833.69,1049.14 1838.48,1004 1843.26,1047.82 1848.05,936.186 1852.83,882.498 1857.62,857.322 1862.4,882.826 1867.18,787.797 1871.97,780.088 1876.75,715.056 1881.54,669.922 1886.32,704.182 1891.11,615.21 1895.89,650.07 1900.68,673.583 1905.46,671.828 1910.25,676.499 1915.03,701.571 1919.81,639.555 1922.81,633.142 1927.59,568.614 1932.37,576.734 1937.16,532.467 1941.94,512.164 1946.73,446.72 1951.51,421.326 1956.3,486.198 1961.08,402.448 1965.87,405.124 1970.65,382.735 1975.44,346.203 1980.22,432.896 1985,412.663 1989.79,436.275 1994.57,455.315 1999.36,436.062 2004.14,533.679 2008.93,705.168 2013.71,926.35 2018.5,781.722 2023.28,908.57 2028.07,919.439 2032.85,1149.58 2037.64,944.236 2042.42,1023.75 2047.2,1083.05 2051.99,1061.79 2056.77,977.95 2061.56,986.838 2066.34,927.355 2071.13,859.625 2075.91,854.131 2080.7,773.224 2085.48,771.406 2090.27,732.741 2095.05,667.937 2099.83,650.91 2104.62,640.336 2109.4,624.826 2114.19,604.178 2118.97,628.763 2123.76,646.769 2128.54,587.843 2133.33,554.789 2138.11,494.334 2141.1,496.574 2145.89,494.669 2150.67,485.252 2155.46,463.135 2160.24,463.999 2165.02,451.589 2169.81,375.33 2174.59,340.098 2179.38,364 2184.16,412.472 2188.95,359.439 2193.73,324.661 2198.52,337.422 2203.3,417.318 2208.09,436.39 2212.87,392.808 2217.66,449.299 2222.44,457.773 2227.22,568.65 2232.01,666.39 2236.79,946.737 2241.58,1087.18 2246.36,1185.3 2251.15,1082.66 2255.93,1056.07 2260.72,993.98 2265.5,1194.84 2270.29,1028.37 2275.07,1069.51 2279.85,1219.06 2284.64,1062.09 2289.42,1075.51 2294.21,1052.45 2298.99,1087.43 2303.78,945.333 2308.56,879.066 2313.35,856.952 2318.13,794.152 2322.92,722.206 2327.7,700.778 2332.49,707.847 2337.27,735.022 2342.05,704.777 2346.84,704.974 2351.62,681.993 2356.41,648.117 2360,626.706 2364.78,634.428 2369.57,619.412 2374.35,606.594 2379.13,511.942 2383.92,484.845 2388.7,553.168 2393.49,460.175 2398.27,479.94 2403.06,526.702 2407.84,557.289 2412.63,432.017 2417.41,428.775 2422.2,489.184 2426.98,440.652 2431.77,477.247 2436.55,455.901 2441.33,503.445 2446.12,557.477 2450.9,641.204 2455.69,639.568 2460.47,699.348 2465.26,745.932 2470.04,916.132 2474.83,953.003 2479.61,974.33 2484.4,934.443 2489.18,926.224 2493.96,904.456 2498.75,977.753 2503.53,981.082 2508.32,791.807 2513.1,833.983 2517.89,796.671 2522.67,775.663 2527.46,705.431 2532.24,748.946 2537.03,729.232 2541.81,657.342 2546.6,661.353 2551.38,599.798 2556.16,656.263 2560.95,626.721 2565.73,646.091 2570.52,626.005 2575.3,614.069 "/>
</svg>
